%TF.GenerationSoftware,KiCad,Pcbnew,10.0.5*%
%TF.CreationDate,2026-08-22T18:41:35+02:00*%
%TF.ProjectId,ESP32_Motor,45535033-325f-44d6-9f74-6f722e6b6963,rev?*%
%TF.SameCoordinates,Original*%
%TF.FileFunction,Soldermask,Bot*%
%TF.FilePolarity,Negative*%
%FSLAX46Y46*%
G04 Gerber Fmt 4.6, Leading zero omitted, Abs format (unit mm)*
G04 Created by KiCad (PCBNEW 10.0.5) date 2026-08-22 18:41:35*
%MOMM*%
%LPD*%
G01*
G04 APERTURE LIST*
G04 Aperture macros list*
%AMRoundRect*
0 Rectangle with rounded corners*
0 $1 Rounding radius*
0 $2 $3 $4 $5 $6 $7 $8 $9 X,Y pos of 4 corners*
0 Add a 4 corners polygon primitive as box body*
4,1,4,$2,$3,$4,$5,$6,$7,$8,$9,$2,$3,0*
0 Add four circle primitives for the rounded corners*
1,1,$1+$1,$2,$3*
1,1,$1+$1,$4,$5*
1,1,$1+$1,$6,$7*
1,1,$1+$1,$8,$9*
0 Add four rect primitives between the rounded corners*
20,1,$1+$1,$2,$3,$4,$5,0*
20,1,$1+$1,$4,$5,$6,$7,0*
20,1,$1+$1,$6,$7,$8,$9,0*
20,1,$1+$1,$8,$9,$2,$3,0*%
G04 Aperture macros list end*
%ADD10RoundRect,0.249999X-0.850001X0.850001X-0.850001X-0.850001X0.850001X-0.850001X0.850001X0.850001X0*%
%ADD11C,2.200000*%
%ADD12RoundRect,0.250000X-1.050000X1.050000X-1.050000X-1.050000X1.050000X-1.050000X1.050000X1.050000X0*%
%ADD13C,2.600000*%
%ADD14RoundRect,0.250000X1.050000X-1.050000X1.050000X1.050000X-1.050000X1.050000X-1.050000X-1.050000X0*%
%ADD15R,2.000000X2.000000*%
%ADD16O,2.000000X2.000000*%
G04 APERTURE END LIST*
D10*
%TO.C,D2*%
X164250000Y-92625000D03*
D11*
X164250000Y-102785000D03*
%TD*%
D12*
%TO.C,J1*%
X106750000Y-94170000D03*
D13*
X106750000Y-99250000D03*
%TD*%
D14*
%TO.C,J2*%
X172750000Y-100750000D03*
D13*
X172750000Y-95670000D03*
%TD*%
D15*
%TO.C,U2*%
X130753680Y-71992720D03*
D16*
X130753680Y-74532720D03*
X130753680Y-77072720D03*
X130753680Y-79612720D03*
X130753680Y-82152720D03*
X130753680Y-84692720D03*
X130753680Y-87232720D03*
X130753680Y-89772720D03*
X130753680Y-92312720D03*
X130753680Y-94852720D03*
X130753680Y-97392720D03*
X130753680Y-99932720D03*
X130753680Y-102472720D03*
X130753680Y-105012720D03*
X130753680Y-107552720D03*
X130753680Y-110092720D03*
X130753680Y-112632720D03*
X130753680Y-115172720D03*
X130753680Y-117712720D03*
X130750000Y-120250000D03*
X130750000Y-122790000D03*
X130750000Y-125330000D03*
X156153680Y-125332720D03*
X156153680Y-122792720D03*
X156153680Y-120252720D03*
X156153680Y-117712720D03*
X156153680Y-115172720D03*
X156153680Y-112632720D03*
X156153680Y-110092720D03*
X156153680Y-107552720D03*
X156153680Y-105012720D03*
X156153680Y-102472720D03*
X156153680Y-99932720D03*
X156153680Y-97392720D03*
X156153680Y-94852720D03*
X156153680Y-92312720D03*
X156153680Y-89772720D03*
X156153680Y-87232720D03*
X156153680Y-84692720D03*
X156153680Y-82152720D03*
X156153680Y-79612720D03*
X156153680Y-77072720D03*
X156153680Y-74532720D03*
D15*
X156153680Y-71992720D03*
%TD*%
M02*
