M48
; DRILL file KiCad 10.0.5 date 2026-08-22T18:41:50
; FORMAT={-:-/ absolute / metric / decimal}
; #@! TF.CreationDate,2026-08-22T18:41:50+02:00
; #@! TF.GenerationSoftware,Kicad,Pcbnew,10.0.5
; #@! TF.FileFunction,Plated,1,2,PTH
FMAT,2
METRIC
; #@! TA.AperFunction,Plated,PTH,ViaDrill
T1C0.400
; #@! TA.AperFunction,Plated,PTH,ComponentDrill
T2C1.000
; #@! TA.AperFunction,Plated,PTH,ComponentDrill
T3C1.100
; #@! TA.AperFunction,Plated,PTH,ComponentDrill
T4C1.300
%
G90
G05
T1
X126.75Y-110.0
T2
X130.75Y-120.25
X130.75Y-122.79
X130.75Y-125.33
X130.754Y-71.993
X130.754Y-74.533
X130.754Y-77.073
X130.754Y-79.613
X130.754Y-82.153
X130.754Y-84.693
X130.754Y-87.233
X130.754Y-89.773
X130.754Y-92.313
X130.754Y-94.853
X130.754Y-97.393
X130.754Y-99.933
X130.754Y-102.473
X130.754Y-105.013
X130.754Y-107.553
X130.754Y-110.093
X130.754Y-112.633
X130.754Y-115.173
X130.754Y-117.713
X156.154Y-71.993
X156.154Y-74.533
X156.154Y-77.073
X156.154Y-79.613
X156.154Y-82.153
X156.154Y-84.693
X156.154Y-87.233
X156.154Y-89.773
X156.154Y-92.313
X156.154Y-94.853
X156.154Y-97.393
X156.154Y-99.933
X156.154Y-102.473
X156.154Y-105.013
X156.154Y-107.553
X156.154Y-110.093
X156.154Y-112.633
X156.154Y-115.173
X156.154Y-117.713
X156.154Y-120.253
X156.154Y-122.793
X156.154Y-125.333
T3
X164.25Y-92.625
X164.25Y-102.785
T4
X106.75Y-94.17
X106.75Y-99.25
X172.75Y-95.67
X172.75Y-100.75
M30
