%TF.GenerationSoftware,KiCad,Pcbnew,10.0.5*%
%TF.CreationDate,2026-08-22T18:41:34+02:00*%
%TF.ProjectId,ESP32_Motor,45535033-325f-44d6-9f74-6f722e6b6963,rev?*%
%TF.SameCoordinates,Original*%
%TF.FileFunction,Copper,L1,Top*%
%TF.FilePolarity,Positive*%
%FSLAX46Y46*%
G04 Gerber Fmt 4.6, Leading zero omitted, Abs format (unit mm)*
G04 Created by KiCad (PCBNEW 10.0.5) date 2026-08-22 18:41:34*
%MOMM*%
%LPD*%
G01*
G04 APERTURE LIST*
G04 Aperture macros list*
%AMRoundRect*
0 Rectangle with rounded corners*
0 $1 Rounding radius*
0 $2 $3 $4 $5 $6 $7 $8 $9 X,Y pos of 4 corners*
0 Add a 4 corners polygon primitive as box body*
4,1,4,$2,$3,$4,$5,$6,$7,$8,$9,$2,$3,0*
0 Add four circle primitives for the rounded corners*
1,1,$1+$1,$2,$3*
1,1,$1+$1,$4,$5*
1,1,$1+$1,$6,$7*
1,1,$1+$1,$8,$9*
0 Add four rect primitives between the rounded corners*
20,1,$1+$1,$2,$3,$4,$5,0*
20,1,$1+$1,$4,$5,$6,$7,0*
20,1,$1+$1,$6,$7,$8,$9,0*
20,1,$1+$1,$8,$9,$2,$3,0*%
G04 Aperture macros list end*
%TA.AperFunction,ComponentPad*%
%ADD10RoundRect,0.249999X-0.850001X0.850001X-0.850001X-0.850001X0.850001X-0.850001X0.850001X0.850001X0*%
%TD*%
%TA.AperFunction,ComponentPad*%
%ADD11C,2.200000*%
%TD*%
%TA.AperFunction,SMDPad,CuDef*%
%ADD12RoundRect,0.250000X-0.475000X0.250000X-0.475000X-0.250000X0.475000X-0.250000X0.475000X0.250000X0*%
%TD*%
%TA.AperFunction,SMDPad,CuDef*%
%ADD13RoundRect,0.150000X-0.587500X-0.150000X0.587500X-0.150000X0.587500X0.150000X-0.587500X0.150000X0*%
%TD*%
%TA.AperFunction,SMDPad,CuDef*%
%ADD14RoundRect,0.250000X0.250000X0.475000X-0.250000X0.475000X-0.250000X-0.475000X0.250000X-0.475000X0*%
%TD*%
%TA.AperFunction,SMDPad,CuDef*%
%ADD15RoundRect,0.150000X-0.150000X0.587500X-0.150000X-0.587500X0.150000X-0.587500X0.150000X0.587500X0*%
%TD*%
%TA.AperFunction,ComponentPad*%
%ADD16RoundRect,0.250000X-1.050000X1.050000X-1.050000X-1.050000X1.050000X-1.050000X1.050000X1.050000X0*%
%TD*%
%TA.AperFunction,ComponentPad*%
%ADD17C,2.600000*%
%TD*%
%TA.AperFunction,ComponentPad*%
%ADD18RoundRect,0.250000X1.050000X-1.050000X1.050000X1.050000X-1.050000X1.050000X-1.050000X-1.050000X0*%
%TD*%
%TA.AperFunction,SMDPad,CuDef*%
%ADD19RoundRect,0.250000X0.350000X0.450000X-0.350000X0.450000X-0.350000X-0.450000X0.350000X-0.450000X0*%
%TD*%
%TA.AperFunction,SMDPad,CuDef*%
%ADD20RoundRect,0.250000X-0.350000X-0.450000X0.350000X-0.450000X0.350000X0.450000X-0.350000X0.450000X0*%
%TD*%
%TA.AperFunction,ComponentPad*%
%ADD21R,2.000000X2.000000*%
%TD*%
%TA.AperFunction,ComponentPad*%
%ADD22O,2.000000X2.000000*%
%TD*%
%TA.AperFunction,SMDPad,CuDef*%
%ADD23RoundRect,0.250000X0.300000X-0.300000X0.300000X0.300000X-0.300000X0.300000X-0.300000X-0.300000X0*%
%TD*%
%TA.AperFunction,SMDPad,CuDef*%
%ADD24RoundRect,0.218750X-0.381250X0.218750X-0.381250X-0.218750X0.381250X-0.218750X0.381250X0.218750X0*%
%TD*%
%TA.AperFunction,SMDPad,CuDef*%
%ADD25RoundRect,0.249999X-1.250001X-1.250001X1.250001X-1.250001X1.250001X1.250001X-1.250001X1.250001X0*%
%TD*%
%TA.AperFunction,SMDPad,CuDef*%
%ADD26R,2.300000X3.100000*%
%TD*%
%TA.AperFunction,ViaPad*%
%ADD27C,0.800000*%
%TD*%
%TA.AperFunction,Conductor*%
%ADD28C,1.000000*%
%TD*%
%TA.AperFunction,Conductor*%
%ADD29C,0.200000*%
%TD*%
%TA.AperFunction,Conductor*%
%ADD30C,0.500000*%
%TD*%
G04 APERTURE END LIST*
D10*
%TO.P,D2,1,K_1*%
%TO.N,+5VP*%
X164250000Y-92625000D03*
D11*
%TO.P,D2,2,A_2*%
%TO.N,Net-(D2-A)*%
X164250000Y-102785000D03*
%TD*%
D12*
%TO.P,C5,1*%
%TO.N,+5V*%
X126700000Y-122725000D03*
%TO.P,C5,2*%
%TO.N,GND*%
X126700000Y-124625000D03*
%TD*%
D13*
%TO.P,Q1,1,G_1*%
%TO.N,Net-(D1-A)*%
X124485000Y-99390000D03*
%TO.P,Q1,2,S_2*%
%TO.N,+5VP*%
X124485000Y-101290000D03*
%TO.P,Q1,3,D_3*%
%TO.N,Net-(Q1-D)*%
X126360000Y-100340000D03*
%TD*%
D14*
%TO.P,C2,1*%
%TO.N,+5VP*%
X124250000Y-106750000D03*
%TO.P,C2,2*%
%TO.N,GND*%
X122350000Y-106750000D03*
%TD*%
D15*
%TO.P,Q2,1,B_1*%
%TO.N,Net-(Q2-B)*%
X161750000Y-84250000D03*
%TO.P,Q2,2,E_2*%
%TO.N,GND*%
X159850000Y-84250000D03*
%TO.P,Q2,3,C_3*%
%TO.N,Net-(D2-A)*%
X160800000Y-86125000D03*
%TD*%
D16*
%TO.P,J1,1,Pin_1_1*%
%TO.N,Net-(J1-Pin_1)*%
X106750000Y-94170000D03*
D17*
%TO.P,J1,2,Pin_2_2*%
%TO.N,GND*%
X106750000Y-99250000D03*
%TD*%
D18*
%TO.P,J2,1,Pin_1_1*%
%TO.N,Net-(D2-A)*%
X172750000Y-100750000D03*
D17*
%TO.P,J2,2,Pin_2_2*%
%TO.N,+5VP*%
X172750000Y-95670000D03*
%TD*%
D14*
%TO.P,C3,1*%
%TO.N,+5VP*%
X124372500Y-109750000D03*
%TO.P,C3,2*%
%TO.N,GND*%
X122472500Y-109750000D03*
%TD*%
D19*
%TO.P,R5,1*%
%TO.N,Net-(Q2-B)*%
X161800000Y-82187500D03*
%TO.P,R5,2*%
%TO.N,GND*%
X159800000Y-82187500D03*
%TD*%
D20*
%TO.P,R4,1*%
%TO.N,Net-(U2-GPIO1)*%
X159750000Y-79750000D03*
%TO.P,R4,2*%
%TO.N,Net-(Q2-B)*%
X161750000Y-79750000D03*
%TD*%
D21*
%TO.P,U2,1,3V3_1*%
%TO.N,Net-(RV1-Pad3)*%
X130753680Y-71992720D03*
D22*
%TO.P,U2,2,3V3_2*%
%TO.N,unconnected-(U2-3V3-Pad2)*%
X130753680Y-74532720D03*
%TO.P,U2,3,RST_3*%
%TO.N,unconnected-(U2-RST-Pad3)*%
X130753680Y-77072720D03*
%TO.P,U2,4,GPIO4_4*%
%TO.N,Net-(U2-GPIO4)*%
X130753680Y-79612720D03*
%TO.P,U2,5,GPIO5_5*%
%TO.N,unconnected-(U2-GPIO5-Pad5)*%
X130753680Y-82152720D03*
%TO.P,U2,6,GPIO6_6*%
%TO.N,unconnected-(U2-GPIO6-Pad6)*%
X130753680Y-84692720D03*
%TO.P,U2,7,GPIO7_7*%
%TO.N,unconnected-(U2-GPIO7-Pad7)*%
X130753680Y-87232720D03*
%TO.P,U2,8,GPIO15_8*%
%TO.N,unconnected-(U2-GPIO15-Pad8)*%
X130753680Y-89772720D03*
%TO.P,U2,9,GPIO16_9*%
%TO.N,unconnected-(U2-GPIO16-Pad9)*%
X130753680Y-92312720D03*
%TO.P,U2,10,GPIO17_10*%
%TO.N,unconnected-(U2-GPIO17-Pad10)*%
X130753680Y-94852720D03*
%TO.P,U2,11,GPIO18_11*%
%TO.N,unconnected-(U2-GPIO18-Pad11)*%
X130753680Y-97392720D03*
%TO.P,U2,12,GPIO8_12*%
%TO.N,unconnected-(U2-GPIO8-Pad12)*%
X130753680Y-99932720D03*
%TO.P,U2,13,GPIO3_13*%
%TO.N,unconnected-(U2-GPIO3-Pad13)*%
X130753680Y-102472720D03*
%TO.P,U2,14,GPIO46_14*%
%TO.N,unconnected-(U2-GPIO46-Pad14)*%
X130753680Y-105012720D03*
%TO.P,U2,15,GPIO9_15*%
%TO.N,unconnected-(U2-GPIO9-Pad15)*%
X130753680Y-107552720D03*
%TO.P,U2,16,GPIO10_16*%
%TO.N,unconnected-(U2-GPIO10-Pad16)*%
X130753680Y-110092720D03*
%TO.P,U2,17,GPIO11_17*%
%TO.N,unconnected-(U2-GPIO11-Pad17)*%
X130753680Y-112632720D03*
%TO.P,U2,18,GPIO12_18*%
%TO.N,unconnected-(U2-GPIO12-Pad18)*%
X130753680Y-115172720D03*
%TO.P,U2,19,GPIO13_19*%
%TO.N,unconnected-(U2-GPIO13-Pad19)*%
X130753680Y-117712720D03*
%TO.P,U2,20,GPIO14_20*%
%TO.N,unconnected-(U2-GPIO14-Pad20)*%
X130750000Y-120250000D03*
%TO.P,U2,21,5V_21*%
%TO.N,+5V*%
X130750000Y-122790000D03*
%TO.P,U2,22,GND_22*%
%TO.N,GND*%
X130750000Y-125330000D03*
%TO.P,U2,23,GND_23*%
X156153680Y-125332720D03*
%TO.P,U2,24,GND_24*%
X156153680Y-122792720D03*
%TO.P,U2,25,GPIO19_25*%
%TO.N,unconnected-(U2-GPIO19-Pad25)*%
X156153680Y-120252720D03*
%TO.P,U2,26,GPIO20_26*%
%TO.N,unconnected-(U2-GPIO20-Pad26)*%
X156153680Y-117712720D03*
%TO.P,U2,27,GPIO21_27*%
%TO.N,unconnected-(U2-GPIO21-Pad27)*%
X156153680Y-115172720D03*
%TO.P,U2,28,GPIO47_28*%
%TO.N,unconnected-(U2-GPIO47-Pad28)*%
X156153680Y-112632720D03*
%TO.P,U2,29,GPIO48_29*%
%TO.N,unconnected-(U2-GPIO48-Pad29)*%
X156153680Y-110092720D03*
%TO.P,U2,30,GPIO45_30*%
%TO.N,unconnected-(U2-GPIO45-Pad30)*%
X156153680Y-107552720D03*
%TO.P,U2,31,GPIO0_31*%
%TO.N,unconnected-(U2-GPIO0-Pad31)*%
X156153680Y-105012720D03*
%TO.P,U2,32,GPIO35_32*%
%TO.N,unconnected-(U2-GPIO35-Pad32)*%
X156153680Y-102472720D03*
%TO.P,U2,33,GPIO36_33*%
%TO.N,unconnected-(U2-GPIO36-Pad33)*%
X156153680Y-99932720D03*
%TO.P,U2,34,GPIO37_34*%
%TO.N,unconnected-(U2-GPIO37-Pad34)*%
X156153680Y-97392720D03*
%TO.P,U2,35,GPIO38_35*%
%TO.N,unconnected-(U2-GPIO38-Pad35)*%
X156153680Y-94852720D03*
%TO.P,U2,36,GPIO39_36*%
%TO.N,unconnected-(U2-GPIO39-Pad36)*%
X156153680Y-92312720D03*
%TO.P,U2,37,GPIO40_37*%
%TO.N,unconnected-(U2-GPIO40-Pad37)*%
X156153680Y-89772720D03*
%TO.P,U2,38,GPIO41_38*%
%TO.N,unconnected-(U2-GPIO41-Pad38)*%
X156153680Y-87232720D03*
%TO.P,U2,39,GPIO42_39*%
%TO.N,unconnected-(U2-GPIO42-Pad39)*%
X156153680Y-84692720D03*
%TO.P,U2,40,GPIO2_40*%
%TO.N,unconnected-(U2-GPIO2-Pad40)*%
X156153680Y-82152720D03*
%TO.P,U2,41,GPIO1_41*%
%TO.N,Net-(U2-GPIO1)*%
X156153680Y-79612720D03*
%TO.P,U2,42,GPIO44_42*%
%TO.N,unconnected-(U2-GPIO44-Pad42)*%
X156153680Y-77072720D03*
%TO.P,U2,43,GPIO43_43*%
%TO.N,unconnected-(U2-GPIO43-Pad43)*%
X156153680Y-74532720D03*
D21*
%TO.P,U2,44,GND_44*%
%TO.N,unconnected-(U2-GND-Pad44)*%
X156153680Y-71992720D03*
%TD*%
D19*
%TO.P,R1,1*%
%TO.N,Net-(D1-A)*%
X117922500Y-102840000D03*
%TO.P,R1,2*%
%TO.N,GND*%
X115922500Y-102840000D03*
%TD*%
D23*
%TO.P,D1,1,K_1*%
%TO.N,+5VP*%
X121422500Y-102250000D03*
%TO.P,D1,2,A_2*%
%TO.N,Net-(D1-A)*%
X121422500Y-99450000D03*
%TD*%
D24*
%TO.P,L1,1,1_1*%
%TO.N,+5VP*%
X124422500Y-112215000D03*
%TO.P,L1,2,2_2*%
%TO.N,+5V*%
X124422500Y-114340000D03*
%TD*%
D25*
%TO.P,RV1,1,1_1*%
%TO.N,GND*%
X112250000Y-84750000D03*
%TO.P,RV1,2,2_2*%
%TO.N,Net-(U2-GPIO4)*%
X125250000Y-79750000D03*
%TO.P,RV1,3,3_3*%
%TO.N,Net-(RV1-Pad3)*%
X112250000Y-74750000D03*
%TD*%
D26*
%TO.P,F1,1*%
%TO.N,Net-(J1-Pin_1)*%
X117522500Y-94215000D03*
%TO.P,F1,2*%
%TO.N,Net-(Q1-D)*%
X124922500Y-94215000D03*
%TD*%
D14*
%TO.P,C4,1*%
%TO.N,+5V*%
X124322500Y-116340000D03*
%TO.P,C4,2*%
%TO.N,GND*%
X122422500Y-116340000D03*
%TD*%
%TO.P,C1,1*%
%TO.N,Net-(D1-A)*%
X117872500Y-99340000D03*
%TO.P,C1,2*%
%TO.N,GND*%
X115972500Y-99340000D03*
%TD*%
D27*
%TO.N,+5VP*%
X126750000Y-110000000D03*
%TD*%
%TO.N,+5VP*%
D28*
X126750000Y-110000000D02*
X126750000Y-107250000D01*
D29*
X164250000Y-92625000D02*
X164375000Y-92750000D01*
D28*
X164375000Y-92750000D02*
X169830000Y-92750000D01*
X126750000Y-107250000D02*
X126250000Y-106750000D01*
D30*
X124372500Y-105340000D02*
X124372500Y-108840000D01*
X124485000Y-101290000D02*
X124485000Y-105227500D01*
D28*
X126250000Y-106750000D02*
X124250000Y-106750000D01*
D30*
X124372500Y-112165000D02*
X124422500Y-112215000D01*
D28*
X169830000Y-92750000D02*
X172750000Y-95670000D01*
D29*
X124362500Y-106637500D02*
X124250000Y-106750000D01*
X124485000Y-101290000D02*
X123790000Y-101290000D01*
D30*
X122830000Y-102250000D02*
X121422500Y-102250000D01*
X123790000Y-101290000D02*
X122830000Y-102250000D01*
X124372500Y-109750000D02*
X124372500Y-112165000D01*
X124372500Y-109750000D02*
X124422500Y-109800000D01*
%TO.N,Net-(D2-A)*%
X162285000Y-102785000D02*
X164250000Y-102785000D01*
X160800000Y-86125000D02*
X160800000Y-87300000D01*
D28*
X170715000Y-102785000D02*
X172750000Y-100750000D01*
D30*
X160800000Y-87300000D02*
X160750000Y-87350000D01*
D29*
X172750000Y-101250000D02*
X172750000Y-100750000D01*
D28*
X164250000Y-102785000D02*
X170715000Y-102785000D01*
D30*
X160750000Y-101250000D02*
X162285000Y-102785000D01*
X160750000Y-87350000D02*
X160750000Y-101250000D01*
%TO.N,+5V*%
X126790000Y-122790000D02*
X130750000Y-122790000D01*
D29*
X124422500Y-116240000D02*
X124322500Y-116340000D01*
D30*
X125725000Y-122725000D02*
X126700000Y-122725000D01*
X124322500Y-121322500D02*
X125725000Y-122725000D01*
D29*
X126700000Y-122725000D02*
X126725000Y-122725000D01*
D30*
X124322500Y-116340000D02*
X124322500Y-121322500D01*
D29*
X126725000Y-122725000D02*
X126790000Y-122790000D01*
D30*
X124422500Y-114340000D02*
X124422500Y-116240000D01*
%TO.N,GND*%
D29*
X130750000Y-125330000D02*
X131170000Y-125330000D01*
X122472500Y-109750000D02*
X122472500Y-109937500D01*
X130045000Y-124625000D02*
X130750000Y-125330000D01*
X115882500Y-98617500D02*
X115882500Y-99250000D01*
X122472500Y-109937500D02*
X122422500Y-109987500D01*
X115972500Y-102790000D02*
X115922500Y-102840000D01*
X131170000Y-125330000D02*
X131172720Y-125332720D01*
X115882500Y-99250000D02*
X115972500Y-99340000D01*
%TO.N,Net-(D1-A)*%
D30*
X121422500Y-99450000D02*
X124425000Y-99450000D01*
X117872500Y-99340000D02*
X117872500Y-102790000D01*
D29*
X124425000Y-99450000D02*
X124485000Y-99390000D01*
D30*
X117872500Y-102790000D02*
X117922500Y-102840000D01*
D29*
X121122500Y-99750000D02*
X121422500Y-99450000D01*
D30*
X117872500Y-99340000D02*
X121122500Y-99340000D01*
%TO.N,Net-(Q1-D)*%
X124922500Y-94215000D02*
X126750000Y-96042500D01*
D29*
X126750000Y-99950000D02*
X126360000Y-100340000D01*
X124922500Y-94215000D02*
X125715000Y-94215000D01*
D30*
X126750000Y-96042500D02*
X126750000Y-99950000D01*
%TO.N,Net-(Q2-B)*%
X161750000Y-79750000D02*
X161750000Y-84250000D01*
D29*
X161805000Y-84195000D02*
X161750000Y-84250000D01*
X161750000Y-84250000D02*
X161800000Y-84200000D01*
%TO.N,Net-(J1-Pin_1)*%
X106795000Y-94215000D02*
X106750000Y-94170000D01*
D28*
X117522500Y-94215000D02*
X106795000Y-94215000D01*
%TO.N,Net-(U2-GPIO1)*%
D30*
X156153680Y-79612720D02*
X159612720Y-79612720D01*
X159612720Y-79612720D02*
X159750000Y-79750000D01*
%TO.N,Net-(RV1-Pad3)*%
X124507280Y-71992720D02*
X130753680Y-71992720D01*
X112250000Y-74750000D02*
X121750000Y-74750000D01*
X121750000Y-74750000D02*
X124507280Y-71992720D01*
%TO.N,Net-(U2-GPIO4)*%
D29*
X125750000Y-79750000D02*
X125887280Y-79612720D01*
X125250000Y-79750000D02*
X125750000Y-79750000D01*
D30*
X125887280Y-79612720D02*
X130753680Y-79612720D01*
%TD*%
%TA.AperFunction,Conductor*%
%TO.N,GND*%
G36*
X156403680Y-124899708D02*
G01*
X156346673Y-124866795D01*
X156219506Y-124832720D01*
X156087854Y-124832720D01*
X155960687Y-124866795D01*
X155903680Y-124899708D01*
X155903680Y-123225732D01*
X155960687Y-123258645D01*
X156087854Y-123292720D01*
X156219506Y-123292720D01*
X156346673Y-123258645D01*
X156403680Y-123225732D01*
X156403680Y-124899708D01*
G37*
%TD.AperFunction*%
%TA.AperFunction,Conductor*%
G36*
X179274539Y-68846185D02*
G01*
X179320294Y-68898989D01*
X179331500Y-68950500D01*
X179331500Y-130947500D01*
X179311815Y-131014539D01*
X179259011Y-131060294D01*
X179207500Y-131071500D01*
X99938500Y-131071500D01*
X99871461Y-131051815D01*
X99825706Y-130999011D01*
X99814500Y-130947500D01*
X99814500Y-124924986D01*
X125475001Y-124924986D01*
X125485494Y-125027697D01*
X125540641Y-125194119D01*
X125540643Y-125194124D01*
X125632684Y-125343345D01*
X125756654Y-125467315D01*
X125905875Y-125559356D01*
X125905880Y-125559358D01*
X126072302Y-125614505D01*
X126072309Y-125614506D01*
X126175019Y-125624999D01*
X126449999Y-125624999D01*
X126950000Y-125624999D01*
X127224972Y-125624999D01*
X127224986Y-125624998D01*
X127327697Y-125614505D01*
X127494119Y-125559358D01*
X127494124Y-125559356D01*
X127643345Y-125467315D01*
X127655405Y-125455256D01*
X127767315Y-125343345D01*
X127859356Y-125194124D01*
X127859358Y-125194119D01*
X127914505Y-125027697D01*
X127914506Y-125027690D01*
X127924999Y-124924986D01*
X127925000Y-124924973D01*
X127925000Y-124875000D01*
X126950000Y-124875000D01*
X126950000Y-125624999D01*
X126449999Y-125624999D01*
X126450000Y-125624998D01*
X126450000Y-124875000D01*
X125475001Y-124875000D01*
X125475001Y-124924986D01*
X99814500Y-124924986D01*
X99814500Y-116864986D01*
X121422501Y-116864986D01*
X121432994Y-116967697D01*
X121488141Y-117134119D01*
X121488143Y-117134124D01*
X121580184Y-117283345D01*
X121704154Y-117407315D01*
X121853375Y-117499356D01*
X121853380Y-117499358D01*
X122019802Y-117554505D01*
X122019809Y-117554506D01*
X122122519Y-117564999D01*
X122172499Y-117564998D01*
X122172500Y-117564998D01*
X122172500Y-116590000D01*
X121422501Y-116590000D01*
X121422501Y-116864986D01*
X99814500Y-116864986D01*
X99814500Y-115815013D01*
X121422500Y-115815013D01*
X121422500Y-116090000D01*
X122172500Y-116090000D01*
X122172500Y-115115000D01*
X122172499Y-115114999D01*
X122122529Y-115115000D01*
X122122511Y-115115001D01*
X122019802Y-115125494D01*
X121853380Y-115180641D01*
X121853375Y-115180643D01*
X121704154Y-115272684D01*
X121580184Y-115396654D01*
X121488143Y-115545875D01*
X121488141Y-115545880D01*
X121432994Y-115712302D01*
X121432993Y-115712309D01*
X121422500Y-115815013D01*
X99814500Y-115815013D01*
X99814500Y-110274986D01*
X121472501Y-110274986D01*
X121482994Y-110377697D01*
X121538141Y-110544119D01*
X121538143Y-110544124D01*
X121630184Y-110693345D01*
X121754154Y-110817315D01*
X121903375Y-110909356D01*
X121903380Y-110909358D01*
X122069802Y-110964505D01*
X122069809Y-110964506D01*
X122172519Y-110974999D01*
X122222499Y-110974998D01*
X122222500Y-110974998D01*
X122222500Y-110000000D01*
X121472501Y-110000000D01*
X121472501Y-110274986D01*
X99814500Y-110274986D01*
X99814500Y-109225013D01*
X121472500Y-109225013D01*
X121472500Y-109500000D01*
X122222500Y-109500000D01*
X122222500Y-108525000D01*
X122222499Y-108524999D01*
X122172529Y-108525000D01*
X122172511Y-108525001D01*
X122069802Y-108535494D01*
X121903380Y-108590641D01*
X121903375Y-108590643D01*
X121754154Y-108682684D01*
X121630184Y-108806654D01*
X121538143Y-108955875D01*
X121538141Y-108955880D01*
X121482994Y-109122302D01*
X121482993Y-109122309D01*
X121472500Y-109225013D01*
X99814500Y-109225013D01*
X99814500Y-107274986D01*
X121350001Y-107274986D01*
X121360494Y-107377697D01*
X121415641Y-107544119D01*
X121415643Y-107544124D01*
X121507684Y-107693345D01*
X121631654Y-107817315D01*
X121780875Y-107909356D01*
X121780880Y-107909358D01*
X121947302Y-107964505D01*
X121947309Y-107964506D01*
X122050019Y-107974999D01*
X122099999Y-107974998D01*
X122100000Y-107974998D01*
X122100000Y-107000000D01*
X121350001Y-107000000D01*
X121350001Y-107274986D01*
X99814500Y-107274986D01*
X99814500Y-106225013D01*
X121350000Y-106225013D01*
X121350000Y-106500000D01*
X122100000Y-106500000D01*
X122100000Y-105525000D01*
X122099999Y-105524999D01*
X122050029Y-105525000D01*
X122050011Y-105525001D01*
X121947302Y-105535494D01*
X121780880Y-105590641D01*
X121780875Y-105590643D01*
X121631654Y-105682684D01*
X121507684Y-105806654D01*
X121415643Y-105955875D01*
X121415641Y-105955880D01*
X121360494Y-106122302D01*
X121360493Y-106122309D01*
X121350000Y-106225013D01*
X99814500Y-106225013D01*
X99814500Y-103339986D01*
X114822501Y-103339986D01*
X114832994Y-103442697D01*
X114888141Y-103609119D01*
X114888143Y-103609124D01*
X114980184Y-103758345D01*
X115104154Y-103882315D01*
X115253375Y-103974356D01*
X115253380Y-103974358D01*
X115419802Y-104029505D01*
X115419809Y-104029506D01*
X115522519Y-104039999D01*
X115672499Y-104039999D01*
X115672500Y-104039998D01*
X115672500Y-103090000D01*
X114822501Y-103090000D01*
X114822501Y-103339986D01*
X99814500Y-103339986D01*
X99814500Y-102340013D01*
X114822500Y-102340013D01*
X114822500Y-102590000D01*
X115672500Y-102590000D01*
X115672500Y-101640000D01*
X116172500Y-101640000D01*
X116172500Y-104039999D01*
X116322472Y-104039999D01*
X116322486Y-104039998D01*
X116425197Y-104029505D01*
X116591619Y-103974358D01*
X116591624Y-103974356D01*
X116740842Y-103882317D01*
X116834464Y-103788695D01*
X116895787Y-103755210D01*
X116965479Y-103760194D01*
X117009827Y-103788695D01*
X117103844Y-103882712D01*
X117253166Y-103974814D01*
X117419703Y-104029999D01*
X117522491Y-104040500D01*
X118322508Y-104040499D01*
X118322516Y-104040498D01*
X118322519Y-104040498D01*
X118378802Y-104034748D01*
X118425297Y-104029999D01*
X118591834Y-103974814D01*
X118741156Y-103882712D01*
X118865212Y-103758656D01*
X118957314Y-103609334D01*
X119012499Y-103442797D01*
X119023000Y-103340009D01*
X119022999Y-102339992D01*
X119012499Y-102237203D01*
X118957314Y-102070666D01*
X118865212Y-101921344D01*
X118741156Y-101797288D01*
X118741155Y-101797287D01*
X118681902Y-101760739D01*
X118635178Y-101708791D01*
X118623000Y-101655201D01*
X118623000Y-100427230D01*
X118642685Y-100360191D01*
X118659319Y-100339549D01*
X118684368Y-100314500D01*
X118715212Y-100283656D01*
X118798019Y-100149402D01*
X118849967Y-100102679D01*
X118903558Y-100090500D01*
X120381534Y-100090500D01*
X120448573Y-100110185D01*
X120487071Y-100149401D01*
X120529788Y-100218656D01*
X120653844Y-100342712D01*
X120803166Y-100434814D01*
X120969703Y-100489999D01*
X121072491Y-100500500D01*
X121772508Y-100500499D01*
X121772516Y-100500498D01*
X121772519Y-100500498D01*
X121851773Y-100492402D01*
X121875297Y-100489999D01*
X122041834Y-100434814D01*
X122191156Y-100342712D01*
X122297050Y-100236818D01*
X122358373Y-100203334D01*
X122384731Y-100200500D01*
X124498919Y-100200500D01*
X124537210Y-100192883D01*
X124561403Y-100190500D01*
X124998000Y-100190500D01*
X125065039Y-100210185D01*
X125110794Y-100262989D01*
X125122000Y-100314500D01*
X125122000Y-100365500D01*
X125102315Y-100432539D01*
X125049511Y-100478294D01*
X124998000Y-100489500D01*
X123831798Y-100489500D01*
X123794932Y-100492401D01*
X123794926Y-100492402D01*
X123637107Y-100538254D01*
X123637100Y-100538257D01*
X123612093Y-100553045D01*
X123576892Y-100566506D01*
X123576913Y-100566575D01*
X123575941Y-100566869D01*
X123573187Y-100567923D01*
X123571098Y-100568338D01*
X123571086Y-100568342D01*
X123434510Y-100624914D01*
X123434502Y-100624918D01*
X123372418Y-100666400D01*
X123311584Y-100707048D01*
X123311582Y-100707049D01*
X123311579Y-100707052D01*
X123311578Y-100707052D01*
X122555451Y-101463181D01*
X122494128Y-101496666D01*
X122467770Y-101499500D01*
X122384731Y-101499500D01*
X122317692Y-101479815D01*
X122297050Y-101463182D01*
X122249998Y-101416130D01*
X122191156Y-101357288D01*
X122101129Y-101301759D01*
X122041836Y-101265187D01*
X122041831Y-101265185D01*
X122039764Y-101264500D01*
X121875297Y-101210001D01*
X121875295Y-101210000D01*
X121772510Y-101199500D01*
X121072498Y-101199500D01*
X121072480Y-101199501D01*
X120969703Y-101210000D01*
X120969700Y-101210001D01*
X120803168Y-101265185D01*
X120803163Y-101265187D01*
X120653842Y-101357289D01*
X120529789Y-101481342D01*
X120437687Y-101630663D01*
X120437685Y-101630668D01*
X120429556Y-101655201D01*
X120382501Y-101797203D01*
X120382501Y-101797204D01*
X120382500Y-101797204D01*
X120372000Y-101899983D01*
X120372000Y-102600001D01*
X120372001Y-102600019D01*
X120382500Y-102702796D01*
X120382501Y-102702799D01*
X120422693Y-102824088D01*
X120437686Y-102869334D01*
X120529788Y-103018656D01*
X120653844Y-103142712D01*
X120803166Y-103234814D01*
X120969703Y-103289999D01*
X121072491Y-103300500D01*
X121772508Y-103300499D01*
X121772516Y-103300498D01*
X121772519Y-103300498D01*
X121828802Y-103294748D01*
X121875297Y-103289999D01*
X122041834Y-103234814D01*
X122191156Y-103142712D01*
X122297050Y-103036818D01*
X122358373Y-103003334D01*
X122384731Y-103000500D01*
X122903920Y-103000500D01*
X123001462Y-102981096D01*
X123048913Y-102971658D01*
X123117204Y-102943371D01*
X123185491Y-102915086D01*
X123185492Y-102915085D01*
X123185495Y-102915084D01*
X123262071Y-102863918D01*
X123308416Y-102832952D01*
X123522819Y-102618549D01*
X123584142Y-102585064D01*
X123653834Y-102590048D01*
X123709767Y-102631920D01*
X123734184Y-102697384D01*
X123734500Y-102706230D01*
X123734500Y-104906355D01*
X123714815Y-104973394D01*
X123713604Y-104975242D01*
X123707423Y-104984492D01*
X123707414Y-104984508D01*
X123650842Y-105121086D01*
X123650840Y-105121092D01*
X123622000Y-105266079D01*
X123622000Y-105557163D01*
X123602315Y-105624202D01*
X123563099Y-105662700D01*
X123531347Y-105682285D01*
X123531343Y-105682288D01*
X123407288Y-105806343D01*
X123407283Y-105806349D01*
X123405241Y-105809661D01*
X123403247Y-105811453D01*
X123402807Y-105812011D01*
X123402711Y-105811935D01*
X123353291Y-105856383D01*
X123284328Y-105867602D01*
X123220247Y-105839755D01*
X123194168Y-105809656D01*
X123192319Y-105806659D01*
X123192316Y-105806655D01*
X123068345Y-105682684D01*
X122919124Y-105590643D01*
X122919119Y-105590641D01*
X122752697Y-105535494D01*
X122752690Y-105535493D01*
X122649986Y-105525000D01*
X122600000Y-105525000D01*
X122600000Y-107974999D01*
X122649972Y-107974999D01*
X122649986Y-107974998D01*
X122752697Y-107964505D01*
X122919119Y-107909358D01*
X122919124Y-107909356D01*
X123068345Y-107817315D01*
X123192318Y-107693342D01*
X123194165Y-107690348D01*
X123195969Y-107688724D01*
X123196798Y-107687677D01*
X123196976Y-107687818D01*
X123246110Y-107643621D01*
X123315073Y-107632396D01*
X123379156Y-107660236D01*
X123405243Y-107690341D01*
X123407288Y-107693656D01*
X123407289Y-107693657D01*
X123531345Y-107817713D01*
X123563094Y-107837295D01*
X123609820Y-107889241D01*
X123622000Y-107942835D01*
X123622000Y-108662770D01*
X123602315Y-108729809D01*
X123585681Y-108750451D01*
X123529788Y-108806343D01*
X123529783Y-108806349D01*
X123527741Y-108809661D01*
X123525747Y-108811453D01*
X123525307Y-108812011D01*
X123525211Y-108811935D01*
X123475791Y-108856383D01*
X123406828Y-108867602D01*
X123342747Y-108839755D01*
X123316668Y-108809656D01*
X123314819Y-108806659D01*
X123314816Y-108806655D01*
X123190845Y-108682684D01*
X123041624Y-108590643D01*
X123041619Y-108590641D01*
X122875197Y-108535494D01*
X122875190Y-108535493D01*
X122772486Y-108525000D01*
X122722500Y-108525000D01*
X122722500Y-110974999D01*
X122772472Y-110974999D01*
X122772486Y-110974998D01*
X122875197Y-110964505D01*
X123041619Y-110909358D01*
X123041624Y-110909356D01*
X123190845Y-110817315D01*
X123314818Y-110693342D01*
X123316665Y-110690348D01*
X123318469Y-110688724D01*
X123319298Y-110687677D01*
X123319476Y-110687818D01*
X123368610Y-110643621D01*
X123437573Y-110632396D01*
X123501656Y-110660236D01*
X123527743Y-110690341D01*
X123529788Y-110693656D01*
X123529789Y-110693657D01*
X123585681Y-110749549D01*
X123619166Y-110810872D01*
X123622000Y-110837230D01*
X123622000Y-111346965D01*
X123602315Y-111414004D01*
X123585682Y-111434646D01*
X123473216Y-111547112D01*
X123384955Y-111690204D01*
X123384951Y-111690213D01*
X123332064Y-111849815D01*
X123332064Y-111849816D01*
X123332063Y-111849816D01*
X123322000Y-111948318D01*
X123322000Y-112481681D01*
X123332063Y-112580183D01*
X123384950Y-112739784D01*
X123384955Y-112739795D01*
X123473216Y-112882887D01*
X123473219Y-112882891D01*
X123592108Y-113001780D01*
X123592112Y-113001783D01*
X123735204Y-113090044D01*
X123735207Y-113090045D01*
X123735213Y-113090049D01*
X123894815Y-113142936D01*
X123993326Y-113153000D01*
X123993331Y-113153000D01*
X124851669Y-113153000D01*
X124851674Y-113153000D01*
X124950185Y-113142936D01*
X125109787Y-113090049D01*
X125252891Y-113001781D01*
X125371781Y-112882891D01*
X125460049Y-112739787D01*
X125512936Y-112580185D01*
X125523000Y-112481674D01*
X125523000Y-111948326D01*
X125512936Y-111849815D01*
X125460049Y-111690213D01*
X125460045Y-111690207D01*
X125460044Y-111690204D01*
X125371783Y-111547112D01*
X125371782Y-111547111D01*
X125371781Y-111547109D01*
X125252891Y-111428219D01*
X125181901Y-111384431D01*
X125135178Y-111332482D01*
X125123000Y-111278893D01*
X125123000Y-110837230D01*
X125142685Y-110770191D01*
X125159319Y-110749549D01*
X125215212Y-110693656D01*
X125307314Y-110544334D01*
X125362499Y-110377797D01*
X125373000Y-110275009D01*
X125372999Y-109224992D01*
X125362499Y-109122203D01*
X125307314Y-108955666D01*
X125215212Y-108806344D01*
X125159319Y-108750451D01*
X125125834Y-108689128D01*
X125123000Y-108662770D01*
X125123000Y-107874500D01*
X125142685Y-107807461D01*
X125195489Y-107761706D01*
X125247000Y-107750500D01*
X125625500Y-107750500D01*
X125692539Y-107770185D01*
X125738294Y-107822989D01*
X125749500Y-107874500D01*
X125749500Y-110098541D01*
X125749500Y-110098543D01*
X125749499Y-110098543D01*
X125787947Y-110291829D01*
X125787950Y-110291839D01*
X125863364Y-110473907D01*
X125863371Y-110473920D01*
X125972860Y-110637781D01*
X125972863Y-110637785D01*
X126112214Y-110777136D01*
X126112218Y-110777139D01*
X126276079Y-110886628D01*
X126276092Y-110886635D01*
X126458160Y-110962049D01*
X126458165Y-110962051D01*
X126458169Y-110962051D01*
X126458170Y-110962052D01*
X126651456Y-111000500D01*
X126651459Y-111000500D01*
X126848543Y-111000500D01*
X126978582Y-110974632D01*
X127041835Y-110962051D01*
X127223914Y-110886632D01*
X127387782Y-110777139D01*
X127527139Y-110637782D01*
X127636632Y-110473914D01*
X127712051Y-110291835D01*
X127750500Y-110098541D01*
X127750500Y-107151459D01*
X127750500Y-107151456D01*
X127721609Y-107006217D01*
X127721609Y-107006216D01*
X127712051Y-106958164D01*
X127675236Y-106869285D01*
X127675236Y-106869284D01*
X127636635Y-106776092D01*
X127636628Y-106776079D01*
X127527139Y-106612218D01*
X127527136Y-106612214D01*
X127384686Y-106469764D01*
X127384655Y-106469735D01*
X127031479Y-106116559D01*
X127031459Y-106116537D01*
X126887785Y-105972863D01*
X126887781Y-105972860D01*
X126723920Y-105863371D01*
X126723907Y-105863364D01*
X126586245Y-105806344D01*
X126541836Y-105787949D01*
X126541828Y-105787947D01*
X126445188Y-105768724D01*
X126348544Y-105749500D01*
X126348541Y-105749500D01*
X125266695Y-105749500D01*
X125199656Y-105729815D01*
X125153901Y-105677011D01*
X125143957Y-105607853D01*
X125152134Y-105578048D01*
X125206656Y-105446417D01*
X125206658Y-105446413D01*
X125235500Y-105301418D01*
X125235500Y-102163142D01*
X125255185Y-102096103D01*
X125307989Y-102050348D01*
X125324905Y-102044066D01*
X125332898Y-102041744D01*
X125474365Y-101958081D01*
X125590581Y-101841865D01*
X125674244Y-101700398D01*
X125720098Y-101542569D01*
X125723000Y-101505694D01*
X125723000Y-101264500D01*
X125742685Y-101197461D01*
X125795489Y-101151706D01*
X125847000Y-101140500D01*
X127013186Y-101140500D01*
X127013194Y-101140500D01*
X127050069Y-101137598D01*
X127050071Y-101137597D01*
X127050073Y-101137597D01*
X127123376Y-101116300D01*
X127207898Y-101091744D01*
X127349365Y-101008081D01*
X127465581Y-100891865D01*
X127549244Y-100750398D01*
X127595098Y-100592569D01*
X127598000Y-100555694D01*
X127598000Y-100124306D01*
X127595098Y-100087431D01*
X127549244Y-99929602D01*
X127517767Y-99876377D01*
X127500500Y-99813257D01*
X127500500Y-95968579D01*
X127471659Y-95823592D01*
X127471658Y-95823591D01*
X127471658Y-95823587D01*
X127467219Y-95812870D01*
X127415087Y-95687011D01*
X127415080Y-95686998D01*
X127332952Y-95564085D01*
X127308198Y-95539331D01*
X127228416Y-95459549D01*
X126609318Y-94840451D01*
X126575833Y-94779128D01*
X126572999Y-94752770D01*
X126572999Y-92617129D01*
X126572998Y-92617123D01*
X126572997Y-92617116D01*
X126566591Y-92557517D01*
X126555316Y-92527288D01*
X126516297Y-92422671D01*
X126516293Y-92422664D01*
X126430047Y-92307455D01*
X126430044Y-92307452D01*
X126314835Y-92221206D01*
X126314828Y-92221202D01*
X126179982Y-92170908D01*
X126179983Y-92170908D01*
X126120383Y-92164501D01*
X126120381Y-92164500D01*
X126120373Y-92164500D01*
X126120364Y-92164500D01*
X123724629Y-92164500D01*
X123724623Y-92164501D01*
X123665016Y-92170908D01*
X123530171Y-92221202D01*
X123530164Y-92221206D01*
X123414955Y-92307452D01*
X123414952Y-92307455D01*
X123328706Y-92422664D01*
X123328702Y-92422671D01*
X123278408Y-92557517D01*
X123272001Y-92617116D01*
X123272001Y-92617123D01*
X123272000Y-92617135D01*
X123272000Y-95812870D01*
X123272001Y-95812876D01*
X123278408Y-95872483D01*
X123328702Y-96007328D01*
X123328706Y-96007335D01*
X123414952Y-96122544D01*
X123414955Y-96122547D01*
X123530164Y-96208793D01*
X123530171Y-96208797D01*
X123665017Y-96259091D01*
X123665016Y-96259091D01*
X123671944Y-96259835D01*
X123724627Y-96265500D01*
X125860268Y-96265499D01*
X125927307Y-96285184D01*
X125947946Y-96301815D01*
X125963178Y-96317046D01*
X125996665Y-96378368D01*
X125999500Y-96404730D01*
X125999500Y-99415500D01*
X125979815Y-99482539D01*
X125927011Y-99528294D01*
X125875500Y-99539500D01*
X125847000Y-99539500D01*
X125779961Y-99519815D01*
X125734206Y-99467011D01*
X125723000Y-99415500D01*
X125723000Y-99174313D01*
X125722999Y-99174298D01*
X125720098Y-99137432D01*
X125720097Y-99137426D01*
X125674245Y-98979606D01*
X125674244Y-98979603D01*
X125674244Y-98979602D01*
X125590581Y-98838135D01*
X125590579Y-98838133D01*
X125590576Y-98838129D01*
X125474370Y-98721923D01*
X125474362Y-98721917D01*
X125375046Y-98663182D01*
X125332898Y-98638256D01*
X125332897Y-98638255D01*
X125332896Y-98638255D01*
X125332893Y-98638254D01*
X125175073Y-98592402D01*
X125175067Y-98592401D01*
X125138201Y-98589500D01*
X125138194Y-98589500D01*
X123831806Y-98589500D01*
X123831798Y-98589500D01*
X123794932Y-98592401D01*
X123794926Y-98592402D01*
X123637106Y-98638254D01*
X123637103Y-98638255D01*
X123595736Y-98662720D01*
X123564245Y-98681344D01*
X123562743Y-98682232D01*
X123499622Y-98699500D01*
X122384731Y-98699500D01*
X122317692Y-98679815D01*
X122297050Y-98663182D01*
X122251601Y-98617733D01*
X122191156Y-98557288D01*
X122041834Y-98465186D01*
X121875297Y-98410001D01*
X121875295Y-98410000D01*
X121772510Y-98399500D01*
X121072498Y-98399500D01*
X121072480Y-98399501D01*
X120969703Y-98410000D01*
X120969700Y-98410001D01*
X120803168Y-98465185D01*
X120803163Y-98465187D01*
X120653841Y-98557290D01*
X120648181Y-98561766D01*
X120646386Y-98559495D01*
X120596628Y-98586666D01*
X120570270Y-98589500D01*
X118903558Y-98589500D01*
X118836519Y-98569815D01*
X118798019Y-98530597D01*
X118757674Y-98465187D01*
X118715212Y-98396344D01*
X118591156Y-98272288D01*
X118441834Y-98180186D01*
X118275297Y-98125001D01*
X118275295Y-98125000D01*
X118172510Y-98114500D01*
X117572498Y-98114500D01*
X117572480Y-98114501D01*
X117469703Y-98125000D01*
X117469700Y-98125001D01*
X117303168Y-98180185D01*
X117303163Y-98180187D01*
X117153842Y-98272289D01*
X117029788Y-98396343D01*
X117029783Y-98396349D01*
X117027741Y-98399661D01*
X117025747Y-98401453D01*
X117025307Y-98402011D01*
X117025211Y-98401935D01*
X116975791Y-98446383D01*
X116906828Y-98457602D01*
X116842747Y-98429755D01*
X116816668Y-98399656D01*
X116814819Y-98396659D01*
X116814816Y-98396655D01*
X116690845Y-98272684D01*
X116541624Y-98180643D01*
X116541619Y-98180641D01*
X116375197Y-98125494D01*
X116375190Y-98125493D01*
X116272486Y-98115000D01*
X116222500Y-98115000D01*
X116222500Y-100564999D01*
X116272472Y-100564999D01*
X116272486Y-100564998D01*
X116375197Y-100554505D01*
X116541619Y-100499358D01*
X116541624Y-100499356D01*
X116690845Y-100407315D01*
X116814818Y-100283342D01*
X116816665Y-100280348D01*
X116818469Y-100278724D01*
X116819298Y-100277677D01*
X116819476Y-100277818D01*
X116868610Y-100233621D01*
X116937573Y-100222396D01*
X117001656Y-100250236D01*
X117027743Y-100280341D01*
X117029788Y-100283656D01*
X117029789Y-100283657D01*
X117085681Y-100339549D01*
X117119166Y-100400872D01*
X117122000Y-100427230D01*
X117122000Y-101727769D01*
X117102315Y-101794808D01*
X117085681Y-101815450D01*
X117009827Y-101891304D01*
X116948504Y-101924789D01*
X116878812Y-101919805D01*
X116834465Y-101891304D01*
X116740845Y-101797684D01*
X116591624Y-101705643D01*
X116591619Y-101705641D01*
X116425197Y-101650494D01*
X116425190Y-101650493D01*
X116322486Y-101640000D01*
X116172500Y-101640000D01*
X115672500Y-101640000D01*
X115522527Y-101640000D01*
X115522512Y-101640001D01*
X115419802Y-101650494D01*
X115253380Y-101705641D01*
X115253375Y-101705643D01*
X115104154Y-101797684D01*
X114980184Y-101921654D01*
X114888143Y-102070875D01*
X114888141Y-102070880D01*
X114832994Y-102237302D01*
X114832993Y-102237309D01*
X114822500Y-102340013D01*
X99814500Y-102340013D01*
X99814500Y-99132014D01*
X104950000Y-99132014D01*
X104950000Y-99367985D01*
X104980799Y-99601914D01*
X105041870Y-99829837D01*
X105132160Y-100047819D01*
X105132165Y-100047828D01*
X105250144Y-100252171D01*
X105250145Y-100252172D01*
X105312721Y-100333723D01*
X106148958Y-99497487D01*
X106173978Y-99557890D01*
X106245112Y-99664351D01*
X106335649Y-99754888D01*
X106442110Y-99826022D01*
X106502511Y-99851041D01*
X105666275Y-100687277D01*
X105747827Y-100749854D01*
X105747828Y-100749855D01*
X105952171Y-100867834D01*
X105952180Y-100867839D01*
X106170163Y-100958129D01*
X106170161Y-100958129D01*
X106398085Y-101019200D01*
X106632014Y-101049999D01*
X106632029Y-101050000D01*
X106867971Y-101050000D01*
X106867985Y-101049999D01*
X107101914Y-101019200D01*
X107329837Y-100958129D01*
X107547819Y-100867839D01*
X107547828Y-100867834D01*
X107752181Y-100749850D01*
X107833723Y-100687279D01*
X107833723Y-100687276D01*
X106997487Y-99851041D01*
X107057890Y-99826022D01*
X107164351Y-99754888D01*
X107254888Y-99664351D01*
X107326022Y-99557890D01*
X107351041Y-99497487D01*
X108187276Y-100333723D01*
X108187279Y-100333723D01*
X108249850Y-100252181D01*
X108367834Y-100047828D01*
X108367839Y-100047819D01*
X108443570Y-99864986D01*
X114972501Y-99864986D01*
X114982994Y-99967697D01*
X115038141Y-100134119D01*
X115038143Y-100134124D01*
X115130184Y-100283345D01*
X115254154Y-100407315D01*
X115403375Y-100499356D01*
X115403380Y-100499358D01*
X115569802Y-100554505D01*
X115569809Y-100554506D01*
X115672519Y-100564999D01*
X115722499Y-100564998D01*
X115722500Y-100564998D01*
X115722500Y-99590000D01*
X114972501Y-99590000D01*
X114972501Y-99864986D01*
X108443570Y-99864986D01*
X108458129Y-99829837D01*
X108519200Y-99601914D01*
X108529663Y-99522452D01*
X108529663Y-99522451D01*
X108549998Y-99367987D01*
X108550000Y-99367971D01*
X108550000Y-99132028D01*
X108549999Y-99132014D01*
X108519201Y-98898087D01*
X108504697Y-98843958D01*
X108504697Y-98843957D01*
X108496942Y-98815013D01*
X114972500Y-98815013D01*
X114972500Y-99090000D01*
X115722500Y-99090000D01*
X115722500Y-98115000D01*
X115722499Y-98114999D01*
X115672529Y-98115000D01*
X115672511Y-98115001D01*
X115569802Y-98125494D01*
X115403380Y-98180641D01*
X115403375Y-98180643D01*
X115254154Y-98272684D01*
X115130184Y-98396654D01*
X115038143Y-98545875D01*
X115038141Y-98545880D01*
X114982994Y-98712302D01*
X114982993Y-98712309D01*
X114972500Y-98815013D01*
X108496942Y-98815013D01*
X108458129Y-98670162D01*
X108367839Y-98452180D01*
X108367834Y-98452171D01*
X108249855Y-98247828D01*
X108249854Y-98247827D01*
X108187277Y-98166275D01*
X107351041Y-99002511D01*
X107326022Y-98942110D01*
X107254888Y-98835649D01*
X107164351Y-98745112D01*
X107057890Y-98673978D01*
X106997488Y-98648958D01*
X107833723Y-97812721D01*
X107752172Y-97750145D01*
X107752171Y-97750144D01*
X107547828Y-97632165D01*
X107547819Y-97632160D01*
X107329836Y-97541870D01*
X107329838Y-97541870D01*
X107101914Y-97480799D01*
X106867985Y-97450000D01*
X106632014Y-97450000D01*
X106398085Y-97480799D01*
X106170162Y-97541870D01*
X105952180Y-97632160D01*
X105952171Y-97632165D01*
X105747828Y-97750144D01*
X105747818Y-97750150D01*
X105666275Y-97812720D01*
X105666275Y-97812721D01*
X106502512Y-98648958D01*
X106442110Y-98673978D01*
X106335649Y-98745112D01*
X106245112Y-98835649D01*
X106173978Y-98942110D01*
X106148958Y-99002511D01*
X105312721Y-98166275D01*
X105312720Y-98166275D01*
X105250150Y-98247818D01*
X105250144Y-98247828D01*
X105132165Y-98452171D01*
X105132160Y-98452180D01*
X105041870Y-98670162D01*
X104980799Y-98898085D01*
X104950000Y-99132014D01*
X99814500Y-99132014D01*
X99814500Y-93069983D01*
X104949500Y-93069983D01*
X104949500Y-95270001D01*
X104949501Y-95270018D01*
X104960000Y-95372796D01*
X104960001Y-95372799D01*
X105015185Y-95539331D01*
X105015187Y-95539336D01*
X105022995Y-95551995D01*
X105107288Y-95688656D01*
X105231344Y-95812712D01*
X105380666Y-95904814D01*
X105547203Y-95959999D01*
X105649991Y-95970500D01*
X107850008Y-95970499D01*
X107952797Y-95959999D01*
X108119334Y-95904814D01*
X108268656Y-95812712D01*
X108392712Y-95688656D01*
X108484814Y-95539334D01*
X108539999Y-95372797D01*
X108544688Y-95326897D01*
X108571084Y-95262206D01*
X108628264Y-95222055D01*
X108668046Y-95215500D01*
X115748001Y-95215500D01*
X115815040Y-95235185D01*
X115860795Y-95287989D01*
X115872001Y-95339500D01*
X115872001Y-95812876D01*
X115878408Y-95872483D01*
X115928702Y-96007328D01*
X115928706Y-96007335D01*
X116014952Y-96122544D01*
X116014955Y-96122547D01*
X116130164Y-96208793D01*
X116130171Y-96208797D01*
X116265017Y-96259091D01*
X116265016Y-96259091D01*
X116271944Y-96259835D01*
X116324627Y-96265500D01*
X118720372Y-96265499D01*
X118779983Y-96259091D01*
X118914831Y-96208796D01*
X119030046Y-96122546D01*
X119116296Y-96007331D01*
X119166591Y-95872483D01*
X119173000Y-95812873D01*
X119172999Y-92617128D01*
X119166591Y-92557517D01*
X119155316Y-92527288D01*
X119116297Y-92422671D01*
X119116293Y-92422664D01*
X119030047Y-92307455D01*
X119030044Y-92307452D01*
X118914835Y-92221206D01*
X118914828Y-92221202D01*
X118779982Y-92170908D01*
X118779983Y-92170908D01*
X118720383Y-92164501D01*
X118720381Y-92164500D01*
X118720373Y-92164500D01*
X118720364Y-92164500D01*
X116324629Y-92164500D01*
X116324623Y-92164501D01*
X116265016Y-92170908D01*
X116130171Y-92221202D01*
X116130164Y-92221206D01*
X116014955Y-92307452D01*
X116014952Y-92307455D01*
X115928706Y-92422664D01*
X115928702Y-92422671D01*
X115878408Y-92557517D01*
X115872001Y-92617116D01*
X115872001Y-92617123D01*
X115872000Y-92617135D01*
X115872000Y-93090500D01*
X115852315Y-93157539D01*
X115799511Y-93203294D01*
X115748000Y-93214500D01*
X108674499Y-93214500D01*
X108607460Y-93194815D01*
X108561705Y-93142011D01*
X108550499Y-93090500D01*
X108550499Y-93069998D01*
X108550498Y-93069981D01*
X108539999Y-92967203D01*
X108539998Y-92967200D01*
X108513991Y-92888716D01*
X108484814Y-92800666D01*
X108392712Y-92651344D01*
X108268656Y-92527288D01*
X108119334Y-92435186D01*
X107952797Y-92380001D01*
X107952795Y-92380000D01*
X107850010Y-92369500D01*
X105649998Y-92369500D01*
X105649981Y-92369501D01*
X105547203Y-92380000D01*
X105547200Y-92380001D01*
X105380668Y-92435185D01*
X105380663Y-92435187D01*
X105231342Y-92527289D01*
X105107289Y-92651342D01*
X105015187Y-92800663D01*
X105015186Y-92800666D01*
X104960001Y-92967203D01*
X104960001Y-92967204D01*
X104960000Y-92967204D01*
X104949500Y-93069983D01*
X99814500Y-93069983D01*
X99814500Y-86049986D01*
X110250001Y-86049986D01*
X110260494Y-86152696D01*
X110260494Y-86152698D01*
X110315640Y-86319119D01*
X110315645Y-86319130D01*
X110407680Y-86468340D01*
X110407683Y-86468344D01*
X110531655Y-86592316D01*
X110531659Y-86592319D01*
X110680869Y-86684354D01*
X110680880Y-86684359D01*
X110847302Y-86739505D01*
X110950020Y-86749999D01*
X111999999Y-86749999D01*
X112500000Y-86749999D01*
X113549972Y-86749999D01*
X113549986Y-86749998D01*
X113652696Y-86739505D01*
X113652698Y-86739505D01*
X113819119Y-86684359D01*
X113819130Y-86684354D01*
X113968340Y-86592319D01*
X113968344Y-86592316D01*
X114092316Y-86468344D01*
X114092319Y-86468340D01*
X114184354Y-86319130D01*
X114184359Y-86319119D01*
X114239505Y-86152697D01*
X114249999Y-86049986D01*
X114250000Y-86049973D01*
X114250000Y-85000000D01*
X112500000Y-85000000D01*
X112500000Y-86749999D01*
X111999999Y-86749999D01*
X112000000Y-86749998D01*
X112000000Y-85000000D01*
X110250001Y-85000000D01*
X110250001Y-86049986D01*
X99814500Y-86049986D01*
X99814500Y-83450013D01*
X110250000Y-83450013D01*
X110250000Y-84500000D01*
X112000000Y-84500000D01*
X112500000Y-84500000D01*
X114249999Y-84500000D01*
X114249999Y-83450028D01*
X114249998Y-83450013D01*
X114239505Y-83347303D01*
X114239505Y-83347301D01*
X114184359Y-83180880D01*
X114184354Y-83180869D01*
X114092319Y-83031659D01*
X114092316Y-83031655D01*
X113968344Y-82907683D01*
X113968340Y-82907680D01*
X113819130Y-82815645D01*
X113819119Y-82815640D01*
X113652697Y-82760494D01*
X113549986Y-82750000D01*
X112500000Y-82750000D01*
X112500000Y-84500000D01*
X112000000Y-84500000D01*
X112000000Y-82750000D01*
X110950028Y-82750000D01*
X110950012Y-82750001D01*
X110847303Y-82760494D01*
X110847301Y-82760494D01*
X110680880Y-82815640D01*
X110680869Y-82815645D01*
X110531659Y-82907680D01*
X110531655Y-82907683D01*
X110407683Y-83031655D01*
X110407680Y-83031659D01*
X110315645Y-83180869D01*
X110315640Y-83180880D01*
X110260494Y-83347302D01*
X110250000Y-83450013D01*
X99814500Y-83450013D01*
X99814500Y-73449982D01*
X110249500Y-73449982D01*
X110249500Y-76050017D01*
X110260000Y-76152796D01*
X110260001Y-76152798D01*
X110315186Y-76319335D01*
X110407288Y-76468656D01*
X110531344Y-76592712D01*
X110680665Y-76684814D01*
X110847202Y-76739999D01*
X110949990Y-76750500D01*
X110949995Y-76750500D01*
X113550005Y-76750500D01*
X113550010Y-76750500D01*
X113652798Y-76739999D01*
X113819335Y-76684814D01*
X113968656Y-76592712D01*
X114092712Y-76468656D01*
X114184814Y-76319335D01*
X114239999Y-76152798D01*
X114250500Y-76050010D01*
X114250500Y-75624500D01*
X114270185Y-75557461D01*
X114322989Y-75511706D01*
X114374500Y-75500500D01*
X121823920Y-75500500D01*
X121921462Y-75481096D01*
X121968913Y-75471658D01*
X122105495Y-75415084D01*
X122154729Y-75382186D01*
X122228416Y-75332952D01*
X124781829Y-72779539D01*
X124843152Y-72746054D01*
X124869510Y-72743220D01*
X129129181Y-72743220D01*
X129196220Y-72762905D01*
X129241975Y-72815709D01*
X129253181Y-72867220D01*
X129253181Y-73040596D01*
X129259588Y-73100203D01*
X129309882Y-73235048D01*
X129309886Y-73235055D01*
X129396132Y-73350264D01*
X129396135Y-73350267D01*
X129511344Y-73436513D01*
X129519134Y-73440767D01*
X129517326Y-73444077D01*
X129559031Y-73475169D01*
X129583577Y-73540585D01*
X129568860Y-73608887D01*
X129560229Y-73622560D01*
X129470339Y-73746283D01*
X129363113Y-73956723D01*
X129290126Y-74181351D01*
X129253180Y-74414622D01*
X129253180Y-74650817D01*
X129290126Y-74884088D01*
X129363113Y-75108716D01*
X129470337Y-75319153D01*
X129609163Y-75510230D01*
X129776170Y-75677237D01*
X129810807Y-75702403D01*
X129853472Y-75757733D01*
X129859451Y-75827346D01*
X129826845Y-75889141D01*
X129810810Y-75903035D01*
X129793045Y-75915942D01*
X129776168Y-75928204D01*
X129609165Y-76095207D01*
X129609165Y-76095208D01*
X129609163Y-76095210D01*
X129567324Y-76152796D01*
X129470337Y-76286286D01*
X129363113Y-76496723D01*
X129290126Y-76721351D01*
X129253180Y-76954622D01*
X129253180Y-77190817D01*
X129290126Y-77424088D01*
X129363113Y-77648716D01*
X129447935Y-77815187D01*
X129470337Y-77859153D01*
X129609163Y-78050230D01*
X129776170Y-78217237D01*
X129810807Y-78242403D01*
X129853472Y-78297733D01*
X129859451Y-78367346D01*
X129826845Y-78429141D01*
X129810810Y-78443035D01*
X129801249Y-78449982D01*
X129776168Y-78468204D01*
X129609165Y-78635207D01*
X129609165Y-78635208D01*
X129609163Y-78635210D01*
X129534322Y-78738220D01*
X129481367Y-78811106D01*
X129426037Y-78853771D01*
X129381049Y-78862220D01*
X127374500Y-78862220D01*
X127307461Y-78842535D01*
X127261706Y-78789731D01*
X127250500Y-78738220D01*
X127250500Y-78449995D01*
X127250499Y-78449982D01*
X127239999Y-78347203D01*
X127239999Y-78347202D01*
X127184814Y-78180665D01*
X127092712Y-78031344D01*
X126968656Y-77907288D01*
X126819335Y-77815186D01*
X126652798Y-77760001D01*
X126652796Y-77760000D01*
X126550017Y-77749500D01*
X126550010Y-77749500D01*
X123949990Y-77749500D01*
X123949982Y-77749500D01*
X123847203Y-77760000D01*
X123847202Y-77760001D01*
X123764669Y-77787349D01*
X123680667Y-77815185D01*
X123680662Y-77815187D01*
X123531342Y-77907289D01*
X123407289Y-78031342D01*
X123315187Y-78180662D01*
X123315185Y-78180667D01*
X123294728Y-78242402D01*
X123260001Y-78347202D01*
X123260001Y-78347203D01*
X123260000Y-78347203D01*
X123249500Y-78449982D01*
X123249500Y-81050017D01*
X123260000Y-81152796D01*
X123297945Y-81267305D01*
X123315186Y-81319335D01*
X123407288Y-81468656D01*
X123531344Y-81592712D01*
X123680665Y-81684814D01*
X123847202Y-81739999D01*
X123949990Y-81750500D01*
X123949995Y-81750500D01*
X126550005Y-81750500D01*
X126550010Y-81750500D01*
X126652798Y-81739999D01*
X126819335Y-81684814D01*
X126968656Y-81592712D01*
X127092712Y-81468656D01*
X127184814Y-81319335D01*
X127239999Y-81152798D01*
X127250500Y-81050010D01*
X127250500Y-80487220D01*
X127270185Y-80420181D01*
X127322989Y-80374426D01*
X127374500Y-80363220D01*
X129381049Y-80363220D01*
X129448088Y-80382905D01*
X129481365Y-80414333D01*
X129609163Y-80590230D01*
X129776170Y-80757237D01*
X129810807Y-80782403D01*
X129853472Y-80837733D01*
X129859451Y-80907346D01*
X129826845Y-80969141D01*
X129810810Y-80983035D01*
X129793045Y-80995942D01*
X129776168Y-81008204D01*
X129609165Y-81175207D01*
X129609165Y-81175208D01*
X129609163Y-81175210D01*
X129562959Y-81238804D01*
X129470337Y-81366286D01*
X129363113Y-81576723D01*
X129290126Y-81801351D01*
X129253180Y-82034622D01*
X129253180Y-82270817D01*
X129290126Y-82504088D01*
X129363113Y-82728716D01*
X129454301Y-82907680D01*
X129470337Y-82939153D01*
X129609163Y-83130230D01*
X129776170Y-83297237D01*
X129810807Y-83322403D01*
X129853472Y-83377733D01*
X129859451Y-83447346D01*
X129826845Y-83509141D01*
X129810810Y-83523035D01*
X129793045Y-83535942D01*
X129776168Y-83548204D01*
X129609165Y-83715207D01*
X129609165Y-83715208D01*
X129609163Y-83715210D01*
X129549542Y-83797270D01*
X129470337Y-83906286D01*
X129363113Y-84116723D01*
X129290126Y-84341351D01*
X129253180Y-84574622D01*
X129253180Y-84810817D01*
X129290126Y-85044088D01*
X129363113Y-85268716D01*
X129470337Y-85479153D01*
X129609163Y-85670230D01*
X129776170Y-85837237D01*
X129810807Y-85862403D01*
X129853472Y-85917733D01*
X129859451Y-85987346D01*
X129826845Y-86049141D01*
X129810810Y-86063035D01*
X129793045Y-86075942D01*
X129776168Y-86088204D01*
X129609165Y-86255207D01*
X129609165Y-86255208D01*
X129609163Y-86255210D01*
X129562730Y-86319119D01*
X129470337Y-86446286D01*
X129363113Y-86656723D01*
X129290126Y-86881351D01*
X129253180Y-87114622D01*
X129253180Y-87350817D01*
X129290126Y-87584088D01*
X129363113Y-87808716D01*
X129470337Y-88019153D01*
X129609163Y-88210230D01*
X129776170Y-88377237D01*
X129810807Y-88402403D01*
X129853472Y-88457733D01*
X129859451Y-88527346D01*
X129826845Y-88589141D01*
X129810810Y-88603035D01*
X129793045Y-88615942D01*
X129776168Y-88628204D01*
X129609165Y-88795207D01*
X129609165Y-88795208D01*
X129609163Y-88795210D01*
X129549542Y-88877270D01*
X129470337Y-88986286D01*
X129363113Y-89196723D01*
X129290126Y-89421351D01*
X129253180Y-89654622D01*
X129253180Y-89890817D01*
X129290126Y-90124088D01*
X129363113Y-90348716D01*
X129470337Y-90559153D01*
X129609163Y-90750230D01*
X129776170Y-90917237D01*
X129810807Y-90942403D01*
X129853472Y-90997733D01*
X129859451Y-91067346D01*
X129826845Y-91129141D01*
X129810810Y-91143035D01*
X129793045Y-91155942D01*
X129776168Y-91168204D01*
X129609165Y-91335207D01*
X129609165Y-91335208D01*
X129609163Y-91335210D01*
X129549542Y-91417270D01*
X129470337Y-91526286D01*
X129363113Y-91736723D01*
X129290126Y-91961351D01*
X129253180Y-92194622D01*
X129253180Y-92430817D01*
X129290126Y-92664088D01*
X129363113Y-92888716D01*
X129455473Y-93069981D01*
X129470337Y-93099153D01*
X129609163Y-93290230D01*
X129776170Y-93457237D01*
X129810807Y-93482403D01*
X129853472Y-93537733D01*
X129859451Y-93607346D01*
X129826845Y-93669141D01*
X129810810Y-93683035D01*
X129793045Y-93695942D01*
X129776168Y-93708204D01*
X129609165Y-93875207D01*
X129609165Y-93875208D01*
X129609163Y-93875210D01*
X129604317Y-93881880D01*
X129470337Y-94066286D01*
X129363113Y-94276723D01*
X129290126Y-94501351D01*
X129253180Y-94734622D01*
X129253180Y-94970817D01*
X129290126Y-95204088D01*
X129363113Y-95428716D01*
X129432087Y-95564084D01*
X129470337Y-95639153D01*
X129609163Y-95830230D01*
X129776170Y-95997237D01*
X129810807Y-96022403D01*
X129853472Y-96077733D01*
X129859451Y-96147346D01*
X129826845Y-96209141D01*
X129810810Y-96223035D01*
X129793045Y-96235942D01*
X129776168Y-96248204D01*
X129609165Y-96415207D01*
X129609165Y-96415208D01*
X129609163Y-96415210D01*
X129570776Y-96468045D01*
X129470337Y-96606286D01*
X129363113Y-96816723D01*
X129290126Y-97041351D01*
X129253180Y-97274622D01*
X129253180Y-97510817D01*
X129290126Y-97744088D01*
X129363113Y-97968716D01*
X129442745Y-98125001D01*
X129470337Y-98179153D01*
X129609163Y-98370230D01*
X129776170Y-98537237D01*
X129810807Y-98562403D01*
X129853472Y-98617733D01*
X129859451Y-98687346D01*
X129826845Y-98749141D01*
X129810810Y-98763035D01*
X129793045Y-98775942D01*
X129776168Y-98788204D01*
X129609165Y-98955207D01*
X129609165Y-98955208D01*
X129609163Y-98955210D01*
X129565588Y-99015186D01*
X129470337Y-99146286D01*
X129363113Y-99356723D01*
X129290126Y-99581351D01*
X129253180Y-99814622D01*
X129253180Y-100050817D01*
X129290126Y-100284088D01*
X129363113Y-100508716D01*
X129454095Y-100687276D01*
X129470337Y-100719153D01*
X129609163Y-100910230D01*
X129776170Y-101077237D01*
X129810807Y-101102403D01*
X129853472Y-101157733D01*
X129859451Y-101227346D01*
X129826845Y-101289141D01*
X129810810Y-101303035D01*
X129793045Y-101315942D01*
X129776168Y-101328204D01*
X129609165Y-101495207D01*
X129609165Y-101495208D01*
X129609163Y-101495210D01*
X129601552Y-101505686D01*
X129470337Y-101686286D01*
X129363113Y-101896723D01*
X129290126Y-102121351D01*
X129253180Y-102354622D01*
X129253180Y-102590817D01*
X129290126Y-102824088D01*
X129363113Y-103048716D01*
X129411006Y-103142710D01*
X129470337Y-103259153D01*
X129609163Y-103450230D01*
X129776170Y-103617237D01*
X129810807Y-103642403D01*
X129853472Y-103697733D01*
X129859451Y-103767346D01*
X129826845Y-103829141D01*
X129810810Y-103843035D01*
X129793045Y-103855942D01*
X129776168Y-103868204D01*
X129609165Y-104035207D01*
X129609165Y-104035208D01*
X129609163Y-104035210D01*
X129605320Y-104040500D01*
X129470337Y-104226286D01*
X129363113Y-104436723D01*
X129290126Y-104661351D01*
X129253180Y-104894622D01*
X129253180Y-105130817D01*
X129290126Y-105364088D01*
X129363113Y-105588716D01*
X129454833Y-105768724D01*
X129470337Y-105799153D01*
X129609163Y-105990230D01*
X129776170Y-106157237D01*
X129810807Y-106182403D01*
X129853472Y-106237733D01*
X129859451Y-106307346D01*
X129826845Y-106369141D01*
X129810810Y-106383035D01*
X129793045Y-106395942D01*
X129776168Y-106408204D01*
X129609165Y-106575207D01*
X129609165Y-106575208D01*
X129609163Y-106575210D01*
X129582278Y-106612214D01*
X129470337Y-106766286D01*
X129363113Y-106976723D01*
X129290126Y-107201351D01*
X129253180Y-107434622D01*
X129253180Y-107670817D01*
X129290126Y-107904088D01*
X129363113Y-108128716D01*
X129470337Y-108339153D01*
X129609163Y-108530230D01*
X129776170Y-108697237D01*
X129810807Y-108722403D01*
X129853472Y-108777733D01*
X129859451Y-108847346D01*
X129826845Y-108909141D01*
X129810810Y-108923035D01*
X129793045Y-108935942D01*
X129776168Y-108948204D01*
X129609165Y-109115207D01*
X129609165Y-109115208D01*
X129609163Y-109115210D01*
X129549542Y-109197270D01*
X129470337Y-109306286D01*
X129363113Y-109516723D01*
X129290126Y-109741351D01*
X129253180Y-109974622D01*
X129253180Y-110210817D01*
X129290126Y-110444088D01*
X129363113Y-110668716D01*
X129435546Y-110810872D01*
X129470337Y-110879153D01*
X129609163Y-111070230D01*
X129776170Y-111237237D01*
X129810807Y-111262403D01*
X129853472Y-111317733D01*
X129859451Y-111387346D01*
X129826845Y-111449141D01*
X129810810Y-111463035D01*
X129793045Y-111475942D01*
X129776168Y-111488204D01*
X129609165Y-111655207D01*
X129609165Y-111655208D01*
X129609163Y-111655210D01*
X129549542Y-111737270D01*
X129470337Y-111846286D01*
X129363113Y-112056723D01*
X129290126Y-112281351D01*
X129253180Y-112514622D01*
X129253180Y-112750817D01*
X129290126Y-112984088D01*
X129363113Y-113208716D01*
X129461597Y-113402000D01*
X129470337Y-113419153D01*
X129609163Y-113610230D01*
X129776170Y-113777237D01*
X129810807Y-113802403D01*
X129853472Y-113857733D01*
X129859451Y-113927346D01*
X129826845Y-113989141D01*
X129810810Y-114003035D01*
X129793045Y-114015942D01*
X129776168Y-114028204D01*
X129609165Y-114195207D01*
X129609165Y-114195208D01*
X129609163Y-114195210D01*
X129549542Y-114277270D01*
X129470337Y-114386286D01*
X129363113Y-114596723D01*
X129290126Y-114821351D01*
X129253180Y-115054622D01*
X129253180Y-115290817D01*
X129290126Y-115524088D01*
X129363113Y-115748716D01*
X129470337Y-115959153D01*
X129609163Y-116150230D01*
X129776170Y-116317237D01*
X129810807Y-116342403D01*
X129853472Y-116397733D01*
X129859451Y-116467346D01*
X129826845Y-116529141D01*
X129810810Y-116543035D01*
X129793045Y-116555942D01*
X129776168Y-116568204D01*
X129609165Y-116735207D01*
X129609165Y-116735208D01*
X129609163Y-116735210D01*
X129549542Y-116817270D01*
X129470337Y-116926286D01*
X129363113Y-117136723D01*
X129290126Y-117361351D01*
X129253180Y-117594622D01*
X129253180Y-117830817D01*
X129290126Y-118064088D01*
X129363113Y-118288716D01*
X129470337Y-118499153D01*
X129609163Y-118690230D01*
X129776170Y-118857237D01*
X129807095Y-118879705D01*
X129849760Y-118935036D01*
X129855739Y-119004649D01*
X129823133Y-119066444D01*
X129807096Y-119080340D01*
X129772490Y-119105482D01*
X129605485Y-119272487D01*
X129605485Y-119272488D01*
X129605483Y-119272490D01*
X129603507Y-119275210D01*
X129466657Y-119463566D01*
X129359433Y-119674003D01*
X129286446Y-119898631D01*
X129249500Y-120131902D01*
X129249500Y-120368097D01*
X129286446Y-120601368D01*
X129359433Y-120825996D01*
X129427850Y-120960270D01*
X129466657Y-121036433D01*
X129605483Y-121227510D01*
X129772490Y-121394517D01*
X129807127Y-121419683D01*
X129849792Y-121475013D01*
X129855771Y-121544626D01*
X129823165Y-121606421D01*
X129807130Y-121620315D01*
X129789365Y-121633222D01*
X129772488Y-121645484D01*
X129605485Y-121812487D01*
X129605485Y-121812488D01*
X129605483Y-121812490D01*
X129554772Y-121882288D01*
X129477687Y-121988386D01*
X129422357Y-122031051D01*
X129377369Y-122039500D01*
X127852230Y-122039500D01*
X127785191Y-122019815D01*
X127764549Y-122003181D01*
X127643657Y-121882289D01*
X127643656Y-121882288D01*
X127494334Y-121790186D01*
X127327797Y-121735001D01*
X127327795Y-121735000D01*
X127225010Y-121724500D01*
X126174998Y-121724500D01*
X126174980Y-121724501D01*
X126072203Y-121735000D01*
X126072200Y-121735001D01*
X125937624Y-121779596D01*
X125867796Y-121781998D01*
X125810939Y-121749571D01*
X125109319Y-121047951D01*
X125075834Y-120986628D01*
X125073000Y-120960270D01*
X125073000Y-117427230D01*
X125092685Y-117360191D01*
X125109319Y-117339549D01*
X125165212Y-117283656D01*
X125257314Y-117134334D01*
X125312499Y-116967797D01*
X125323000Y-116865009D01*
X125322999Y-115814992D01*
X125316228Y-115748712D01*
X125312499Y-115712203D01*
X125312498Y-115712200D01*
X125257314Y-115545666D01*
X125196076Y-115446383D01*
X125191461Y-115438900D01*
X125173000Y-115373804D01*
X125173000Y-115245265D01*
X125192685Y-115178226D01*
X125231901Y-115139727D01*
X125252891Y-115126781D01*
X125371781Y-115007891D01*
X125460049Y-114864787D01*
X125512936Y-114705185D01*
X125523000Y-114606674D01*
X125523000Y-114073326D01*
X125512936Y-113974815D01*
X125460049Y-113815213D01*
X125460045Y-113815207D01*
X125460044Y-113815204D01*
X125371783Y-113672112D01*
X125371780Y-113672108D01*
X125252891Y-113553219D01*
X125252887Y-113553216D01*
X125109795Y-113464955D01*
X125109789Y-113464952D01*
X125109787Y-113464951D01*
X124950185Y-113412064D01*
X124950183Y-113412063D01*
X124851681Y-113402000D01*
X124851674Y-113402000D01*
X123993326Y-113402000D01*
X123993318Y-113402000D01*
X123894816Y-113412063D01*
X123894815Y-113412064D01*
X123815719Y-113438273D01*
X123735215Y-113464950D01*
X123735204Y-113464955D01*
X123592112Y-113553216D01*
X123592108Y-113553219D01*
X123473219Y-113672108D01*
X123473216Y-113672112D01*
X123384955Y-113815204D01*
X123384950Y-113815215D01*
X123370861Y-113857733D01*
X123332064Y-113974815D01*
X123332064Y-113974816D01*
X123332063Y-113974816D01*
X123322000Y-114073318D01*
X123322000Y-114606681D01*
X123332063Y-114705183D01*
X123384950Y-114864784D01*
X123384955Y-114864795D01*
X123473216Y-115007887D01*
X123473219Y-115007891D01*
X123583049Y-115117721D01*
X123616534Y-115179044D01*
X123611550Y-115248736D01*
X123583049Y-115293083D01*
X123479788Y-115396343D01*
X123479783Y-115396349D01*
X123477741Y-115399661D01*
X123475747Y-115401453D01*
X123475307Y-115402011D01*
X123475211Y-115401935D01*
X123425791Y-115446383D01*
X123356828Y-115457602D01*
X123292747Y-115429755D01*
X123266668Y-115399656D01*
X123264819Y-115396659D01*
X123264816Y-115396655D01*
X123140845Y-115272684D01*
X122991624Y-115180643D01*
X122991619Y-115180641D01*
X122825197Y-115125494D01*
X122825190Y-115125493D01*
X122722486Y-115115000D01*
X122672500Y-115115000D01*
X122672500Y-117564999D01*
X122722472Y-117564999D01*
X122722486Y-117564998D01*
X122825197Y-117554505D01*
X122991619Y-117499358D01*
X122991624Y-117499356D01*
X123140845Y-117407315D01*
X123264818Y-117283342D01*
X123266665Y-117280348D01*
X123268469Y-117278724D01*
X123269298Y-117277677D01*
X123269476Y-117277818D01*
X123318610Y-117233621D01*
X123387573Y-117222396D01*
X123451656Y-117250236D01*
X123477743Y-117280341D01*
X123479788Y-117283656D01*
X123479789Y-117283657D01*
X123535681Y-117339549D01*
X123569166Y-117400872D01*
X123572000Y-117427230D01*
X123572000Y-121396418D01*
X123572000Y-121396420D01*
X123571999Y-121396420D01*
X123600840Y-121541407D01*
X123600843Y-121541417D01*
X123657413Y-121677990D01*
X123657414Y-121677992D01*
X123657415Y-121677994D01*
X123657416Y-121677995D01*
X123688490Y-121724500D01*
X123739548Y-121800916D01*
X125142049Y-123203416D01*
X125246584Y-123307951D01*
X125246587Y-123307953D01*
X125246588Y-123307954D01*
X125369503Y-123390083D01*
X125369506Y-123390085D01*
X125426079Y-123413518D01*
X125426080Y-123413518D01*
X125506088Y-123446659D01*
X125622241Y-123469763D01*
X125629169Y-123471141D01*
X125630480Y-123471402D01*
X125692391Y-123503786D01*
X125693970Y-123505338D01*
X125756344Y-123567712D01*
X125759628Y-123569737D01*
X125759653Y-123569753D01*
X125761445Y-123571746D01*
X125762011Y-123572193D01*
X125761934Y-123572289D01*
X125806379Y-123621699D01*
X125817603Y-123690661D01*
X125789761Y-123754744D01*
X125759665Y-123780826D01*
X125756660Y-123782679D01*
X125756655Y-123782683D01*
X125632684Y-123906654D01*
X125540643Y-124055875D01*
X125540641Y-124055880D01*
X125485494Y-124222302D01*
X125485493Y-124222309D01*
X125475000Y-124325013D01*
X125475000Y-124375000D01*
X127924999Y-124375000D01*
X127924999Y-124325028D01*
X127924998Y-124325013D01*
X127914505Y-124222302D01*
X127859358Y-124055880D01*
X127859356Y-124055875D01*
X127767315Y-123906654D01*
X127643344Y-123782683D01*
X127643341Y-123782681D01*
X127640339Y-123780829D01*
X127638713Y-123779021D01*
X127637677Y-123778202D01*
X127637817Y-123778024D01*
X127593617Y-123728880D01*
X127582397Y-123659917D01*
X127610243Y-123595836D01*
X127640344Y-123569754D01*
X127643656Y-123567712D01*
X127643661Y-123567706D01*
X127643664Y-123567705D01*
X127644257Y-123567237D01*
X127644740Y-123567041D01*
X127649811Y-123563915D01*
X127650344Y-123564780D01*
X127709051Y-123541094D01*
X127721171Y-123540500D01*
X129377369Y-123540500D01*
X129444408Y-123560185D01*
X129477685Y-123591613D01*
X129605483Y-123767510D01*
X129772490Y-123934517D01*
X129807553Y-123959992D01*
X129850217Y-124015319D01*
X129856196Y-124084933D01*
X129823591Y-124146728D01*
X129807554Y-124160624D01*
X129772819Y-124185861D01*
X129772813Y-124185866D01*
X129605866Y-124352813D01*
X129467085Y-124543828D01*
X129359897Y-124754197D01*
X129286934Y-124978752D01*
X129270898Y-125080000D01*
X130316988Y-125080000D01*
X130284075Y-125137007D01*
X130250000Y-125264174D01*
X130250000Y-125395826D01*
X130284075Y-125522993D01*
X130316988Y-125580000D01*
X129270898Y-125580000D01*
X129286934Y-125681247D01*
X129359897Y-125905802D01*
X129467085Y-126116171D01*
X129605866Y-126307186D01*
X129772813Y-126474133D01*
X129963828Y-126612914D01*
X130174195Y-126720102D01*
X130398744Y-126793063D01*
X130398750Y-126793065D01*
X130500000Y-126809101D01*
X130500000Y-125763012D01*
X130557007Y-125795925D01*
X130684174Y-125830000D01*
X130815826Y-125830000D01*
X130942993Y-125795925D01*
X131000000Y-125763012D01*
X131000000Y-126809100D01*
X131101249Y-126793065D01*
X131101255Y-126793063D01*
X131325804Y-126720102D01*
X131536171Y-126612914D01*
X131727186Y-126474133D01*
X131894133Y-126307186D01*
X132032914Y-126116171D01*
X132140102Y-125905802D01*
X132213065Y-125681247D01*
X132229102Y-125580000D01*
X131183012Y-125580000D01*
X131215925Y-125522993D01*
X131250000Y-125395826D01*
X131250000Y-125264174D01*
X131215925Y-125137007D01*
X131183012Y-125080000D01*
X132229102Y-125080000D01*
X132213065Y-124978752D01*
X132140102Y-124754197D01*
X132032914Y-124543828D01*
X131894133Y-124352813D01*
X131727183Y-124185863D01*
X131692446Y-124160625D01*
X131649781Y-124105295D01*
X131643803Y-124035681D01*
X131676410Y-123973887D01*
X131692439Y-123959997D01*
X131727510Y-123934517D01*
X131894517Y-123767510D01*
X132033343Y-123576433D01*
X132140568Y-123365992D01*
X132213553Y-123141368D01*
X132238206Y-122985713D01*
X132250500Y-122908097D01*
X132250500Y-122671902D01*
X132213553Y-122438631D01*
X132140566Y-122214003D01*
X132084002Y-122102991D01*
X132033343Y-122003567D01*
X131894517Y-121812490D01*
X131727510Y-121645483D01*
X131692872Y-121620317D01*
X131650207Y-121564989D01*
X131644228Y-121495375D01*
X131676833Y-121433580D01*
X131692873Y-121419682D01*
X131727510Y-121394517D01*
X131894517Y-121227510D01*
X132033343Y-121036433D01*
X132140568Y-120825992D01*
X132213553Y-120601368D01*
X132250500Y-120368097D01*
X132250500Y-120131902D01*
X132213553Y-119898631D01*
X132179689Y-119794412D01*
X132140568Y-119674008D01*
X132140566Y-119674005D01*
X132140566Y-119674003D01*
X132084002Y-119562991D01*
X132033343Y-119463567D01*
X131894517Y-119272490D01*
X131727510Y-119105483D01*
X131696583Y-119083013D01*
X131653918Y-119027683D01*
X131647940Y-118958069D01*
X131680547Y-118896275D01*
X131696576Y-118882384D01*
X131731190Y-118857237D01*
X131898197Y-118690230D01*
X132037023Y-118499153D01*
X132144248Y-118288712D01*
X132217233Y-118064088D01*
X132254180Y-117830817D01*
X132254180Y-117594622D01*
X132217233Y-117361351D01*
X132181129Y-117250236D01*
X132144248Y-117136728D01*
X132144246Y-117136725D01*
X132144246Y-117136723D01*
X132037022Y-116926286D01*
X131898197Y-116735210D01*
X131731190Y-116568203D01*
X131696552Y-116543037D01*
X131653887Y-116487709D01*
X131647908Y-116418095D01*
X131680513Y-116356300D01*
X131696553Y-116342402D01*
X131731190Y-116317237D01*
X131898197Y-116150230D01*
X132037023Y-115959153D01*
X132144248Y-115748712D01*
X132217233Y-115524088D01*
X132229540Y-115446383D01*
X132254180Y-115290817D01*
X132254180Y-115054622D01*
X132217233Y-114821351D01*
X132147482Y-114606681D01*
X132144248Y-114596728D01*
X132144246Y-114596725D01*
X132144246Y-114596723D01*
X132037022Y-114386286D01*
X131898197Y-114195210D01*
X131731190Y-114028203D01*
X131696552Y-114003037D01*
X131653887Y-113947709D01*
X131647908Y-113878095D01*
X131680513Y-113816300D01*
X131696553Y-113802402D01*
X131731190Y-113777237D01*
X131898197Y-113610230D01*
X132037023Y-113419153D01*
X132144248Y-113208712D01*
X132217233Y-112984088D01*
X132233262Y-112882887D01*
X132254180Y-112750817D01*
X132254180Y-112514622D01*
X132217233Y-112281351D01*
X132144246Y-112056723D01*
X132038821Y-111849816D01*
X132037023Y-111846287D01*
X131898197Y-111655210D01*
X131731190Y-111488203D01*
X131696552Y-111463037D01*
X131653887Y-111407709D01*
X131647908Y-111338095D01*
X131680513Y-111276300D01*
X131696553Y-111262402D01*
X131731190Y-111237237D01*
X131898197Y-111070230D01*
X132037023Y-110879153D01*
X132144248Y-110668712D01*
X132217233Y-110444088D01*
X132254180Y-110210817D01*
X132254180Y-109974622D01*
X132217233Y-109741351D01*
X132144246Y-109516723D01*
X132037022Y-109306286D01*
X131898197Y-109115210D01*
X131731190Y-108948203D01*
X131696552Y-108923037D01*
X131653887Y-108867709D01*
X131647908Y-108798095D01*
X131680513Y-108736300D01*
X131696553Y-108722402D01*
X131731190Y-108697237D01*
X131898197Y-108530230D01*
X132037023Y-108339153D01*
X132144248Y-108128712D01*
X132217233Y-107904088D01*
X132230078Y-107822989D01*
X132254180Y-107670817D01*
X132254180Y-107434622D01*
X132217233Y-107201351D01*
X132183369Y-107097132D01*
X132144248Y-106976728D01*
X132144246Y-106976725D01*
X132144246Y-106976723D01*
X132087682Y-106865711D01*
X132037023Y-106766287D01*
X131898197Y-106575210D01*
X131731190Y-106408203D01*
X131696552Y-106383037D01*
X131653887Y-106327709D01*
X131647908Y-106258095D01*
X131680513Y-106196300D01*
X131696553Y-106182402D01*
X131731190Y-106157237D01*
X131898197Y-105990230D01*
X132037023Y-105799153D01*
X132144248Y-105588712D01*
X132217233Y-105364088D01*
X132232756Y-105266079D01*
X132254180Y-105130817D01*
X132254180Y-104894622D01*
X132217233Y-104661351D01*
X132144246Y-104436723D01*
X132087682Y-104325711D01*
X132037023Y-104226287D01*
X131898197Y-104035210D01*
X131731190Y-103868203D01*
X131696552Y-103843037D01*
X131653887Y-103787709D01*
X131647908Y-103718095D01*
X131680513Y-103656300D01*
X131696553Y-103642402D01*
X131731190Y-103617237D01*
X131898197Y-103450230D01*
X132037023Y-103259153D01*
X132144248Y-103048712D01*
X132217233Y-102824088D01*
X132235900Y-102706230D01*
X132254180Y-102590817D01*
X132254180Y-102354622D01*
X132217233Y-102121351D01*
X132177212Y-101998181D01*
X132144248Y-101896728D01*
X132144246Y-101896725D01*
X132144246Y-101896723D01*
X132074958Y-101760739D01*
X132037023Y-101686287D01*
X131898197Y-101495210D01*
X131731190Y-101328203D01*
X131696552Y-101303037D01*
X131653887Y-101247709D01*
X131647908Y-101178095D01*
X131680513Y-101116300D01*
X131696553Y-101102402D01*
X131731190Y-101077237D01*
X131898197Y-100910230D01*
X132037023Y-100719153D01*
X132144248Y-100508712D01*
X132217233Y-100284088D01*
X132227596Y-100218657D01*
X132254180Y-100050817D01*
X132254180Y-99814622D01*
X132217233Y-99581351D01*
X132163344Y-99415500D01*
X132144248Y-99356728D01*
X132144246Y-99356725D01*
X132144246Y-99356723D01*
X132037022Y-99146286D01*
X132030589Y-99137432D01*
X131898197Y-98955210D01*
X131731190Y-98788203D01*
X131696552Y-98763037D01*
X131653887Y-98707709D01*
X131647908Y-98638095D01*
X131680513Y-98576300D01*
X131696553Y-98562402D01*
X131731190Y-98537237D01*
X131898197Y-98370230D01*
X132037023Y-98179153D01*
X132144248Y-97968712D01*
X132217233Y-97744088D01*
X132234961Y-97632160D01*
X132254180Y-97510817D01*
X132254180Y-97274622D01*
X132217233Y-97041351D01*
X132158210Y-96859699D01*
X132144248Y-96816728D01*
X132144246Y-96816725D01*
X132144246Y-96816723D01*
X132037022Y-96606286D01*
X131898197Y-96415210D01*
X131731190Y-96248203D01*
X131696552Y-96223037D01*
X131653887Y-96167709D01*
X131647908Y-96098095D01*
X131680513Y-96036300D01*
X131696553Y-96022402D01*
X131697093Y-96022010D01*
X131731190Y-95997237D01*
X131898197Y-95830230D01*
X132037023Y-95639153D01*
X132144248Y-95428712D01*
X132217233Y-95204088D01*
X132235302Y-95090006D01*
X132254180Y-94970817D01*
X132254180Y-94734622D01*
X132217233Y-94501351D01*
X132144246Y-94276723D01*
X132037022Y-94066286D01*
X131898197Y-93875210D01*
X131731190Y-93708203D01*
X131696552Y-93683037D01*
X131653887Y-93627709D01*
X131647908Y-93558095D01*
X131680513Y-93496300D01*
X131696553Y-93482402D01*
X131731190Y-93457237D01*
X131898197Y-93290230D01*
X132037023Y-93099153D01*
X132144248Y-92888712D01*
X132217233Y-92664088D01*
X132224671Y-92617127D01*
X132254180Y-92430817D01*
X132254180Y-92194622D01*
X132217233Y-91961351D01*
X132144246Y-91736723D01*
X132037022Y-91526286D01*
X131985714Y-91455667D01*
X131898197Y-91335210D01*
X131731190Y-91168203D01*
X131696552Y-91143037D01*
X131653887Y-91087709D01*
X131647908Y-91018095D01*
X131680513Y-90956300D01*
X131696553Y-90942402D01*
X131731190Y-90917237D01*
X131898197Y-90750230D01*
X132037023Y-90559153D01*
X132144248Y-90348712D01*
X132217233Y-90124088D01*
X132254180Y-89890817D01*
X132254180Y-89654622D01*
X132217233Y-89421351D01*
X132144246Y-89196723D01*
X132037022Y-88986286D01*
X131898197Y-88795210D01*
X131731190Y-88628203D01*
X131696552Y-88603037D01*
X131653887Y-88547709D01*
X131647908Y-88478095D01*
X131680513Y-88416300D01*
X131696553Y-88402402D01*
X131731190Y-88377237D01*
X131898197Y-88210230D01*
X132037023Y-88019153D01*
X132144248Y-87808712D01*
X132217233Y-87584088D01*
X132219637Y-87568912D01*
X132254180Y-87350817D01*
X132254180Y-87114622D01*
X132217233Y-86881351D01*
X132144246Y-86656723D01*
X132087682Y-86545711D01*
X132037023Y-86446287D01*
X131898197Y-86255210D01*
X131731190Y-86088203D01*
X131696552Y-86063037D01*
X131653887Y-86007709D01*
X131647908Y-85938095D01*
X131680513Y-85876300D01*
X131696553Y-85862402D01*
X131731190Y-85837237D01*
X131898197Y-85670230D01*
X132037023Y-85479153D01*
X132144248Y-85268712D01*
X132217233Y-85044088D01*
X132224216Y-85000000D01*
X132254180Y-84810817D01*
X132254180Y-84574622D01*
X132217233Y-84341351D01*
X132144246Y-84116723D01*
X132037022Y-83906286D01*
X131898197Y-83715210D01*
X131731190Y-83548203D01*
X131696552Y-83523037D01*
X131653887Y-83467709D01*
X131647908Y-83398095D01*
X131680513Y-83336300D01*
X131696553Y-83322402D01*
X131700304Y-83319677D01*
X131731190Y-83297237D01*
X131898197Y-83130230D01*
X132037023Y-82939153D01*
X132144248Y-82728712D01*
X132217233Y-82504088D01*
X132254180Y-82270817D01*
X132254180Y-82034622D01*
X132217233Y-81801351D01*
X132180239Y-81687498D01*
X132144248Y-81576728D01*
X132144246Y-81576725D01*
X132144246Y-81576723D01*
X132087682Y-81465711D01*
X132037023Y-81366287D01*
X131898197Y-81175210D01*
X131731190Y-81008203D01*
X131696552Y-80983037D01*
X131653887Y-80927709D01*
X131647908Y-80858095D01*
X131680513Y-80796300D01*
X131696553Y-80782402D01*
X131731190Y-80757237D01*
X131898197Y-80590230D01*
X132037023Y-80399153D01*
X132144248Y-80188712D01*
X132217233Y-79964088D01*
X132254180Y-79730817D01*
X132254180Y-79494622D01*
X132217233Y-79261351D01*
X132144246Y-79036723D01*
X132086924Y-78924223D01*
X132037023Y-78826287D01*
X131898197Y-78635210D01*
X131731190Y-78468203D01*
X131696552Y-78443037D01*
X131653887Y-78387709D01*
X131647908Y-78318095D01*
X131680513Y-78256300D01*
X131696553Y-78242402D01*
X131731190Y-78217237D01*
X131898197Y-78050230D01*
X132037023Y-77859153D01*
X132144248Y-77648712D01*
X132217233Y-77424088D01*
X132254180Y-77190817D01*
X132254180Y-76954622D01*
X132217233Y-76721351D01*
X132175435Y-76592712D01*
X132144248Y-76496728D01*
X132144246Y-76496725D01*
X132144246Y-76496723D01*
X132087682Y-76385711D01*
X132037023Y-76286287D01*
X131898197Y-76095210D01*
X131731190Y-75928203D01*
X131696552Y-75903037D01*
X131653887Y-75847709D01*
X131647908Y-75778095D01*
X131680513Y-75716300D01*
X131696553Y-75702402D01*
X131731190Y-75677237D01*
X131898197Y-75510230D01*
X132037023Y-75319153D01*
X132144248Y-75108712D01*
X132217233Y-74884088D01*
X132254180Y-74650817D01*
X132254180Y-74414622D01*
X132217233Y-74181351D01*
X132183369Y-74077132D01*
X132144248Y-73956728D01*
X132144246Y-73956725D01*
X132144246Y-73956723D01*
X132037022Y-73746286D01*
X132037020Y-73746283D01*
X131947129Y-73622559D01*
X131923650Y-73556755D01*
X131939475Y-73488701D01*
X131988424Y-73441130D01*
X131988226Y-73440767D01*
X131989531Y-73440054D01*
X131989581Y-73440006D01*
X131989791Y-73439912D01*
X131996006Y-73436517D01*
X131996011Y-73436516D01*
X132111226Y-73350266D01*
X132197476Y-73235051D01*
X132247771Y-73100203D01*
X132254180Y-73040593D01*
X132254179Y-70944855D01*
X154653180Y-70944855D01*
X154653180Y-73040590D01*
X154653181Y-73040596D01*
X154659588Y-73100203D01*
X154709882Y-73235048D01*
X154709886Y-73235055D01*
X154796132Y-73350264D01*
X154796135Y-73350267D01*
X154911344Y-73436513D01*
X154919134Y-73440767D01*
X154917326Y-73444077D01*
X154959031Y-73475169D01*
X154983577Y-73540585D01*
X154968860Y-73608887D01*
X154960229Y-73622560D01*
X154870339Y-73746283D01*
X154763113Y-73956723D01*
X154690126Y-74181351D01*
X154653180Y-74414622D01*
X154653180Y-74650817D01*
X154690126Y-74884088D01*
X154763113Y-75108716D01*
X154870337Y-75319153D01*
X155009163Y-75510230D01*
X155176170Y-75677237D01*
X155210807Y-75702403D01*
X155253472Y-75757733D01*
X155259451Y-75827346D01*
X155226845Y-75889141D01*
X155210810Y-75903035D01*
X155193045Y-75915942D01*
X155176168Y-75928204D01*
X155009165Y-76095207D01*
X155009165Y-76095208D01*
X155009163Y-76095210D01*
X154967324Y-76152796D01*
X154870337Y-76286286D01*
X154763113Y-76496723D01*
X154690126Y-76721351D01*
X154653180Y-76954622D01*
X154653180Y-77190817D01*
X154690126Y-77424088D01*
X154763113Y-77648716D01*
X154847935Y-77815187D01*
X154870337Y-77859153D01*
X155009163Y-78050230D01*
X155176170Y-78217237D01*
X155210807Y-78242403D01*
X155253472Y-78297733D01*
X155259451Y-78367346D01*
X155226845Y-78429141D01*
X155210810Y-78443035D01*
X155201249Y-78449982D01*
X155176168Y-78468204D01*
X155009165Y-78635207D01*
X155009165Y-78635208D01*
X155009163Y-78635210D01*
X154956795Y-78707288D01*
X154870337Y-78826286D01*
X154763113Y-79036723D01*
X154690126Y-79261351D01*
X154653180Y-79494622D01*
X154653180Y-79730817D01*
X154690126Y-79964088D01*
X154763113Y-80188716D01*
X154846716Y-80352795D01*
X154870337Y-80399153D01*
X155009163Y-80590230D01*
X155176170Y-80757237D01*
X155210807Y-80782403D01*
X155253472Y-80837733D01*
X155259451Y-80907346D01*
X155226845Y-80969141D01*
X155210810Y-80983035D01*
X155193045Y-80995942D01*
X155176168Y-81008204D01*
X155009165Y-81175207D01*
X155009165Y-81175208D01*
X155009163Y-81175210D01*
X154962959Y-81238804D01*
X154870337Y-81366286D01*
X154763113Y-81576723D01*
X154690126Y-81801351D01*
X154653180Y-82034622D01*
X154653180Y-82270817D01*
X154690126Y-82504088D01*
X154763113Y-82728716D01*
X154854301Y-82907680D01*
X154870337Y-82939153D01*
X155009163Y-83130230D01*
X155176170Y-83297237D01*
X155210807Y-83322403D01*
X155253472Y-83377733D01*
X155259451Y-83447346D01*
X155226845Y-83509141D01*
X155210810Y-83523035D01*
X155193045Y-83535942D01*
X155176168Y-83548204D01*
X155009165Y-83715207D01*
X155009165Y-83715208D01*
X155009163Y-83715210D01*
X154949542Y-83797270D01*
X154870337Y-83906286D01*
X154763113Y-84116723D01*
X154690126Y-84341351D01*
X154653180Y-84574622D01*
X154653180Y-84810817D01*
X154690126Y-85044088D01*
X154763113Y-85268716D01*
X154870337Y-85479153D01*
X155009163Y-85670230D01*
X155176170Y-85837237D01*
X155210807Y-85862403D01*
X155253472Y-85917733D01*
X155259451Y-85987346D01*
X155226845Y-86049141D01*
X155210810Y-86063035D01*
X155193045Y-86075942D01*
X155176168Y-86088204D01*
X155009165Y-86255207D01*
X155009165Y-86255208D01*
X155009163Y-86255210D01*
X154962730Y-86319119D01*
X154870337Y-86446286D01*
X154763113Y-86656723D01*
X154690126Y-86881351D01*
X154653180Y-87114622D01*
X154653180Y-87350817D01*
X154690126Y-87584088D01*
X154763113Y-87808716D01*
X154870337Y-88019153D01*
X155009163Y-88210230D01*
X155176170Y-88377237D01*
X155210807Y-88402403D01*
X155253472Y-88457733D01*
X155259451Y-88527346D01*
X155226845Y-88589141D01*
X155210810Y-88603035D01*
X155193045Y-88615942D01*
X155176168Y-88628204D01*
X155009165Y-88795207D01*
X155009165Y-88795208D01*
X155009163Y-88795210D01*
X154949542Y-88877270D01*
X154870337Y-88986286D01*
X154763113Y-89196723D01*
X154690126Y-89421351D01*
X154653180Y-89654622D01*
X154653180Y-89890817D01*
X154690126Y-90124088D01*
X154763113Y-90348716D01*
X154870337Y-90559153D01*
X155009163Y-90750230D01*
X155176170Y-90917237D01*
X155210807Y-90942403D01*
X155253472Y-90997733D01*
X155259451Y-91067346D01*
X155226845Y-91129141D01*
X155210810Y-91143035D01*
X155193045Y-91155942D01*
X155176168Y-91168204D01*
X155009165Y-91335207D01*
X155009165Y-91335208D01*
X155009163Y-91335210D01*
X154949542Y-91417270D01*
X154870337Y-91526286D01*
X154763113Y-91736723D01*
X154690126Y-91961351D01*
X154653180Y-92194622D01*
X154653180Y-92430817D01*
X154690126Y-92664088D01*
X154763113Y-92888716D01*
X154855473Y-93069981D01*
X154870337Y-93099153D01*
X155009163Y-93290230D01*
X155176170Y-93457237D01*
X155210807Y-93482403D01*
X155253472Y-93537733D01*
X155259451Y-93607346D01*
X155226845Y-93669141D01*
X155210810Y-93683035D01*
X155193045Y-93695942D01*
X155176168Y-93708204D01*
X155009165Y-93875207D01*
X155009165Y-93875208D01*
X155009163Y-93875210D01*
X155004317Y-93881880D01*
X154870337Y-94066286D01*
X154763113Y-94276723D01*
X154690126Y-94501351D01*
X154653180Y-94734622D01*
X154653180Y-94970817D01*
X154690126Y-95204088D01*
X154763113Y-95428716D01*
X154832087Y-95564084D01*
X154870337Y-95639153D01*
X155009163Y-95830230D01*
X155176170Y-95997237D01*
X155210807Y-96022403D01*
X155253472Y-96077733D01*
X155259451Y-96147346D01*
X155226845Y-96209141D01*
X155210810Y-96223035D01*
X155193045Y-96235942D01*
X155176168Y-96248204D01*
X155009165Y-96415207D01*
X155009165Y-96415208D01*
X155009163Y-96415210D01*
X154970776Y-96468045D01*
X154870337Y-96606286D01*
X154763113Y-96816723D01*
X154690126Y-97041351D01*
X154653180Y-97274622D01*
X154653180Y-97510817D01*
X154690126Y-97744088D01*
X154763113Y-97968716D01*
X154842745Y-98125001D01*
X154870337Y-98179153D01*
X155009163Y-98370230D01*
X155176170Y-98537237D01*
X155210807Y-98562403D01*
X155253472Y-98617733D01*
X155259451Y-98687346D01*
X155226845Y-98749141D01*
X155210810Y-98763035D01*
X155193045Y-98775942D01*
X155176168Y-98788204D01*
X155009165Y-98955207D01*
X155009165Y-98955208D01*
X155009163Y-98955210D01*
X154965588Y-99015186D01*
X154870337Y-99146286D01*
X154763113Y-99356723D01*
X154690126Y-99581351D01*
X154653180Y-99814622D01*
X154653180Y-100050817D01*
X154690126Y-100284088D01*
X154763113Y-100508716D01*
X154854095Y-100687276D01*
X154870337Y-100719153D01*
X155009163Y-100910230D01*
X155176170Y-101077237D01*
X155210807Y-101102403D01*
X155253472Y-101157733D01*
X155259451Y-101227346D01*
X155226845Y-101289141D01*
X155210810Y-101303035D01*
X155193045Y-101315942D01*
X155176168Y-101328204D01*
X155009165Y-101495207D01*
X155009165Y-101495208D01*
X155009163Y-101495210D01*
X155001552Y-101505686D01*
X154870337Y-101686286D01*
X154763113Y-101896723D01*
X154690126Y-102121351D01*
X154653180Y-102354622D01*
X154653180Y-102590817D01*
X154690126Y-102824088D01*
X154763113Y-103048716D01*
X154811006Y-103142710D01*
X154870337Y-103259153D01*
X155009163Y-103450230D01*
X155176170Y-103617237D01*
X155210807Y-103642403D01*
X155253472Y-103697733D01*
X155259451Y-103767346D01*
X155226845Y-103829141D01*
X155210810Y-103843035D01*
X155193045Y-103855942D01*
X155176168Y-103868204D01*
X155009165Y-104035207D01*
X155009165Y-104035208D01*
X155009163Y-104035210D01*
X155005320Y-104040500D01*
X154870337Y-104226286D01*
X154763113Y-104436723D01*
X154690126Y-104661351D01*
X154653180Y-104894622D01*
X154653180Y-105130817D01*
X154690126Y-105364088D01*
X154763113Y-105588716D01*
X154854833Y-105768724D01*
X154870337Y-105799153D01*
X155009163Y-105990230D01*
X155176170Y-106157237D01*
X155210807Y-106182403D01*
X155253472Y-106237733D01*
X155259451Y-106307346D01*
X155226845Y-106369141D01*
X155210810Y-106383035D01*
X155193045Y-106395942D01*
X155176168Y-106408204D01*
X155009165Y-106575207D01*
X155009165Y-106575208D01*
X155009163Y-106575210D01*
X154982278Y-106612214D01*
X154870337Y-106766286D01*
X154763113Y-106976723D01*
X154690126Y-107201351D01*
X154653180Y-107434622D01*
X154653180Y-107670817D01*
X154690126Y-107904088D01*
X154763113Y-108128716D01*
X154870337Y-108339153D01*
X155009163Y-108530230D01*
X155176170Y-108697237D01*
X155210807Y-108722403D01*
X155253472Y-108777733D01*
X155259451Y-108847346D01*
X155226845Y-108909141D01*
X155210810Y-108923035D01*
X155193045Y-108935942D01*
X155176168Y-108948204D01*
X155009165Y-109115207D01*
X155009165Y-109115208D01*
X155009163Y-109115210D01*
X154949542Y-109197270D01*
X154870337Y-109306286D01*
X154763113Y-109516723D01*
X154690126Y-109741351D01*
X154653180Y-109974622D01*
X154653180Y-110210817D01*
X154690126Y-110444088D01*
X154763113Y-110668716D01*
X154835546Y-110810872D01*
X154870337Y-110879153D01*
X155009163Y-111070230D01*
X155176170Y-111237237D01*
X155210807Y-111262403D01*
X155253472Y-111317733D01*
X155259451Y-111387346D01*
X155226845Y-111449141D01*
X155210810Y-111463035D01*
X155193045Y-111475942D01*
X155176168Y-111488204D01*
X155009165Y-111655207D01*
X155009165Y-111655208D01*
X155009163Y-111655210D01*
X154949542Y-111737270D01*
X154870337Y-111846286D01*
X154763113Y-112056723D01*
X154690126Y-112281351D01*
X154653180Y-112514622D01*
X154653180Y-112750817D01*
X154690126Y-112984088D01*
X154763113Y-113208716D01*
X154861597Y-113402000D01*
X154870337Y-113419153D01*
X155009163Y-113610230D01*
X155176170Y-113777237D01*
X155210807Y-113802403D01*
X155253472Y-113857733D01*
X155259451Y-113927346D01*
X155226845Y-113989141D01*
X155210810Y-114003035D01*
X155193045Y-114015942D01*
X155176168Y-114028204D01*
X155009165Y-114195207D01*
X155009165Y-114195208D01*
X155009163Y-114195210D01*
X154949542Y-114277270D01*
X154870337Y-114386286D01*
X154763113Y-114596723D01*
X154690126Y-114821351D01*
X154653180Y-115054622D01*
X154653180Y-115290817D01*
X154690126Y-115524088D01*
X154763113Y-115748716D01*
X154870337Y-115959153D01*
X155009163Y-116150230D01*
X155176170Y-116317237D01*
X155210807Y-116342403D01*
X155253472Y-116397733D01*
X155259451Y-116467346D01*
X155226845Y-116529141D01*
X155210810Y-116543035D01*
X155193045Y-116555942D01*
X155176168Y-116568204D01*
X155009165Y-116735207D01*
X155009165Y-116735208D01*
X155009163Y-116735210D01*
X154949542Y-116817270D01*
X154870337Y-116926286D01*
X154763113Y-117136723D01*
X154690126Y-117361351D01*
X154653180Y-117594622D01*
X154653180Y-117830817D01*
X154690126Y-118064088D01*
X154763113Y-118288716D01*
X154870337Y-118499153D01*
X155009163Y-118690230D01*
X155176170Y-118857237D01*
X155210807Y-118882403D01*
X155253472Y-118937733D01*
X155259451Y-119007346D01*
X155226845Y-119069141D01*
X155210810Y-119083035D01*
X155193045Y-119095942D01*
X155176168Y-119108204D01*
X155009165Y-119275207D01*
X155009165Y-119275208D01*
X155009163Y-119275210D01*
X154949542Y-119357270D01*
X154870337Y-119466286D01*
X154763113Y-119676723D01*
X154690126Y-119901351D01*
X154653180Y-120134622D01*
X154653180Y-120370817D01*
X154690126Y-120604088D01*
X154763113Y-120828716D01*
X154830144Y-120960270D01*
X154870337Y-121039153D01*
X155009163Y-121230230D01*
X155176170Y-121397237D01*
X155211233Y-121422712D01*
X155253897Y-121478039D01*
X155259876Y-121547653D01*
X155227271Y-121609448D01*
X155211234Y-121623344D01*
X155176499Y-121648581D01*
X155176493Y-121648586D01*
X155009546Y-121815533D01*
X154870765Y-122006548D01*
X154763577Y-122216917D01*
X154690614Y-122441472D01*
X154674578Y-122542720D01*
X155720668Y-122542720D01*
X155687755Y-122599727D01*
X155653680Y-122726894D01*
X155653680Y-122858546D01*
X155687755Y-122985713D01*
X155720668Y-123042720D01*
X154674578Y-123042720D01*
X154690614Y-123143967D01*
X154763577Y-123368522D01*
X154870765Y-123578891D01*
X155009546Y-123769906D01*
X155176493Y-123936853D01*
X155176499Y-123936858D01*
X155211657Y-123962402D01*
X155254323Y-124017732D01*
X155260302Y-124087345D01*
X155227696Y-124149140D01*
X155211657Y-124163038D01*
X155176499Y-124188581D01*
X155176493Y-124188586D01*
X155009546Y-124355533D01*
X154870765Y-124546548D01*
X154763577Y-124756917D01*
X154690614Y-124981472D01*
X154674578Y-125082720D01*
X155720668Y-125082720D01*
X155687755Y-125139727D01*
X155653680Y-125266894D01*
X155653680Y-125398546D01*
X155687755Y-125525713D01*
X155720668Y-125582720D01*
X154674578Y-125582720D01*
X154690614Y-125683967D01*
X154763577Y-125908522D01*
X154870765Y-126118891D01*
X155009546Y-126309906D01*
X155176493Y-126476853D01*
X155367508Y-126615634D01*
X155577875Y-126722822D01*
X155802424Y-126795783D01*
X155802430Y-126795785D01*
X155903680Y-126811821D01*
X155903680Y-125765732D01*
X155960687Y-125798645D01*
X156087854Y-125832720D01*
X156219506Y-125832720D01*
X156346673Y-125798645D01*
X156403680Y-125765732D01*
X156403680Y-126811820D01*
X156504929Y-126795785D01*
X156504935Y-126795783D01*
X156729484Y-126722822D01*
X156939851Y-126615634D01*
X157130866Y-126476853D01*
X157297813Y-126309906D01*
X157436594Y-126118891D01*
X157543782Y-125908522D01*
X157616745Y-125683967D01*
X157632782Y-125582720D01*
X156586692Y-125582720D01*
X156619605Y-125525713D01*
X156653680Y-125398546D01*
X156653680Y-125266894D01*
X156619605Y-125139727D01*
X156586692Y-125082720D01*
X157632782Y-125082720D01*
X157616745Y-124981472D01*
X157543782Y-124756917D01*
X157436594Y-124546548D01*
X157297813Y-124355533D01*
X157130860Y-124188580D01*
X157095704Y-124163039D01*
X157053038Y-124107710D01*
X157047057Y-124038097D01*
X157079662Y-123976301D01*
X157095704Y-123962401D01*
X157130860Y-123936859D01*
X157297813Y-123769906D01*
X157436594Y-123578891D01*
X157543782Y-123368522D01*
X157616745Y-123143967D01*
X157632782Y-123042720D01*
X156586692Y-123042720D01*
X156619605Y-122985713D01*
X156653680Y-122858546D01*
X156653680Y-122726894D01*
X156619605Y-122599727D01*
X156586692Y-122542720D01*
X157632782Y-122542720D01*
X157616745Y-122441472D01*
X157543782Y-122216917D01*
X157436594Y-122006548D01*
X157297813Y-121815533D01*
X157130863Y-121648583D01*
X157096126Y-121623345D01*
X157053461Y-121568015D01*
X157047483Y-121498401D01*
X157080090Y-121436607D01*
X157096119Y-121422717D01*
X157131190Y-121397237D01*
X157298197Y-121230230D01*
X157437023Y-121039153D01*
X157544248Y-120828712D01*
X157617233Y-120604088D01*
X157617664Y-120601368D01*
X157654180Y-120370817D01*
X157654180Y-120134622D01*
X157617233Y-119901351D01*
X157544246Y-119676723D01*
X157437022Y-119466286D01*
X157435046Y-119463566D01*
X157298197Y-119275210D01*
X157131190Y-119108203D01*
X157096552Y-119083037D01*
X157053887Y-119027709D01*
X157047908Y-118958095D01*
X157080513Y-118896300D01*
X157096553Y-118882402D01*
X157131190Y-118857237D01*
X157298197Y-118690230D01*
X157437023Y-118499153D01*
X157544248Y-118288712D01*
X157617233Y-118064088D01*
X157654180Y-117830817D01*
X157654180Y-117594622D01*
X157617233Y-117361351D01*
X157581129Y-117250236D01*
X157544248Y-117136728D01*
X157544246Y-117136725D01*
X157544246Y-117136723D01*
X157437022Y-116926286D01*
X157298197Y-116735210D01*
X157131190Y-116568203D01*
X157096552Y-116543037D01*
X157053887Y-116487709D01*
X157047908Y-116418095D01*
X157080513Y-116356300D01*
X157096553Y-116342402D01*
X157131190Y-116317237D01*
X157298197Y-116150230D01*
X157437023Y-115959153D01*
X157544248Y-115748712D01*
X157617233Y-115524088D01*
X157629540Y-115446383D01*
X157654180Y-115290817D01*
X157654180Y-115054622D01*
X157617233Y-114821351D01*
X157547482Y-114606681D01*
X157544248Y-114596728D01*
X157544246Y-114596725D01*
X157544246Y-114596723D01*
X157437022Y-114386286D01*
X157298197Y-114195210D01*
X157131190Y-114028203D01*
X157096552Y-114003037D01*
X157053887Y-113947709D01*
X157047908Y-113878095D01*
X157080513Y-113816300D01*
X157096553Y-113802402D01*
X157131190Y-113777237D01*
X157298197Y-113610230D01*
X157437023Y-113419153D01*
X157544248Y-113208712D01*
X157617233Y-112984088D01*
X157633262Y-112882887D01*
X157654180Y-112750817D01*
X157654180Y-112514622D01*
X157617233Y-112281351D01*
X157544246Y-112056723D01*
X157438821Y-111849816D01*
X157437023Y-111846287D01*
X157298197Y-111655210D01*
X157131190Y-111488203D01*
X157096552Y-111463037D01*
X157053887Y-111407709D01*
X157047908Y-111338095D01*
X157080513Y-111276300D01*
X157096553Y-111262402D01*
X157131190Y-111237237D01*
X157298197Y-111070230D01*
X157437023Y-110879153D01*
X157544248Y-110668712D01*
X157617233Y-110444088D01*
X157654180Y-110210817D01*
X157654180Y-109974622D01*
X157617233Y-109741351D01*
X157544246Y-109516723D01*
X157437022Y-109306286D01*
X157298197Y-109115210D01*
X157131190Y-108948203D01*
X157096552Y-108923037D01*
X157053887Y-108867709D01*
X157047908Y-108798095D01*
X157080513Y-108736300D01*
X157096553Y-108722402D01*
X157131190Y-108697237D01*
X157298197Y-108530230D01*
X157437023Y-108339153D01*
X157544248Y-108128712D01*
X157617233Y-107904088D01*
X157630078Y-107822989D01*
X157654180Y-107670817D01*
X157654180Y-107434622D01*
X157617233Y-107201351D01*
X157583369Y-107097132D01*
X157544248Y-106976728D01*
X157544246Y-106976725D01*
X157544246Y-106976723D01*
X157487682Y-106865711D01*
X157437023Y-106766287D01*
X157298197Y-106575210D01*
X157131190Y-106408203D01*
X157096552Y-106383037D01*
X157053887Y-106327709D01*
X157047908Y-106258095D01*
X157080513Y-106196300D01*
X157096553Y-106182402D01*
X157131190Y-106157237D01*
X157298197Y-105990230D01*
X157437023Y-105799153D01*
X157544248Y-105588712D01*
X157617233Y-105364088D01*
X157632756Y-105266079D01*
X157654180Y-105130817D01*
X157654180Y-104894622D01*
X157617233Y-104661351D01*
X157544246Y-104436723D01*
X157487682Y-104325711D01*
X157437023Y-104226287D01*
X157298197Y-104035210D01*
X157131190Y-103868203D01*
X157096552Y-103843037D01*
X157053887Y-103787709D01*
X157047908Y-103718095D01*
X157080513Y-103656300D01*
X157096553Y-103642402D01*
X157131190Y-103617237D01*
X157298197Y-103450230D01*
X157437023Y-103259153D01*
X157544248Y-103048712D01*
X157617233Y-102824088D01*
X157635900Y-102706230D01*
X157654180Y-102590817D01*
X157654180Y-102354622D01*
X157617233Y-102121351D01*
X157577212Y-101998181D01*
X157544248Y-101896728D01*
X157544246Y-101896725D01*
X157544246Y-101896723D01*
X157474958Y-101760739D01*
X157437023Y-101686287D01*
X157298197Y-101495210D01*
X157131190Y-101328203D01*
X157096552Y-101303037D01*
X157053887Y-101247709D01*
X157047908Y-101178095D01*
X157080513Y-101116300D01*
X157096553Y-101102402D01*
X157131190Y-101077237D01*
X157298197Y-100910230D01*
X157437023Y-100719153D01*
X157544248Y-100508712D01*
X157617233Y-100284088D01*
X157627596Y-100218657D01*
X157654180Y-100050817D01*
X157654180Y-99814622D01*
X157617233Y-99581351D01*
X157563344Y-99415500D01*
X157544248Y-99356728D01*
X157544246Y-99356725D01*
X157544246Y-99356723D01*
X157437022Y-99146286D01*
X157430589Y-99137432D01*
X157298197Y-98955210D01*
X157131190Y-98788203D01*
X157096552Y-98763037D01*
X157053887Y-98707709D01*
X157047908Y-98638095D01*
X157080513Y-98576300D01*
X157096553Y-98562402D01*
X157131190Y-98537237D01*
X157298197Y-98370230D01*
X157437023Y-98179153D01*
X157544248Y-97968712D01*
X157617233Y-97744088D01*
X157634961Y-97632160D01*
X157654180Y-97510817D01*
X157654180Y-97274622D01*
X157617233Y-97041351D01*
X157558210Y-96859699D01*
X157544248Y-96816728D01*
X157544246Y-96816725D01*
X157544246Y-96816723D01*
X157437022Y-96606286D01*
X157298197Y-96415210D01*
X157131190Y-96248203D01*
X157096552Y-96223037D01*
X157053887Y-96167709D01*
X157047908Y-96098095D01*
X157080513Y-96036300D01*
X157096553Y-96022402D01*
X157097093Y-96022010D01*
X157131190Y-95997237D01*
X157298197Y-95830230D01*
X157437023Y-95639153D01*
X157544248Y-95428712D01*
X157617233Y-95204088D01*
X157635302Y-95090006D01*
X157654180Y-94970817D01*
X157654180Y-94734622D01*
X157617233Y-94501351D01*
X157544246Y-94276723D01*
X157437022Y-94066286D01*
X157298197Y-93875210D01*
X157131190Y-93708203D01*
X157096552Y-93683037D01*
X157053887Y-93627709D01*
X157047908Y-93558095D01*
X157080513Y-93496300D01*
X157096553Y-93482402D01*
X157131190Y-93457237D01*
X157298197Y-93290230D01*
X157437023Y-93099153D01*
X157544248Y-92888712D01*
X157617233Y-92664088D01*
X157624671Y-92617127D01*
X157654180Y-92430817D01*
X157654180Y-92194622D01*
X157617233Y-91961351D01*
X157544246Y-91736723D01*
X157437022Y-91526286D01*
X157385714Y-91455667D01*
X157298197Y-91335210D01*
X157131190Y-91168203D01*
X157096552Y-91143037D01*
X157053887Y-91087709D01*
X157047908Y-91018095D01*
X157080513Y-90956300D01*
X157096553Y-90942402D01*
X157131190Y-90917237D01*
X157298197Y-90750230D01*
X157437023Y-90559153D01*
X157544248Y-90348712D01*
X157617233Y-90124088D01*
X157654180Y-89890817D01*
X157654180Y-89654622D01*
X157617233Y-89421351D01*
X157544246Y-89196723D01*
X157437022Y-88986286D01*
X157298197Y-88795210D01*
X157131190Y-88628203D01*
X157096552Y-88603037D01*
X157053887Y-88547709D01*
X157047908Y-88478095D01*
X157080513Y-88416300D01*
X157096553Y-88402402D01*
X157131190Y-88377237D01*
X157298197Y-88210230D01*
X157437023Y-88019153D01*
X157544248Y-87808712D01*
X157617233Y-87584088D01*
X157619637Y-87568912D01*
X157654180Y-87350817D01*
X157654180Y-87114622D01*
X157617233Y-86881351D01*
X157544246Y-86656723D01*
X157487682Y-86545711D01*
X157437023Y-86446287D01*
X157298197Y-86255210D01*
X157131190Y-86088203D01*
X157096552Y-86063037D01*
X157053887Y-86007709D01*
X157047908Y-85938095D01*
X157080513Y-85876300D01*
X157096553Y-85862402D01*
X157131190Y-85837237D01*
X157298197Y-85670230D01*
X157437023Y-85479153D01*
X157544248Y-85268712D01*
X157617233Y-85044088D01*
X157624216Y-85000000D01*
X157639556Y-84903149D01*
X159050000Y-84903149D01*
X159052899Y-84939989D01*
X159052900Y-84939995D01*
X159098716Y-85097693D01*
X159098717Y-85097696D01*
X159182314Y-85239052D01*
X159182321Y-85239061D01*
X159298438Y-85355178D01*
X159298447Y-85355185D01*
X159439801Y-85438781D01*
X159597514Y-85484600D01*
X159597511Y-85484600D01*
X159599998Y-85484795D01*
X159600000Y-85484795D01*
X159600000Y-84500000D01*
X159050000Y-84500000D01*
X159050000Y-84903149D01*
X157639556Y-84903149D01*
X157654180Y-84810817D01*
X157654180Y-84574622D01*
X157637298Y-84468036D01*
X157617233Y-84341351D01*
X157544246Y-84116723D01*
X157437022Y-83906286D01*
X157298197Y-83715210D01*
X157131190Y-83548203D01*
X157096552Y-83523037D01*
X157053887Y-83467709D01*
X157047908Y-83398095D01*
X157080513Y-83336300D01*
X157096553Y-83322402D01*
X157100304Y-83319677D01*
X157131190Y-83297237D01*
X157298197Y-83130230D01*
X157437023Y-82939153D01*
X157544248Y-82728712D01*
X157557643Y-82687486D01*
X158700001Y-82687486D01*
X158710494Y-82790197D01*
X158765641Y-82956619D01*
X158765643Y-82956624D01*
X158857684Y-83105845D01*
X158981654Y-83229815D01*
X159043122Y-83267729D01*
X159089846Y-83319677D01*
X159101069Y-83388640D01*
X159097102Y-83407862D01*
X159052899Y-83560010D01*
X159050000Y-83596850D01*
X159050000Y-84000000D01*
X159600000Y-84000000D01*
X159600000Y-83517500D01*
X159586319Y-83503819D01*
X159552834Y-83442496D01*
X159550000Y-83416138D01*
X159550000Y-82437500D01*
X158700001Y-82437500D01*
X158700001Y-82687486D01*
X157557643Y-82687486D01*
X157617233Y-82504088D01*
X157638987Y-82366740D01*
X157654180Y-82270817D01*
X157654180Y-82034622D01*
X157617233Y-81801351D01*
X157580239Y-81687498D01*
X157544248Y-81576728D01*
X157544246Y-81576725D01*
X157544246Y-81576723D01*
X157487682Y-81465711D01*
X157437023Y-81366287D01*
X157298197Y-81175210D01*
X157131190Y-81008203D01*
X157096552Y-80983037D01*
X157053887Y-80927709D01*
X157047908Y-80858095D01*
X157080513Y-80796300D01*
X157096553Y-80782402D01*
X157131190Y-80757237D01*
X157298197Y-80590230D01*
X157425993Y-80414333D01*
X157481323Y-80371669D01*
X157526311Y-80363220D01*
X158573914Y-80363220D01*
X158640953Y-80382905D01*
X158686708Y-80435709D01*
X158691619Y-80448213D01*
X158715186Y-80519334D01*
X158807288Y-80668656D01*
X158931344Y-80792712D01*
X159037347Y-80858095D01*
X159071117Y-80878924D01*
X159117842Y-80930872D01*
X159129065Y-80999834D01*
X159101222Y-81063917D01*
X159071118Y-81090001D01*
X158981659Y-81145180D01*
X158981655Y-81145183D01*
X158857684Y-81269154D01*
X158765643Y-81418375D01*
X158765641Y-81418380D01*
X158710494Y-81584802D01*
X158710493Y-81584809D01*
X158700000Y-81687513D01*
X158700000Y-81937500D01*
X159676000Y-81937500D01*
X159743039Y-81957185D01*
X159788794Y-82009989D01*
X159800000Y-82061500D01*
X159800000Y-82187500D01*
X159926000Y-82187500D01*
X159993039Y-82207185D01*
X160038794Y-82259989D01*
X160050000Y-82311500D01*
X160050000Y-82882500D01*
X160063681Y-82896181D01*
X160097166Y-82957504D01*
X160100000Y-82983862D01*
X160100000Y-84000000D01*
X160650000Y-84000000D01*
X160650000Y-83596865D01*
X160649999Y-83596850D01*
X160647100Y-83560010D01*
X160647099Y-83560004D01*
X160601283Y-83402306D01*
X160601281Y-83402301D01*
X160592341Y-83387184D01*
X160586060Y-83362429D01*
X160575972Y-83338968D01*
X160577611Y-83329129D01*
X160575158Y-83319460D01*
X160583258Y-83295236D01*
X160587456Y-83270049D01*
X160594701Y-83261022D01*
X160597318Y-83253198D01*
X160607636Y-83244907D01*
X160614574Y-83236262D01*
X160613236Y-83234924D01*
X160711964Y-83136195D01*
X160773287Y-83102710D01*
X160842979Y-83107694D01*
X160887327Y-83136195D01*
X160963181Y-83212049D01*
X160996666Y-83273372D01*
X160999500Y-83299730D01*
X160999500Y-83380170D01*
X160994576Y-83414765D01*
X160952402Y-83559926D01*
X160952401Y-83559932D01*
X160949500Y-83596798D01*
X160949500Y-84763000D01*
X160929815Y-84830039D01*
X160877011Y-84875794D01*
X160825500Y-84887000D01*
X160774000Y-84887000D01*
X160706961Y-84867315D01*
X160661206Y-84814511D01*
X160650000Y-84763000D01*
X160650000Y-84500000D01*
X160100000Y-84500000D01*
X160100000Y-85155684D01*
X160082733Y-85218804D01*
X160048254Y-85277105D01*
X160048254Y-85277106D01*
X160002402Y-85434926D01*
X160002401Y-85434932D01*
X159999500Y-85471798D01*
X159999500Y-86778201D01*
X160002401Y-86815067D01*
X160002402Y-86815073D01*
X160044576Y-86960233D01*
X160049500Y-86994828D01*
X160049500Y-87055342D01*
X160040062Y-87102790D01*
X160028342Y-87131087D01*
X160028341Y-87131090D01*
X160028340Y-87131093D01*
X159999500Y-87276079D01*
X159999500Y-87276082D01*
X159999500Y-101323918D01*
X159999500Y-101323920D01*
X159999499Y-101323920D01*
X160028340Y-101468907D01*
X160028343Y-101468917D01*
X160084912Y-101605488D01*
X160084920Y-101605502D01*
X160114652Y-101649998D01*
X160114653Y-101650001D01*
X160114654Y-101650001D01*
X160153935Y-101708791D01*
X160167049Y-101728417D01*
X161806584Y-103367952D01*
X161806589Y-103367956D01*
X161853615Y-103399377D01*
X161853617Y-103399378D01*
X161853619Y-103399379D01*
X161929505Y-103450084D01*
X161929506Y-103450084D01*
X161929507Y-103450085D01*
X161929862Y-103450232D01*
X162066087Y-103506658D01*
X162066091Y-103506658D01*
X162066092Y-103506659D01*
X162211079Y-103535500D01*
X162211082Y-103535500D01*
X162211083Y-103535500D01*
X162358918Y-103535500D01*
X162760129Y-103535500D01*
X162827168Y-103555185D01*
X162870613Y-103603205D01*
X162877762Y-103617234D01*
X162881132Y-103623849D01*
X163029201Y-103827649D01*
X163029205Y-103827654D01*
X163207345Y-104005794D01*
X163207350Y-104005798D01*
X163255114Y-104040500D01*
X163411155Y-104153870D01*
X163553280Y-104226286D01*
X163635616Y-104268239D01*
X163635618Y-104268239D01*
X163635621Y-104268241D01*
X163875215Y-104346090D01*
X164124038Y-104385500D01*
X164124039Y-104385500D01*
X164375961Y-104385500D01*
X164375962Y-104385500D01*
X164624785Y-104346090D01*
X164864379Y-104268241D01*
X165088845Y-104153870D01*
X165292656Y-104005793D01*
X165470793Y-103827656D01*
X165470793Y-103827655D01*
X165474238Y-103824211D01*
X165475312Y-103825285D01*
X165528180Y-103790775D01*
X165563962Y-103785500D01*
X170813542Y-103785500D01*
X170832870Y-103781655D01*
X170910188Y-103766275D01*
X171006836Y-103747051D01*
X171060165Y-103724961D01*
X171188914Y-103671632D01*
X171352782Y-103562139D01*
X171492139Y-103422782D01*
X171492139Y-103422780D01*
X171502347Y-103412573D01*
X171502349Y-103412570D01*
X172328101Y-102586818D01*
X172389424Y-102553333D01*
X172415782Y-102550499D01*
X173850002Y-102550499D01*
X173850008Y-102550499D01*
X173952797Y-102539999D01*
X174119334Y-102484814D01*
X174268656Y-102392712D01*
X174392712Y-102268656D01*
X174484814Y-102119334D01*
X174539999Y-101952797D01*
X174550500Y-101850009D01*
X174550499Y-99649992D01*
X174539999Y-99547203D01*
X174484814Y-99380666D01*
X174392712Y-99231344D01*
X174268656Y-99107288D01*
X174119334Y-99015186D01*
X173952797Y-98960001D01*
X173952795Y-98960000D01*
X173850010Y-98949500D01*
X171649998Y-98949500D01*
X171649981Y-98949501D01*
X171547203Y-98960000D01*
X171547200Y-98960001D01*
X171380668Y-99015185D01*
X171380663Y-99015187D01*
X171231342Y-99107289D01*
X171107289Y-99231342D01*
X171015187Y-99380663D01*
X171015186Y-99380666D01*
X170960001Y-99547203D01*
X170960001Y-99547204D01*
X170960000Y-99547204D01*
X170949500Y-99649983D01*
X170949500Y-101084216D01*
X170929815Y-101151255D01*
X170913181Y-101171897D01*
X170761161Y-101323918D01*
X170479578Y-101605502D01*
X170336899Y-101748181D01*
X170275576Y-101781666D01*
X170249218Y-101784500D01*
X165563962Y-101784500D01*
X165496923Y-101764815D01*
X165474650Y-101745376D01*
X165474238Y-101745789D01*
X165292654Y-101564205D01*
X165292649Y-101564201D01*
X165088848Y-101416132D01*
X165088847Y-101416131D01*
X165088845Y-101416130D01*
X164973363Y-101357289D01*
X164864383Y-101301760D01*
X164624785Y-101223910D01*
X164375962Y-101184500D01*
X164124038Y-101184500D01*
X164029326Y-101199501D01*
X163875214Y-101223910D01*
X163635616Y-101301760D01*
X163411151Y-101416132D01*
X163207350Y-101564201D01*
X163207345Y-101564205D01*
X163029205Y-101742345D01*
X163029201Y-101742350D01*
X162881132Y-101946150D01*
X162877747Y-101952795D01*
X162870613Y-101966794D01*
X162822641Y-102017590D01*
X162760129Y-102034500D01*
X162647230Y-102034500D01*
X162580191Y-102014815D01*
X162559549Y-101998181D01*
X161536819Y-100975451D01*
X161503334Y-100914128D01*
X161500500Y-100887770D01*
X161500500Y-91724982D01*
X162649500Y-91724982D01*
X162649500Y-93525017D01*
X162660000Y-93627796D01*
X162686645Y-93708204D01*
X162715186Y-93794335D01*
X162807288Y-93943656D01*
X162931344Y-94067712D01*
X163080665Y-94159814D01*
X163247202Y-94214999D01*
X163349990Y-94225500D01*
X163349995Y-94225500D01*
X165150005Y-94225500D01*
X165150010Y-94225500D01*
X165252798Y-94214999D01*
X165419335Y-94159814D01*
X165568656Y-94067712D01*
X165692712Y-93943656D01*
X165775521Y-93809401D01*
X165827467Y-93762679D01*
X165881058Y-93750500D01*
X169364218Y-93750500D01*
X169431257Y-93770185D01*
X169451899Y-93786819D01*
X170937388Y-95272309D01*
X170970873Y-95333632D01*
X170972646Y-95376175D01*
X170949501Y-95551978D01*
X170949500Y-95551995D01*
X170949500Y-95788004D01*
X170949501Y-95788020D01*
X170980306Y-96022010D01*
X171041394Y-96249993D01*
X171131714Y-96468045D01*
X171131719Y-96468056D01*
X171202677Y-96590957D01*
X171249727Y-96672450D01*
X171249729Y-96672453D01*
X171249730Y-96672454D01*
X171393406Y-96859697D01*
X171393412Y-96859704D01*
X171560295Y-97026587D01*
X171560302Y-97026593D01*
X171670306Y-97111001D01*
X171747550Y-97170273D01*
X171878918Y-97246118D01*
X171951943Y-97288280D01*
X171951948Y-97288282D01*
X171951951Y-97288284D01*
X172170007Y-97378606D01*
X172397986Y-97439693D01*
X172631989Y-97470500D01*
X172631996Y-97470500D01*
X172868004Y-97470500D01*
X172868011Y-97470500D01*
X173102014Y-97439693D01*
X173329993Y-97378606D01*
X173548049Y-97288284D01*
X173752450Y-97170273D01*
X173939699Y-97026592D01*
X174106592Y-96859699D01*
X174250273Y-96672450D01*
X174368284Y-96468049D01*
X174458606Y-96249993D01*
X174519693Y-96022014D01*
X174550500Y-95788011D01*
X174550500Y-95551989D01*
X174519693Y-95317986D01*
X174458606Y-95090007D01*
X174368284Y-94871951D01*
X174368282Y-94871948D01*
X174368280Y-94871943D01*
X174326118Y-94798918D01*
X174250273Y-94667550D01*
X174106592Y-94480301D01*
X174106587Y-94480295D01*
X173939704Y-94313412D01*
X173939697Y-94313406D01*
X173752454Y-94169730D01*
X173752453Y-94169729D01*
X173752450Y-94169727D01*
X173670957Y-94122677D01*
X173548056Y-94051719D01*
X173548045Y-94051714D01*
X173329993Y-93961394D01*
X173102010Y-93900306D01*
X172868020Y-93869501D01*
X172868017Y-93869500D01*
X172868011Y-93869500D01*
X172631989Y-93869500D01*
X172631983Y-93869500D01*
X172631978Y-93869501D01*
X172456175Y-93892646D01*
X172387140Y-93881880D01*
X172352309Y-93857388D01*
X170614209Y-92119289D01*
X170614206Y-92119285D01*
X170614206Y-92119286D01*
X170607139Y-92112219D01*
X170607139Y-92112218D01*
X170467782Y-91972861D01*
X170467781Y-91972860D01*
X170467780Y-91972859D01*
X170303920Y-91863371D01*
X170303907Y-91863364D01*
X170172714Y-91809023D01*
X170172713Y-91809023D01*
X170121836Y-91787949D01*
X170121828Y-91787947D01*
X170025188Y-91768724D01*
X169928544Y-91749500D01*
X169928541Y-91749500D01*
X165964981Y-91749500D01*
X165897942Y-91729815D01*
X165852187Y-91677011D01*
X165841623Y-91638100D01*
X165839999Y-91622205D01*
X165839999Y-91622202D01*
X165784814Y-91455665D01*
X165692712Y-91306344D01*
X165568656Y-91182288D01*
X165419335Y-91090186D01*
X165252798Y-91035001D01*
X165252796Y-91035000D01*
X165150017Y-91024500D01*
X165150010Y-91024500D01*
X163349990Y-91024500D01*
X163349982Y-91024500D01*
X163247203Y-91035000D01*
X163247202Y-91035001D01*
X163223908Y-91042720D01*
X163080667Y-91090185D01*
X163080662Y-91090187D01*
X162931342Y-91182289D01*
X162807289Y-91306342D01*
X162715187Y-91455662D01*
X162715186Y-91455665D01*
X162660001Y-91622202D01*
X162660001Y-91622203D01*
X162660000Y-91622203D01*
X162649500Y-91724982D01*
X161500500Y-91724982D01*
X161500500Y-87594659D01*
X161509939Y-87547206D01*
X161521659Y-87518912D01*
X161550500Y-87373917D01*
X161550500Y-87226082D01*
X161550500Y-86994828D01*
X161555424Y-86960233D01*
X161597597Y-86815073D01*
X161597598Y-86815067D01*
X161600499Y-86778201D01*
X161600500Y-86778194D01*
X161600500Y-85612000D01*
X161620185Y-85544961D01*
X161672989Y-85499206D01*
X161724500Y-85488000D01*
X161965686Y-85488000D01*
X161965694Y-85488000D01*
X162002569Y-85485098D01*
X162002571Y-85485097D01*
X162002573Y-85485097D01*
X162048347Y-85471798D01*
X162160398Y-85439244D01*
X162301865Y-85355581D01*
X162418081Y-85239365D01*
X162501744Y-85097898D01*
X162547598Y-84940069D01*
X162550500Y-84903194D01*
X162550500Y-83596806D01*
X162547598Y-83559931D01*
X162547597Y-83559926D01*
X162505424Y-83414765D01*
X162500500Y-83380170D01*
X162500500Y-83372297D01*
X162520185Y-83305258D01*
X162559403Y-83266758D01*
X162618656Y-83230212D01*
X162742712Y-83106156D01*
X162834814Y-82956834D01*
X162889999Y-82790297D01*
X162900500Y-82687509D01*
X162900499Y-81687492D01*
X162900225Y-81684814D01*
X162889999Y-81584703D01*
X162889998Y-81584700D01*
X162851545Y-81468657D01*
X162834814Y-81418166D01*
X162742712Y-81268844D01*
X162618656Y-81144788D01*
X162618655Y-81144787D01*
X162559402Y-81108239D01*
X162512678Y-81056291D01*
X162500500Y-81002701D01*
X162500500Y-80903957D01*
X162520185Y-80836918D01*
X162559407Y-80798416D01*
X162568656Y-80792712D01*
X162692712Y-80668656D01*
X162784814Y-80519334D01*
X162839999Y-80352797D01*
X162850500Y-80250009D01*
X162850499Y-79249992D01*
X162839999Y-79147203D01*
X162784814Y-78980666D01*
X162692712Y-78831344D01*
X162568656Y-78707288D01*
X162451795Y-78635208D01*
X162419336Y-78615187D01*
X162419331Y-78615185D01*
X162417862Y-78614698D01*
X162252797Y-78560001D01*
X162252795Y-78560000D01*
X162150010Y-78549500D01*
X161349998Y-78549500D01*
X161349980Y-78549501D01*
X161247203Y-78560000D01*
X161247200Y-78560001D01*
X161080668Y-78615185D01*
X161080663Y-78615187D01*
X160931342Y-78707289D01*
X160837681Y-78800951D01*
X160776358Y-78834436D01*
X160706666Y-78829452D01*
X160662319Y-78800951D01*
X160568657Y-78707289D01*
X160568656Y-78707288D01*
X160451795Y-78635208D01*
X160419336Y-78615187D01*
X160419331Y-78615185D01*
X160417862Y-78614698D01*
X160252797Y-78560001D01*
X160252795Y-78560000D01*
X160150010Y-78549500D01*
X159349998Y-78549500D01*
X159349980Y-78549501D01*
X159247203Y-78560000D01*
X159247200Y-78560001D01*
X159080668Y-78615185D01*
X159080663Y-78615187D01*
X158931342Y-78707289D01*
X158812731Y-78825901D01*
X158751408Y-78859386D01*
X158725050Y-78862220D01*
X157526311Y-78862220D01*
X157459272Y-78842535D01*
X157425993Y-78811106D01*
X157373038Y-78738220D01*
X157298197Y-78635210D01*
X157131190Y-78468203D01*
X157096552Y-78443037D01*
X157053887Y-78387709D01*
X157047908Y-78318095D01*
X157080513Y-78256300D01*
X157096553Y-78242402D01*
X157131190Y-78217237D01*
X157298197Y-78050230D01*
X157437023Y-77859153D01*
X157544248Y-77648712D01*
X157617233Y-77424088D01*
X157654180Y-77190817D01*
X157654180Y-76954622D01*
X157617233Y-76721351D01*
X157575435Y-76592712D01*
X157544248Y-76496728D01*
X157544246Y-76496725D01*
X157544246Y-76496723D01*
X157487682Y-76385711D01*
X157437023Y-76286287D01*
X157298197Y-76095210D01*
X157131190Y-75928203D01*
X157096552Y-75903037D01*
X157053887Y-75847709D01*
X157047908Y-75778095D01*
X157080513Y-75716300D01*
X157096553Y-75702402D01*
X157131190Y-75677237D01*
X157298197Y-75510230D01*
X157437023Y-75319153D01*
X157544248Y-75108712D01*
X157617233Y-74884088D01*
X157654180Y-74650817D01*
X157654180Y-74414622D01*
X157617233Y-74181351D01*
X157583369Y-74077132D01*
X157544248Y-73956728D01*
X157544246Y-73956725D01*
X157544246Y-73956723D01*
X157437022Y-73746286D01*
X157437020Y-73746283D01*
X157347129Y-73622559D01*
X157323650Y-73556755D01*
X157339475Y-73488701D01*
X157388424Y-73441130D01*
X157388226Y-73440767D01*
X157389531Y-73440054D01*
X157389581Y-73440006D01*
X157389791Y-73439912D01*
X157396006Y-73436517D01*
X157396011Y-73436516D01*
X157511226Y-73350266D01*
X157597476Y-73235051D01*
X157647771Y-73100203D01*
X157654180Y-73040593D01*
X157654179Y-70944848D01*
X157647771Y-70885237D01*
X157597476Y-70750389D01*
X157597475Y-70750388D01*
X157597473Y-70750384D01*
X157511227Y-70635175D01*
X157511224Y-70635172D01*
X157396015Y-70548926D01*
X157396008Y-70548922D01*
X157261162Y-70498628D01*
X157261163Y-70498628D01*
X157201563Y-70492221D01*
X157201561Y-70492220D01*
X157201553Y-70492220D01*
X157201544Y-70492220D01*
X155105809Y-70492220D01*
X155105803Y-70492221D01*
X155046196Y-70498628D01*
X154911351Y-70548922D01*
X154911344Y-70548926D01*
X154796135Y-70635172D01*
X154796132Y-70635175D01*
X154709886Y-70750384D01*
X154709882Y-70750391D01*
X154659588Y-70885237D01*
X154653181Y-70944836D01*
X154653181Y-70944843D01*
X154653180Y-70944855D01*
X132254179Y-70944855D01*
X132254179Y-70944848D01*
X132247771Y-70885237D01*
X132197476Y-70750389D01*
X132197475Y-70750388D01*
X132197473Y-70750384D01*
X132111227Y-70635175D01*
X132111224Y-70635172D01*
X131996015Y-70548926D01*
X131996008Y-70548922D01*
X131861162Y-70498628D01*
X131861163Y-70498628D01*
X131801563Y-70492221D01*
X131801561Y-70492220D01*
X131801553Y-70492220D01*
X131801544Y-70492220D01*
X129705809Y-70492220D01*
X129705803Y-70492221D01*
X129646196Y-70498628D01*
X129511351Y-70548922D01*
X129511344Y-70548926D01*
X129396135Y-70635172D01*
X129396132Y-70635175D01*
X129309886Y-70750384D01*
X129309882Y-70750391D01*
X129259588Y-70885237D01*
X129253181Y-70944836D01*
X129253181Y-70944843D01*
X129253180Y-70944855D01*
X129253180Y-71118220D01*
X129233495Y-71185259D01*
X129180691Y-71231014D01*
X129129180Y-71242220D01*
X124433360Y-71242220D01*
X124288372Y-71271060D01*
X124288362Y-71271063D01*
X124151789Y-71327633D01*
X124151787Y-71327634D01*
X124110925Y-71354938D01*
X124110923Y-71354939D01*
X124028869Y-71409763D01*
X124028864Y-71409767D01*
X121475451Y-73963181D01*
X121414128Y-73996666D01*
X121387770Y-73999500D01*
X114374500Y-73999500D01*
X114307461Y-73979815D01*
X114261706Y-73927011D01*
X114250500Y-73875500D01*
X114250500Y-73449995D01*
X114250499Y-73449982D01*
X114239999Y-73347203D01*
X114202837Y-73235055D01*
X114184814Y-73180665D01*
X114092712Y-73031344D01*
X113968656Y-72907288D01*
X113819335Y-72815186D01*
X113652798Y-72760001D01*
X113652796Y-72760000D01*
X113550017Y-72749500D01*
X113550010Y-72749500D01*
X110949990Y-72749500D01*
X110949982Y-72749500D01*
X110847203Y-72760000D01*
X110847202Y-72760001D01*
X110764669Y-72787349D01*
X110680667Y-72815185D01*
X110680662Y-72815187D01*
X110531342Y-72907289D01*
X110407289Y-73031342D01*
X110315187Y-73180662D01*
X110315186Y-73180665D01*
X110260001Y-73347202D01*
X110260001Y-73347203D01*
X110260000Y-73347203D01*
X110249500Y-73449982D01*
X99814500Y-73449982D01*
X99814500Y-68950500D01*
X99834185Y-68883461D01*
X99886989Y-68837706D01*
X99938500Y-68826500D01*
X179207500Y-68826500D01*
X179274539Y-68846185D01*
G37*
%TD.AperFunction*%
%TD*%
M02*
