%TF.GenerationSoftware,KiCad,Pcbnew,10.0.5*%
%TF.CreationDate,2026-08-22T18:41:35+02:00*%
%TF.ProjectId,ESP32_Motor,45535033-325f-44d6-9f74-6f722e6b6963,rev?*%
%TF.SameCoordinates,Original*%
%TF.FileFunction,Legend,Top*%
%TF.FilePolarity,Positive*%
%FSLAX46Y46*%
G04 Gerber Fmt 4.6, Leading zero omitted, Abs format (unit mm)*
G04 Created by KiCad (PCBNEW 10.0.5) date 2026-08-22 18:41:35*
%MOMM*%
%LPD*%
G01*
G04 APERTURE LIST*
%ADD10C,0.100000*%
%ADD11C,0.250000*%
%ADD12C,0.150000*%
%ADD13C,0.120000*%
G04 APERTURE END LIST*
D10*
X100303884Y-93991466D02*
X101065789Y-93991466D01*
X100684836Y-94372419D02*
X100684836Y-93610514D01*
X100803884Y-99491466D02*
X101565789Y-99491466D01*
X178303884Y-95991466D02*
X179065789Y-95991466D01*
X178684836Y-96372419D02*
X178684836Y-95610514D01*
X178383884Y-100681466D02*
X179145789Y-100681466D01*
D11*
X165640663Y-74242238D02*
X165640663Y-72242238D01*
X165640663Y-72242238D02*
X166307330Y-73670809D01*
X166307330Y-73670809D02*
X166973996Y-72242238D01*
X166973996Y-72242238D02*
X166973996Y-74242238D01*
X168212091Y-74242238D02*
X168021615Y-74147000D01*
X168021615Y-74147000D02*
X167926377Y-74051761D01*
X167926377Y-74051761D02*
X167831139Y-73861285D01*
X167831139Y-73861285D02*
X167831139Y-73289857D01*
X167831139Y-73289857D02*
X167926377Y-73099380D01*
X167926377Y-73099380D02*
X168021615Y-73004142D01*
X168021615Y-73004142D02*
X168212091Y-72908904D01*
X168212091Y-72908904D02*
X168497806Y-72908904D01*
X168497806Y-72908904D02*
X168688282Y-73004142D01*
X168688282Y-73004142D02*
X168783520Y-73099380D01*
X168783520Y-73099380D02*
X168878758Y-73289857D01*
X168878758Y-73289857D02*
X168878758Y-73861285D01*
X168878758Y-73861285D02*
X168783520Y-74051761D01*
X168783520Y-74051761D02*
X168688282Y-74147000D01*
X168688282Y-74147000D02*
X168497806Y-74242238D01*
X168497806Y-74242238D02*
X168212091Y-74242238D01*
X169450187Y-72908904D02*
X170212091Y-72908904D01*
X169735901Y-72242238D02*
X169735901Y-73956523D01*
X169735901Y-73956523D02*
X169831139Y-74147000D01*
X169831139Y-74147000D02*
X170021615Y-74242238D01*
X170021615Y-74242238D02*
X170212091Y-74242238D01*
X171164472Y-74242238D02*
X170973996Y-74147000D01*
X170973996Y-74147000D02*
X170878758Y-74051761D01*
X170878758Y-74051761D02*
X170783520Y-73861285D01*
X170783520Y-73861285D02*
X170783520Y-73289857D01*
X170783520Y-73289857D02*
X170878758Y-73099380D01*
X170878758Y-73099380D02*
X170973996Y-73004142D01*
X170973996Y-73004142D02*
X171164472Y-72908904D01*
X171164472Y-72908904D02*
X171450187Y-72908904D01*
X171450187Y-72908904D02*
X171640663Y-73004142D01*
X171640663Y-73004142D02*
X171735901Y-73099380D01*
X171735901Y-73099380D02*
X171831139Y-73289857D01*
X171831139Y-73289857D02*
X171831139Y-73861285D01*
X171831139Y-73861285D02*
X171735901Y-74051761D01*
X171735901Y-74051761D02*
X171640663Y-74147000D01*
X171640663Y-74147000D02*
X171450187Y-74242238D01*
X171450187Y-74242238D02*
X171164472Y-74242238D01*
X172688282Y-74242238D02*
X172688282Y-72908904D01*
X172688282Y-73289857D02*
X172783520Y-73099380D01*
X172783520Y-73099380D02*
X172878758Y-73004142D01*
X172878758Y-73004142D02*
X173069234Y-72908904D01*
X173069234Y-72908904D02*
X173259711Y-72908904D01*
D12*
X162377319Y-98443094D02*
X161377319Y-98443094D01*
X161377319Y-98443094D02*
X161377319Y-98204999D01*
X161377319Y-98204999D02*
X161424938Y-98062142D01*
X161424938Y-98062142D02*
X161520176Y-97966904D01*
X161520176Y-97966904D02*
X161615414Y-97919285D01*
X161615414Y-97919285D02*
X161805890Y-97871666D01*
X161805890Y-97871666D02*
X161948747Y-97871666D01*
X161948747Y-97871666D02*
X162139223Y-97919285D01*
X162139223Y-97919285D02*
X162234461Y-97966904D01*
X162234461Y-97966904D02*
X162329700Y-98062142D01*
X162329700Y-98062142D02*
X162377319Y-98204999D01*
X162377319Y-98204999D02*
X162377319Y-98443094D01*
X161472557Y-97490713D02*
X161424938Y-97443094D01*
X161424938Y-97443094D02*
X161377319Y-97347856D01*
X161377319Y-97347856D02*
X161377319Y-97109761D01*
X161377319Y-97109761D02*
X161424938Y-97014523D01*
X161424938Y-97014523D02*
X161472557Y-96966904D01*
X161472557Y-96966904D02*
X161567795Y-96919285D01*
X161567795Y-96919285D02*
X161663033Y-96919285D01*
X161663033Y-96919285D02*
X161805890Y-96966904D01*
X161805890Y-96966904D02*
X162377319Y-97538332D01*
X162377319Y-97538332D02*
X162377319Y-96919285D01*
X166804819Y-92886904D02*
X165804819Y-92886904D01*
X166804819Y-92315476D02*
X166233390Y-92744047D01*
X165804819Y-92315476D02*
X166376247Y-92886904D01*
X124470833Y-123984580D02*
X124423214Y-124032200D01*
X124423214Y-124032200D02*
X124280357Y-124079819D01*
X124280357Y-124079819D02*
X124185119Y-124079819D01*
X124185119Y-124079819D02*
X124042262Y-124032200D01*
X124042262Y-124032200D02*
X123947024Y-123936961D01*
X123947024Y-123936961D02*
X123899405Y-123841723D01*
X123899405Y-123841723D02*
X123851786Y-123651247D01*
X123851786Y-123651247D02*
X123851786Y-123508390D01*
X123851786Y-123508390D02*
X123899405Y-123317914D01*
X123899405Y-123317914D02*
X123947024Y-123222676D01*
X123947024Y-123222676D02*
X124042262Y-123127438D01*
X124042262Y-123127438D02*
X124185119Y-123079819D01*
X124185119Y-123079819D02*
X124280357Y-123079819D01*
X124280357Y-123079819D02*
X124423214Y-123127438D01*
X124423214Y-123127438D02*
X124470833Y-123175057D01*
X125375595Y-123079819D02*
X124899405Y-123079819D01*
X124899405Y-123079819D02*
X124851786Y-123556009D01*
X124851786Y-123556009D02*
X124899405Y-123508390D01*
X124899405Y-123508390D02*
X124994643Y-123460771D01*
X124994643Y-123460771D02*
X125232738Y-123460771D01*
X125232738Y-123460771D02*
X125327976Y-123508390D01*
X125327976Y-123508390D02*
X125375595Y-123556009D01*
X125375595Y-123556009D02*
X125423214Y-123651247D01*
X125423214Y-123651247D02*
X125423214Y-123889342D01*
X125423214Y-123889342D02*
X125375595Y-123984580D01*
X125375595Y-123984580D02*
X125327976Y-124032200D01*
X125327976Y-124032200D02*
X125232738Y-124079819D01*
X125232738Y-124079819D02*
X124994643Y-124079819D01*
X124994643Y-124079819D02*
X124899405Y-124032200D01*
X124899405Y-124032200D02*
X124851786Y-123984580D01*
X125404761Y-98490057D02*
X125309523Y-98442438D01*
X125309523Y-98442438D02*
X125214285Y-98347200D01*
X125214285Y-98347200D02*
X125071428Y-98204342D01*
X125071428Y-98204342D02*
X124976190Y-98156723D01*
X124976190Y-98156723D02*
X124880952Y-98156723D01*
X124928571Y-98394819D02*
X124833333Y-98347200D01*
X124833333Y-98347200D02*
X124738095Y-98251961D01*
X124738095Y-98251961D02*
X124690476Y-98061485D01*
X124690476Y-98061485D02*
X124690476Y-97728152D01*
X124690476Y-97728152D02*
X124738095Y-97537676D01*
X124738095Y-97537676D02*
X124833333Y-97442438D01*
X124833333Y-97442438D02*
X124928571Y-97394819D01*
X124928571Y-97394819D02*
X125119047Y-97394819D01*
X125119047Y-97394819D02*
X125214285Y-97442438D01*
X125214285Y-97442438D02*
X125309523Y-97537676D01*
X125309523Y-97537676D02*
X125357142Y-97728152D01*
X125357142Y-97728152D02*
X125357142Y-98061485D01*
X125357142Y-98061485D02*
X125309523Y-98251961D01*
X125309523Y-98251961D02*
X125214285Y-98347200D01*
X125214285Y-98347200D02*
X125119047Y-98394819D01*
X125119047Y-98394819D02*
X124928571Y-98394819D01*
X126309523Y-98394819D02*
X125738095Y-98394819D01*
X126023809Y-98394819D02*
X126023809Y-97394819D01*
X126023809Y-97394819D02*
X125928571Y-97537676D01*
X125928571Y-97537676D02*
X125833333Y-97632914D01*
X125833333Y-97632914D02*
X125738095Y-97680533D01*
X120460833Y-107019580D02*
X120413214Y-107067200D01*
X120413214Y-107067200D02*
X120270357Y-107114819D01*
X120270357Y-107114819D02*
X120175119Y-107114819D01*
X120175119Y-107114819D02*
X120032262Y-107067200D01*
X120032262Y-107067200D02*
X119937024Y-106971961D01*
X119937024Y-106971961D02*
X119889405Y-106876723D01*
X119889405Y-106876723D02*
X119841786Y-106686247D01*
X119841786Y-106686247D02*
X119841786Y-106543390D01*
X119841786Y-106543390D02*
X119889405Y-106352914D01*
X119889405Y-106352914D02*
X119937024Y-106257676D01*
X119937024Y-106257676D02*
X120032262Y-106162438D01*
X120032262Y-106162438D02*
X120175119Y-106114819D01*
X120175119Y-106114819D02*
X120270357Y-106114819D01*
X120270357Y-106114819D02*
X120413214Y-106162438D01*
X120413214Y-106162438D02*
X120460833Y-106210057D01*
X120841786Y-106210057D02*
X120889405Y-106162438D01*
X120889405Y-106162438D02*
X120984643Y-106114819D01*
X120984643Y-106114819D02*
X121222738Y-106114819D01*
X121222738Y-106114819D02*
X121317976Y-106162438D01*
X121317976Y-106162438D02*
X121365595Y-106210057D01*
X121365595Y-106210057D02*
X121413214Y-106305295D01*
X121413214Y-106305295D02*
X121413214Y-106400533D01*
X121413214Y-106400533D02*
X121365595Y-106543390D01*
X121365595Y-106543390D02*
X120794167Y-107114819D01*
X120794167Y-107114819D02*
X121413214Y-107114819D01*
X163654761Y-85550057D02*
X163559523Y-85502438D01*
X163559523Y-85502438D02*
X163464285Y-85407200D01*
X163464285Y-85407200D02*
X163321428Y-85264342D01*
X163321428Y-85264342D02*
X163226190Y-85216723D01*
X163226190Y-85216723D02*
X163130952Y-85216723D01*
X163178571Y-85454819D02*
X163083333Y-85407200D01*
X163083333Y-85407200D02*
X162988095Y-85311961D01*
X162988095Y-85311961D02*
X162940476Y-85121485D01*
X162940476Y-85121485D02*
X162940476Y-84788152D01*
X162940476Y-84788152D02*
X162988095Y-84597676D01*
X162988095Y-84597676D02*
X163083333Y-84502438D01*
X163083333Y-84502438D02*
X163178571Y-84454819D01*
X163178571Y-84454819D02*
X163369047Y-84454819D01*
X163369047Y-84454819D02*
X163464285Y-84502438D01*
X163464285Y-84502438D02*
X163559523Y-84597676D01*
X163559523Y-84597676D02*
X163607142Y-84788152D01*
X163607142Y-84788152D02*
X163607142Y-85121485D01*
X163607142Y-85121485D02*
X163559523Y-85311961D01*
X163559523Y-85311961D02*
X163464285Y-85407200D01*
X163464285Y-85407200D02*
X163369047Y-85454819D01*
X163369047Y-85454819D02*
X163178571Y-85454819D01*
X163988095Y-84550057D02*
X164035714Y-84502438D01*
X164035714Y-84502438D02*
X164130952Y-84454819D01*
X164130952Y-84454819D02*
X164369047Y-84454819D01*
X164369047Y-84454819D02*
X164464285Y-84502438D01*
X164464285Y-84502438D02*
X164511904Y-84550057D01*
X164511904Y-84550057D02*
X164559523Y-84645295D01*
X164559523Y-84645295D02*
X164559523Y-84740533D01*
X164559523Y-84740533D02*
X164511904Y-84883390D01*
X164511904Y-84883390D02*
X163940476Y-85454819D01*
X163940476Y-85454819D02*
X164559523Y-85454819D01*
X106916666Y-89704819D02*
X106916666Y-90419104D01*
X106916666Y-90419104D02*
X106869047Y-90561961D01*
X106869047Y-90561961D02*
X106773809Y-90657200D01*
X106773809Y-90657200D02*
X106630952Y-90704819D01*
X106630952Y-90704819D02*
X106535714Y-90704819D01*
X107916666Y-90704819D02*
X107345238Y-90704819D01*
X107630952Y-90704819D02*
X107630952Y-89704819D01*
X107630952Y-89704819D02*
X107535714Y-89847676D01*
X107535714Y-89847676D02*
X107440476Y-89942914D01*
X107440476Y-89942914D02*
X107345238Y-89990533D01*
X172416666Y-90704819D02*
X172416666Y-91419104D01*
X172416666Y-91419104D02*
X172369047Y-91561961D01*
X172369047Y-91561961D02*
X172273809Y-91657200D01*
X172273809Y-91657200D02*
X172130952Y-91704819D01*
X172130952Y-91704819D02*
X172035714Y-91704819D01*
X172845238Y-90800057D02*
X172892857Y-90752438D01*
X172892857Y-90752438D02*
X172988095Y-90704819D01*
X172988095Y-90704819D02*
X173226190Y-90704819D01*
X173226190Y-90704819D02*
X173321428Y-90752438D01*
X173321428Y-90752438D02*
X173369047Y-90800057D01*
X173369047Y-90800057D02*
X173416666Y-90895295D01*
X173416666Y-90895295D02*
X173416666Y-90990533D01*
X173416666Y-90990533D02*
X173369047Y-91133390D01*
X173369047Y-91133390D02*
X172797619Y-91704819D01*
X172797619Y-91704819D02*
X173416666Y-91704819D01*
X120583333Y-110019580D02*
X120535714Y-110067200D01*
X120535714Y-110067200D02*
X120392857Y-110114819D01*
X120392857Y-110114819D02*
X120297619Y-110114819D01*
X120297619Y-110114819D02*
X120154762Y-110067200D01*
X120154762Y-110067200D02*
X120059524Y-109971961D01*
X120059524Y-109971961D02*
X120011905Y-109876723D01*
X120011905Y-109876723D02*
X119964286Y-109686247D01*
X119964286Y-109686247D02*
X119964286Y-109543390D01*
X119964286Y-109543390D02*
X120011905Y-109352914D01*
X120011905Y-109352914D02*
X120059524Y-109257676D01*
X120059524Y-109257676D02*
X120154762Y-109162438D01*
X120154762Y-109162438D02*
X120297619Y-109114819D01*
X120297619Y-109114819D02*
X120392857Y-109114819D01*
X120392857Y-109114819D02*
X120535714Y-109162438D01*
X120535714Y-109162438D02*
X120583333Y-109210057D01*
X120916667Y-109114819D02*
X121535714Y-109114819D01*
X121535714Y-109114819D02*
X121202381Y-109495771D01*
X121202381Y-109495771D02*
X121345238Y-109495771D01*
X121345238Y-109495771D02*
X121440476Y-109543390D01*
X121440476Y-109543390D02*
X121488095Y-109591009D01*
X121488095Y-109591009D02*
X121535714Y-109686247D01*
X121535714Y-109686247D02*
X121535714Y-109924342D01*
X121535714Y-109924342D02*
X121488095Y-110019580D01*
X121488095Y-110019580D02*
X121440476Y-110067200D01*
X121440476Y-110067200D02*
X121345238Y-110114819D01*
X121345238Y-110114819D02*
X121059524Y-110114819D01*
X121059524Y-110114819D02*
X120964286Y-110067200D01*
X120964286Y-110067200D02*
X120916667Y-110019580D01*
X163583333Y-82704819D02*
X163250000Y-82228628D01*
X163011905Y-82704819D02*
X163011905Y-81704819D01*
X163011905Y-81704819D02*
X163392857Y-81704819D01*
X163392857Y-81704819D02*
X163488095Y-81752438D01*
X163488095Y-81752438D02*
X163535714Y-81800057D01*
X163535714Y-81800057D02*
X163583333Y-81895295D01*
X163583333Y-81895295D02*
X163583333Y-82038152D01*
X163583333Y-82038152D02*
X163535714Y-82133390D01*
X163535714Y-82133390D02*
X163488095Y-82181009D01*
X163488095Y-82181009D02*
X163392857Y-82228628D01*
X163392857Y-82228628D02*
X163011905Y-82228628D01*
X164488095Y-81704819D02*
X164011905Y-81704819D01*
X164011905Y-81704819D02*
X163964286Y-82181009D01*
X163964286Y-82181009D02*
X164011905Y-82133390D01*
X164011905Y-82133390D02*
X164107143Y-82085771D01*
X164107143Y-82085771D02*
X164345238Y-82085771D01*
X164345238Y-82085771D02*
X164440476Y-82133390D01*
X164440476Y-82133390D02*
X164488095Y-82181009D01*
X164488095Y-82181009D02*
X164535714Y-82276247D01*
X164535714Y-82276247D02*
X164535714Y-82514342D01*
X164535714Y-82514342D02*
X164488095Y-82609580D01*
X164488095Y-82609580D02*
X164440476Y-82657200D01*
X164440476Y-82657200D02*
X164345238Y-82704819D01*
X164345238Y-82704819D02*
X164107143Y-82704819D01*
X164107143Y-82704819D02*
X164011905Y-82657200D01*
X164011905Y-82657200D02*
X163964286Y-82609580D01*
X163583333Y-80204819D02*
X163250000Y-79728628D01*
X163011905Y-80204819D02*
X163011905Y-79204819D01*
X163011905Y-79204819D02*
X163392857Y-79204819D01*
X163392857Y-79204819D02*
X163488095Y-79252438D01*
X163488095Y-79252438D02*
X163535714Y-79300057D01*
X163535714Y-79300057D02*
X163583333Y-79395295D01*
X163583333Y-79395295D02*
X163583333Y-79538152D01*
X163583333Y-79538152D02*
X163535714Y-79633390D01*
X163535714Y-79633390D02*
X163488095Y-79681009D01*
X163488095Y-79681009D02*
X163392857Y-79728628D01*
X163392857Y-79728628D02*
X163011905Y-79728628D01*
X164440476Y-79538152D02*
X164440476Y-80204819D01*
X164202381Y-79157200D02*
X163964286Y-79871485D01*
X163964286Y-79871485D02*
X164583333Y-79871485D01*
X142988095Y-71204819D02*
X142988095Y-72014342D01*
X142988095Y-72014342D02*
X143035714Y-72109580D01*
X143035714Y-72109580D02*
X143083333Y-72157200D01*
X143083333Y-72157200D02*
X143178571Y-72204819D01*
X143178571Y-72204819D02*
X143369047Y-72204819D01*
X143369047Y-72204819D02*
X143464285Y-72157200D01*
X143464285Y-72157200D02*
X143511904Y-72109580D01*
X143511904Y-72109580D02*
X143559523Y-72014342D01*
X143559523Y-72014342D02*
X143559523Y-71204819D01*
X143988095Y-71300057D02*
X144035714Y-71252438D01*
X144035714Y-71252438D02*
X144130952Y-71204819D01*
X144130952Y-71204819D02*
X144369047Y-71204819D01*
X144369047Y-71204819D02*
X144464285Y-71252438D01*
X144464285Y-71252438D02*
X144511904Y-71300057D01*
X144511904Y-71300057D02*
X144559523Y-71395295D01*
X144559523Y-71395295D02*
X144559523Y-71490533D01*
X144559523Y-71490533D02*
X144511904Y-71633390D01*
X144511904Y-71633390D02*
X143940476Y-72204819D01*
X143940476Y-72204819D02*
X144559523Y-72204819D01*
X142732308Y-104814148D02*
X143208499Y-104814148D01*
X142208499Y-105147481D02*
X142732308Y-104814148D01*
X142732308Y-104814148D02*
X142208499Y-104480815D01*
X143208499Y-104147481D02*
X142208499Y-104147481D01*
X142208499Y-104147481D02*
X142208499Y-103909386D01*
X142208499Y-103909386D02*
X142256118Y-103766529D01*
X142256118Y-103766529D02*
X142351356Y-103671291D01*
X142351356Y-103671291D02*
X142446594Y-103623672D01*
X142446594Y-103623672D02*
X142637070Y-103576053D01*
X142637070Y-103576053D02*
X142779927Y-103576053D01*
X142779927Y-103576053D02*
X142970403Y-103623672D01*
X142970403Y-103623672D02*
X143065641Y-103671291D01*
X143065641Y-103671291D02*
X143160880Y-103766529D01*
X143160880Y-103766529D02*
X143208499Y-103909386D01*
X143208499Y-103909386D02*
X143208499Y-104147481D01*
X142827546Y-103147481D02*
X142827546Y-102385577D01*
X142684689Y-101909386D02*
X142684689Y-101576053D01*
X143208499Y-101433196D02*
X143208499Y-101909386D01*
X143208499Y-101909386D02*
X142208499Y-101909386D01*
X142208499Y-101909386D02*
X142208499Y-101433196D01*
X143160880Y-101052243D02*
X143208499Y-100909386D01*
X143208499Y-100909386D02*
X143208499Y-100671291D01*
X143208499Y-100671291D02*
X143160880Y-100576053D01*
X143160880Y-100576053D02*
X143113260Y-100528434D01*
X143113260Y-100528434D02*
X143018022Y-100480815D01*
X143018022Y-100480815D02*
X142922784Y-100480815D01*
X142922784Y-100480815D02*
X142827546Y-100528434D01*
X142827546Y-100528434D02*
X142779927Y-100576053D01*
X142779927Y-100576053D02*
X142732308Y-100671291D01*
X142732308Y-100671291D02*
X142684689Y-100861767D01*
X142684689Y-100861767D02*
X142637070Y-100957005D01*
X142637070Y-100957005D02*
X142589451Y-101004624D01*
X142589451Y-101004624D02*
X142494213Y-101052243D01*
X142494213Y-101052243D02*
X142398975Y-101052243D01*
X142398975Y-101052243D02*
X142303737Y-101004624D01*
X142303737Y-101004624D02*
X142256118Y-100957005D01*
X142256118Y-100957005D02*
X142208499Y-100861767D01*
X142208499Y-100861767D02*
X142208499Y-100623672D01*
X142208499Y-100623672D02*
X142256118Y-100480815D01*
X143208499Y-100052243D02*
X142208499Y-100052243D01*
X142208499Y-100052243D02*
X142208499Y-99671291D01*
X142208499Y-99671291D02*
X142256118Y-99576053D01*
X142256118Y-99576053D02*
X142303737Y-99528434D01*
X142303737Y-99528434D02*
X142398975Y-99480815D01*
X142398975Y-99480815D02*
X142541832Y-99480815D01*
X142541832Y-99480815D02*
X142637070Y-99528434D01*
X142637070Y-99528434D02*
X142684689Y-99576053D01*
X142684689Y-99576053D02*
X142732308Y-99671291D01*
X142732308Y-99671291D02*
X142732308Y-100052243D01*
X142208499Y-99147481D02*
X142208499Y-98528434D01*
X142208499Y-98528434D02*
X142589451Y-98861767D01*
X142589451Y-98861767D02*
X142589451Y-98718910D01*
X142589451Y-98718910D02*
X142637070Y-98623672D01*
X142637070Y-98623672D02*
X142684689Y-98576053D01*
X142684689Y-98576053D02*
X142779927Y-98528434D01*
X142779927Y-98528434D02*
X143018022Y-98528434D01*
X143018022Y-98528434D02*
X143113260Y-98576053D01*
X143113260Y-98576053D02*
X143160880Y-98623672D01*
X143160880Y-98623672D02*
X143208499Y-98718910D01*
X143208499Y-98718910D02*
X143208499Y-99004624D01*
X143208499Y-99004624D02*
X143160880Y-99099862D01*
X143160880Y-99099862D02*
X143113260Y-99147481D01*
X142303737Y-98147481D02*
X142256118Y-98099862D01*
X142256118Y-98099862D02*
X142208499Y-98004624D01*
X142208499Y-98004624D02*
X142208499Y-97766529D01*
X142208499Y-97766529D02*
X142256118Y-97671291D01*
X142256118Y-97671291D02*
X142303737Y-97623672D01*
X142303737Y-97623672D02*
X142398975Y-97576053D01*
X142398975Y-97576053D02*
X142494213Y-97576053D01*
X142494213Y-97576053D02*
X142637070Y-97623672D01*
X142637070Y-97623672D02*
X143208499Y-98195100D01*
X143208499Y-98195100D02*
X143208499Y-97576053D01*
X142827546Y-97147481D02*
X142827546Y-96385577D01*
X143160880Y-95957005D02*
X143208499Y-95814148D01*
X143208499Y-95814148D02*
X143208499Y-95576053D01*
X143208499Y-95576053D02*
X143160880Y-95480815D01*
X143160880Y-95480815D02*
X143113260Y-95433196D01*
X143113260Y-95433196D02*
X143018022Y-95385577D01*
X143018022Y-95385577D02*
X142922784Y-95385577D01*
X142922784Y-95385577D02*
X142827546Y-95433196D01*
X142827546Y-95433196D02*
X142779927Y-95480815D01*
X142779927Y-95480815D02*
X142732308Y-95576053D01*
X142732308Y-95576053D02*
X142684689Y-95766529D01*
X142684689Y-95766529D02*
X142637070Y-95861767D01*
X142637070Y-95861767D02*
X142589451Y-95909386D01*
X142589451Y-95909386D02*
X142494213Y-95957005D01*
X142494213Y-95957005D02*
X142398975Y-95957005D01*
X142398975Y-95957005D02*
X142303737Y-95909386D01*
X142303737Y-95909386D02*
X142256118Y-95861767D01*
X142256118Y-95861767D02*
X142208499Y-95766529D01*
X142208499Y-95766529D02*
X142208499Y-95528434D01*
X142208499Y-95528434D02*
X142256118Y-95385577D01*
X142208499Y-95052243D02*
X142208499Y-94433196D01*
X142208499Y-94433196D02*
X142589451Y-94766529D01*
X142589451Y-94766529D02*
X142589451Y-94623672D01*
X142589451Y-94623672D02*
X142637070Y-94528434D01*
X142637070Y-94528434D02*
X142684689Y-94480815D01*
X142684689Y-94480815D02*
X142779927Y-94433196D01*
X142779927Y-94433196D02*
X143018022Y-94433196D01*
X143018022Y-94433196D02*
X143113260Y-94480815D01*
X143113260Y-94480815D02*
X143160880Y-94528434D01*
X143160880Y-94528434D02*
X143208499Y-94623672D01*
X143208499Y-94623672D02*
X143208499Y-94909386D01*
X143208499Y-94909386D02*
X143160880Y-95004624D01*
X143160880Y-95004624D02*
X143113260Y-95052243D01*
X132265221Y-71447539D02*
X132884268Y-71447539D01*
X132884268Y-71447539D02*
X132550935Y-71828491D01*
X132550935Y-71828491D02*
X132693792Y-71828491D01*
X132693792Y-71828491D02*
X132789030Y-71876110D01*
X132789030Y-71876110D02*
X132836649Y-71923729D01*
X132836649Y-71923729D02*
X132884268Y-72018967D01*
X132884268Y-72018967D02*
X132884268Y-72257062D01*
X132884268Y-72257062D02*
X132836649Y-72352300D01*
X132836649Y-72352300D02*
X132789030Y-72399920D01*
X132789030Y-72399920D02*
X132693792Y-72447539D01*
X132693792Y-72447539D02*
X132408078Y-72447539D01*
X132408078Y-72447539D02*
X132312840Y-72399920D01*
X132312840Y-72399920D02*
X132265221Y-72352300D01*
X133169983Y-71447539D02*
X133503316Y-72447539D01*
X133503316Y-72447539D02*
X133836649Y-71447539D01*
X134074745Y-71447539D02*
X134693792Y-71447539D01*
X134693792Y-71447539D02*
X134360459Y-71828491D01*
X134360459Y-71828491D02*
X134503316Y-71828491D01*
X134503316Y-71828491D02*
X134598554Y-71876110D01*
X134598554Y-71876110D02*
X134646173Y-71923729D01*
X134646173Y-71923729D02*
X134693792Y-72018967D01*
X134693792Y-72018967D02*
X134693792Y-72257062D01*
X134693792Y-72257062D02*
X134646173Y-72352300D01*
X134646173Y-72352300D02*
X134598554Y-72399920D01*
X134598554Y-72399920D02*
X134503316Y-72447539D01*
X134503316Y-72447539D02*
X134217602Y-72447539D01*
X134217602Y-72447539D02*
X134122364Y-72399920D01*
X134122364Y-72399920D02*
X134074745Y-72352300D01*
X132265221Y-73987539D02*
X132884268Y-73987539D01*
X132884268Y-73987539D02*
X132550935Y-74368491D01*
X132550935Y-74368491D02*
X132693792Y-74368491D01*
X132693792Y-74368491D02*
X132789030Y-74416110D01*
X132789030Y-74416110D02*
X132836649Y-74463729D01*
X132836649Y-74463729D02*
X132884268Y-74558967D01*
X132884268Y-74558967D02*
X132884268Y-74797062D01*
X132884268Y-74797062D02*
X132836649Y-74892300D01*
X132836649Y-74892300D02*
X132789030Y-74939920D01*
X132789030Y-74939920D02*
X132693792Y-74987539D01*
X132693792Y-74987539D02*
X132408078Y-74987539D01*
X132408078Y-74987539D02*
X132312840Y-74939920D01*
X132312840Y-74939920D02*
X132265221Y-74892300D01*
X133169983Y-73987539D02*
X133503316Y-74987539D01*
X133503316Y-74987539D02*
X133836649Y-73987539D01*
X134074745Y-73987539D02*
X134693792Y-73987539D01*
X134693792Y-73987539D02*
X134360459Y-74368491D01*
X134360459Y-74368491D02*
X134503316Y-74368491D01*
X134503316Y-74368491D02*
X134598554Y-74416110D01*
X134598554Y-74416110D02*
X134646173Y-74463729D01*
X134646173Y-74463729D02*
X134693792Y-74558967D01*
X134693792Y-74558967D02*
X134693792Y-74797062D01*
X134693792Y-74797062D02*
X134646173Y-74892300D01*
X134646173Y-74892300D02*
X134598554Y-74939920D01*
X134598554Y-74939920D02*
X134503316Y-74987539D01*
X134503316Y-74987539D02*
X134217602Y-74987539D01*
X134217602Y-74987539D02*
X134122364Y-74939920D01*
X134122364Y-74939920D02*
X134074745Y-74892300D01*
X132884268Y-79115158D02*
X132789030Y-79067539D01*
X132789030Y-79067539D02*
X132646173Y-79067539D01*
X132646173Y-79067539D02*
X132503316Y-79115158D01*
X132503316Y-79115158D02*
X132408078Y-79210396D01*
X132408078Y-79210396D02*
X132360459Y-79305634D01*
X132360459Y-79305634D02*
X132312840Y-79496110D01*
X132312840Y-79496110D02*
X132312840Y-79638967D01*
X132312840Y-79638967D02*
X132360459Y-79829443D01*
X132360459Y-79829443D02*
X132408078Y-79924681D01*
X132408078Y-79924681D02*
X132503316Y-80019920D01*
X132503316Y-80019920D02*
X132646173Y-80067539D01*
X132646173Y-80067539D02*
X132741411Y-80067539D01*
X132741411Y-80067539D02*
X132884268Y-80019920D01*
X132884268Y-80019920D02*
X132931887Y-79972300D01*
X132931887Y-79972300D02*
X132931887Y-79638967D01*
X132931887Y-79638967D02*
X132741411Y-79638967D01*
X133360459Y-80067539D02*
X133360459Y-79067539D01*
X133360459Y-79067539D02*
X133741411Y-79067539D01*
X133741411Y-79067539D02*
X133836649Y-79115158D01*
X133836649Y-79115158D02*
X133884268Y-79162777D01*
X133884268Y-79162777D02*
X133931887Y-79258015D01*
X133931887Y-79258015D02*
X133931887Y-79400872D01*
X133931887Y-79400872D02*
X133884268Y-79496110D01*
X133884268Y-79496110D02*
X133836649Y-79543729D01*
X133836649Y-79543729D02*
X133741411Y-79591348D01*
X133741411Y-79591348D02*
X133360459Y-79591348D01*
X134360459Y-80067539D02*
X134360459Y-79067539D01*
X135027125Y-79067539D02*
X135217601Y-79067539D01*
X135217601Y-79067539D02*
X135312839Y-79115158D01*
X135312839Y-79115158D02*
X135408077Y-79210396D01*
X135408077Y-79210396D02*
X135455696Y-79400872D01*
X135455696Y-79400872D02*
X135455696Y-79734205D01*
X135455696Y-79734205D02*
X135408077Y-79924681D01*
X135408077Y-79924681D02*
X135312839Y-80019920D01*
X135312839Y-80019920D02*
X135217601Y-80067539D01*
X135217601Y-80067539D02*
X135027125Y-80067539D01*
X135027125Y-80067539D02*
X134931887Y-80019920D01*
X134931887Y-80019920D02*
X134836649Y-79924681D01*
X134836649Y-79924681D02*
X134789030Y-79734205D01*
X134789030Y-79734205D02*
X134789030Y-79400872D01*
X134789030Y-79400872D02*
X134836649Y-79210396D01*
X134836649Y-79210396D02*
X134931887Y-79115158D01*
X134931887Y-79115158D02*
X135027125Y-79067539D01*
X136312839Y-79400872D02*
X136312839Y-80067539D01*
X136074744Y-79019920D02*
X135836649Y-79734205D01*
X135836649Y-79734205D02*
X136455696Y-79734205D01*
X132884268Y-81655158D02*
X132789030Y-81607539D01*
X132789030Y-81607539D02*
X132646173Y-81607539D01*
X132646173Y-81607539D02*
X132503316Y-81655158D01*
X132503316Y-81655158D02*
X132408078Y-81750396D01*
X132408078Y-81750396D02*
X132360459Y-81845634D01*
X132360459Y-81845634D02*
X132312840Y-82036110D01*
X132312840Y-82036110D02*
X132312840Y-82178967D01*
X132312840Y-82178967D02*
X132360459Y-82369443D01*
X132360459Y-82369443D02*
X132408078Y-82464681D01*
X132408078Y-82464681D02*
X132503316Y-82559920D01*
X132503316Y-82559920D02*
X132646173Y-82607539D01*
X132646173Y-82607539D02*
X132741411Y-82607539D01*
X132741411Y-82607539D02*
X132884268Y-82559920D01*
X132884268Y-82559920D02*
X132931887Y-82512300D01*
X132931887Y-82512300D02*
X132931887Y-82178967D01*
X132931887Y-82178967D02*
X132741411Y-82178967D01*
X133360459Y-82607539D02*
X133360459Y-81607539D01*
X133360459Y-81607539D02*
X133741411Y-81607539D01*
X133741411Y-81607539D02*
X133836649Y-81655158D01*
X133836649Y-81655158D02*
X133884268Y-81702777D01*
X133884268Y-81702777D02*
X133931887Y-81798015D01*
X133931887Y-81798015D02*
X133931887Y-81940872D01*
X133931887Y-81940872D02*
X133884268Y-82036110D01*
X133884268Y-82036110D02*
X133836649Y-82083729D01*
X133836649Y-82083729D02*
X133741411Y-82131348D01*
X133741411Y-82131348D02*
X133360459Y-82131348D01*
X134360459Y-82607539D02*
X134360459Y-81607539D01*
X135027125Y-81607539D02*
X135217601Y-81607539D01*
X135217601Y-81607539D02*
X135312839Y-81655158D01*
X135312839Y-81655158D02*
X135408077Y-81750396D01*
X135408077Y-81750396D02*
X135455696Y-81940872D01*
X135455696Y-81940872D02*
X135455696Y-82274205D01*
X135455696Y-82274205D02*
X135408077Y-82464681D01*
X135408077Y-82464681D02*
X135312839Y-82559920D01*
X135312839Y-82559920D02*
X135217601Y-82607539D01*
X135217601Y-82607539D02*
X135027125Y-82607539D01*
X135027125Y-82607539D02*
X134931887Y-82559920D01*
X134931887Y-82559920D02*
X134836649Y-82464681D01*
X134836649Y-82464681D02*
X134789030Y-82274205D01*
X134789030Y-82274205D02*
X134789030Y-81940872D01*
X134789030Y-81940872D02*
X134836649Y-81750396D01*
X134836649Y-81750396D02*
X134931887Y-81655158D01*
X134931887Y-81655158D02*
X135027125Y-81607539D01*
X136360458Y-81607539D02*
X135884268Y-81607539D01*
X135884268Y-81607539D02*
X135836649Y-82083729D01*
X135836649Y-82083729D02*
X135884268Y-82036110D01*
X135884268Y-82036110D02*
X135979506Y-81988491D01*
X135979506Y-81988491D02*
X136217601Y-81988491D01*
X136217601Y-81988491D02*
X136312839Y-82036110D01*
X136312839Y-82036110D02*
X136360458Y-82083729D01*
X136360458Y-82083729D02*
X136408077Y-82178967D01*
X136408077Y-82178967D02*
X136408077Y-82417062D01*
X136408077Y-82417062D02*
X136360458Y-82512300D01*
X136360458Y-82512300D02*
X136312839Y-82559920D01*
X136312839Y-82559920D02*
X136217601Y-82607539D01*
X136217601Y-82607539D02*
X135979506Y-82607539D01*
X135979506Y-82607539D02*
X135884268Y-82559920D01*
X135884268Y-82559920D02*
X135836649Y-82512300D01*
X132884268Y-84195158D02*
X132789030Y-84147539D01*
X132789030Y-84147539D02*
X132646173Y-84147539D01*
X132646173Y-84147539D02*
X132503316Y-84195158D01*
X132503316Y-84195158D02*
X132408078Y-84290396D01*
X132408078Y-84290396D02*
X132360459Y-84385634D01*
X132360459Y-84385634D02*
X132312840Y-84576110D01*
X132312840Y-84576110D02*
X132312840Y-84718967D01*
X132312840Y-84718967D02*
X132360459Y-84909443D01*
X132360459Y-84909443D02*
X132408078Y-85004681D01*
X132408078Y-85004681D02*
X132503316Y-85099920D01*
X132503316Y-85099920D02*
X132646173Y-85147539D01*
X132646173Y-85147539D02*
X132741411Y-85147539D01*
X132741411Y-85147539D02*
X132884268Y-85099920D01*
X132884268Y-85099920D02*
X132931887Y-85052300D01*
X132931887Y-85052300D02*
X132931887Y-84718967D01*
X132931887Y-84718967D02*
X132741411Y-84718967D01*
X133360459Y-85147539D02*
X133360459Y-84147539D01*
X133360459Y-84147539D02*
X133741411Y-84147539D01*
X133741411Y-84147539D02*
X133836649Y-84195158D01*
X133836649Y-84195158D02*
X133884268Y-84242777D01*
X133884268Y-84242777D02*
X133931887Y-84338015D01*
X133931887Y-84338015D02*
X133931887Y-84480872D01*
X133931887Y-84480872D02*
X133884268Y-84576110D01*
X133884268Y-84576110D02*
X133836649Y-84623729D01*
X133836649Y-84623729D02*
X133741411Y-84671348D01*
X133741411Y-84671348D02*
X133360459Y-84671348D01*
X134360459Y-85147539D02*
X134360459Y-84147539D01*
X135027125Y-84147539D02*
X135217601Y-84147539D01*
X135217601Y-84147539D02*
X135312839Y-84195158D01*
X135312839Y-84195158D02*
X135408077Y-84290396D01*
X135408077Y-84290396D02*
X135455696Y-84480872D01*
X135455696Y-84480872D02*
X135455696Y-84814205D01*
X135455696Y-84814205D02*
X135408077Y-85004681D01*
X135408077Y-85004681D02*
X135312839Y-85099920D01*
X135312839Y-85099920D02*
X135217601Y-85147539D01*
X135217601Y-85147539D02*
X135027125Y-85147539D01*
X135027125Y-85147539D02*
X134931887Y-85099920D01*
X134931887Y-85099920D02*
X134836649Y-85004681D01*
X134836649Y-85004681D02*
X134789030Y-84814205D01*
X134789030Y-84814205D02*
X134789030Y-84480872D01*
X134789030Y-84480872D02*
X134836649Y-84290396D01*
X134836649Y-84290396D02*
X134931887Y-84195158D01*
X134931887Y-84195158D02*
X135027125Y-84147539D01*
X136312839Y-84147539D02*
X136122363Y-84147539D01*
X136122363Y-84147539D02*
X136027125Y-84195158D01*
X136027125Y-84195158D02*
X135979506Y-84242777D01*
X135979506Y-84242777D02*
X135884268Y-84385634D01*
X135884268Y-84385634D02*
X135836649Y-84576110D01*
X135836649Y-84576110D02*
X135836649Y-84957062D01*
X135836649Y-84957062D02*
X135884268Y-85052300D01*
X135884268Y-85052300D02*
X135931887Y-85099920D01*
X135931887Y-85099920D02*
X136027125Y-85147539D01*
X136027125Y-85147539D02*
X136217601Y-85147539D01*
X136217601Y-85147539D02*
X136312839Y-85099920D01*
X136312839Y-85099920D02*
X136360458Y-85052300D01*
X136360458Y-85052300D02*
X136408077Y-84957062D01*
X136408077Y-84957062D02*
X136408077Y-84718967D01*
X136408077Y-84718967D02*
X136360458Y-84623729D01*
X136360458Y-84623729D02*
X136312839Y-84576110D01*
X136312839Y-84576110D02*
X136217601Y-84528491D01*
X136217601Y-84528491D02*
X136027125Y-84528491D01*
X136027125Y-84528491D02*
X135931887Y-84576110D01*
X135931887Y-84576110D02*
X135884268Y-84623729D01*
X135884268Y-84623729D02*
X135836649Y-84718967D01*
X132884268Y-86735158D02*
X132789030Y-86687539D01*
X132789030Y-86687539D02*
X132646173Y-86687539D01*
X132646173Y-86687539D02*
X132503316Y-86735158D01*
X132503316Y-86735158D02*
X132408078Y-86830396D01*
X132408078Y-86830396D02*
X132360459Y-86925634D01*
X132360459Y-86925634D02*
X132312840Y-87116110D01*
X132312840Y-87116110D02*
X132312840Y-87258967D01*
X132312840Y-87258967D02*
X132360459Y-87449443D01*
X132360459Y-87449443D02*
X132408078Y-87544681D01*
X132408078Y-87544681D02*
X132503316Y-87639920D01*
X132503316Y-87639920D02*
X132646173Y-87687539D01*
X132646173Y-87687539D02*
X132741411Y-87687539D01*
X132741411Y-87687539D02*
X132884268Y-87639920D01*
X132884268Y-87639920D02*
X132931887Y-87592300D01*
X132931887Y-87592300D02*
X132931887Y-87258967D01*
X132931887Y-87258967D02*
X132741411Y-87258967D01*
X133360459Y-87687539D02*
X133360459Y-86687539D01*
X133360459Y-86687539D02*
X133741411Y-86687539D01*
X133741411Y-86687539D02*
X133836649Y-86735158D01*
X133836649Y-86735158D02*
X133884268Y-86782777D01*
X133884268Y-86782777D02*
X133931887Y-86878015D01*
X133931887Y-86878015D02*
X133931887Y-87020872D01*
X133931887Y-87020872D02*
X133884268Y-87116110D01*
X133884268Y-87116110D02*
X133836649Y-87163729D01*
X133836649Y-87163729D02*
X133741411Y-87211348D01*
X133741411Y-87211348D02*
X133360459Y-87211348D01*
X134360459Y-87687539D02*
X134360459Y-86687539D01*
X135027125Y-86687539D02*
X135217601Y-86687539D01*
X135217601Y-86687539D02*
X135312839Y-86735158D01*
X135312839Y-86735158D02*
X135408077Y-86830396D01*
X135408077Y-86830396D02*
X135455696Y-87020872D01*
X135455696Y-87020872D02*
X135455696Y-87354205D01*
X135455696Y-87354205D02*
X135408077Y-87544681D01*
X135408077Y-87544681D02*
X135312839Y-87639920D01*
X135312839Y-87639920D02*
X135217601Y-87687539D01*
X135217601Y-87687539D02*
X135027125Y-87687539D01*
X135027125Y-87687539D02*
X134931887Y-87639920D01*
X134931887Y-87639920D02*
X134836649Y-87544681D01*
X134836649Y-87544681D02*
X134789030Y-87354205D01*
X134789030Y-87354205D02*
X134789030Y-87020872D01*
X134789030Y-87020872D02*
X134836649Y-86830396D01*
X134836649Y-86830396D02*
X134931887Y-86735158D01*
X134931887Y-86735158D02*
X135027125Y-86687539D01*
X135789030Y-86687539D02*
X136455696Y-86687539D01*
X136455696Y-86687539D02*
X136027125Y-87687539D01*
X132884268Y-89275158D02*
X132789030Y-89227539D01*
X132789030Y-89227539D02*
X132646173Y-89227539D01*
X132646173Y-89227539D02*
X132503316Y-89275158D01*
X132503316Y-89275158D02*
X132408078Y-89370396D01*
X132408078Y-89370396D02*
X132360459Y-89465634D01*
X132360459Y-89465634D02*
X132312840Y-89656110D01*
X132312840Y-89656110D02*
X132312840Y-89798967D01*
X132312840Y-89798967D02*
X132360459Y-89989443D01*
X132360459Y-89989443D02*
X132408078Y-90084681D01*
X132408078Y-90084681D02*
X132503316Y-90179920D01*
X132503316Y-90179920D02*
X132646173Y-90227539D01*
X132646173Y-90227539D02*
X132741411Y-90227539D01*
X132741411Y-90227539D02*
X132884268Y-90179920D01*
X132884268Y-90179920D02*
X132931887Y-90132300D01*
X132931887Y-90132300D02*
X132931887Y-89798967D01*
X132931887Y-89798967D02*
X132741411Y-89798967D01*
X133360459Y-90227539D02*
X133360459Y-89227539D01*
X133360459Y-89227539D02*
X133741411Y-89227539D01*
X133741411Y-89227539D02*
X133836649Y-89275158D01*
X133836649Y-89275158D02*
X133884268Y-89322777D01*
X133884268Y-89322777D02*
X133931887Y-89418015D01*
X133931887Y-89418015D02*
X133931887Y-89560872D01*
X133931887Y-89560872D02*
X133884268Y-89656110D01*
X133884268Y-89656110D02*
X133836649Y-89703729D01*
X133836649Y-89703729D02*
X133741411Y-89751348D01*
X133741411Y-89751348D02*
X133360459Y-89751348D01*
X134360459Y-90227539D02*
X134360459Y-89227539D01*
X135027125Y-89227539D02*
X135217601Y-89227539D01*
X135217601Y-89227539D02*
X135312839Y-89275158D01*
X135312839Y-89275158D02*
X135408077Y-89370396D01*
X135408077Y-89370396D02*
X135455696Y-89560872D01*
X135455696Y-89560872D02*
X135455696Y-89894205D01*
X135455696Y-89894205D02*
X135408077Y-90084681D01*
X135408077Y-90084681D02*
X135312839Y-90179920D01*
X135312839Y-90179920D02*
X135217601Y-90227539D01*
X135217601Y-90227539D02*
X135027125Y-90227539D01*
X135027125Y-90227539D02*
X134931887Y-90179920D01*
X134931887Y-90179920D02*
X134836649Y-90084681D01*
X134836649Y-90084681D02*
X134789030Y-89894205D01*
X134789030Y-89894205D02*
X134789030Y-89560872D01*
X134789030Y-89560872D02*
X134836649Y-89370396D01*
X134836649Y-89370396D02*
X134931887Y-89275158D01*
X134931887Y-89275158D02*
X135027125Y-89227539D01*
X136408077Y-90227539D02*
X135836649Y-90227539D01*
X136122363Y-90227539D02*
X136122363Y-89227539D01*
X136122363Y-89227539D02*
X136027125Y-89370396D01*
X136027125Y-89370396D02*
X135931887Y-89465634D01*
X135931887Y-89465634D02*
X135836649Y-89513253D01*
X137312839Y-89227539D02*
X136836649Y-89227539D01*
X136836649Y-89227539D02*
X136789030Y-89703729D01*
X136789030Y-89703729D02*
X136836649Y-89656110D01*
X136836649Y-89656110D02*
X136931887Y-89608491D01*
X136931887Y-89608491D02*
X137169982Y-89608491D01*
X137169982Y-89608491D02*
X137265220Y-89656110D01*
X137265220Y-89656110D02*
X137312839Y-89703729D01*
X137312839Y-89703729D02*
X137360458Y-89798967D01*
X137360458Y-89798967D02*
X137360458Y-90037062D01*
X137360458Y-90037062D02*
X137312839Y-90132300D01*
X137312839Y-90132300D02*
X137265220Y-90179920D01*
X137265220Y-90179920D02*
X137169982Y-90227539D01*
X137169982Y-90227539D02*
X136931887Y-90227539D01*
X136931887Y-90227539D02*
X136836649Y-90179920D01*
X136836649Y-90179920D02*
X136789030Y-90132300D01*
X132884268Y-91815158D02*
X132789030Y-91767539D01*
X132789030Y-91767539D02*
X132646173Y-91767539D01*
X132646173Y-91767539D02*
X132503316Y-91815158D01*
X132503316Y-91815158D02*
X132408078Y-91910396D01*
X132408078Y-91910396D02*
X132360459Y-92005634D01*
X132360459Y-92005634D02*
X132312840Y-92196110D01*
X132312840Y-92196110D02*
X132312840Y-92338967D01*
X132312840Y-92338967D02*
X132360459Y-92529443D01*
X132360459Y-92529443D02*
X132408078Y-92624681D01*
X132408078Y-92624681D02*
X132503316Y-92719920D01*
X132503316Y-92719920D02*
X132646173Y-92767539D01*
X132646173Y-92767539D02*
X132741411Y-92767539D01*
X132741411Y-92767539D02*
X132884268Y-92719920D01*
X132884268Y-92719920D02*
X132931887Y-92672300D01*
X132931887Y-92672300D02*
X132931887Y-92338967D01*
X132931887Y-92338967D02*
X132741411Y-92338967D01*
X133360459Y-92767539D02*
X133360459Y-91767539D01*
X133360459Y-91767539D02*
X133741411Y-91767539D01*
X133741411Y-91767539D02*
X133836649Y-91815158D01*
X133836649Y-91815158D02*
X133884268Y-91862777D01*
X133884268Y-91862777D02*
X133931887Y-91958015D01*
X133931887Y-91958015D02*
X133931887Y-92100872D01*
X133931887Y-92100872D02*
X133884268Y-92196110D01*
X133884268Y-92196110D02*
X133836649Y-92243729D01*
X133836649Y-92243729D02*
X133741411Y-92291348D01*
X133741411Y-92291348D02*
X133360459Y-92291348D01*
X134360459Y-92767539D02*
X134360459Y-91767539D01*
X135027125Y-91767539D02*
X135217601Y-91767539D01*
X135217601Y-91767539D02*
X135312839Y-91815158D01*
X135312839Y-91815158D02*
X135408077Y-91910396D01*
X135408077Y-91910396D02*
X135455696Y-92100872D01*
X135455696Y-92100872D02*
X135455696Y-92434205D01*
X135455696Y-92434205D02*
X135408077Y-92624681D01*
X135408077Y-92624681D02*
X135312839Y-92719920D01*
X135312839Y-92719920D02*
X135217601Y-92767539D01*
X135217601Y-92767539D02*
X135027125Y-92767539D01*
X135027125Y-92767539D02*
X134931887Y-92719920D01*
X134931887Y-92719920D02*
X134836649Y-92624681D01*
X134836649Y-92624681D02*
X134789030Y-92434205D01*
X134789030Y-92434205D02*
X134789030Y-92100872D01*
X134789030Y-92100872D02*
X134836649Y-91910396D01*
X134836649Y-91910396D02*
X134931887Y-91815158D01*
X134931887Y-91815158D02*
X135027125Y-91767539D01*
X136408077Y-92767539D02*
X135836649Y-92767539D01*
X136122363Y-92767539D02*
X136122363Y-91767539D01*
X136122363Y-91767539D02*
X136027125Y-91910396D01*
X136027125Y-91910396D02*
X135931887Y-92005634D01*
X135931887Y-92005634D02*
X135836649Y-92053253D01*
X137265220Y-91767539D02*
X137074744Y-91767539D01*
X137074744Y-91767539D02*
X136979506Y-91815158D01*
X136979506Y-91815158D02*
X136931887Y-91862777D01*
X136931887Y-91862777D02*
X136836649Y-92005634D01*
X136836649Y-92005634D02*
X136789030Y-92196110D01*
X136789030Y-92196110D02*
X136789030Y-92577062D01*
X136789030Y-92577062D02*
X136836649Y-92672300D01*
X136836649Y-92672300D02*
X136884268Y-92719920D01*
X136884268Y-92719920D02*
X136979506Y-92767539D01*
X136979506Y-92767539D02*
X137169982Y-92767539D01*
X137169982Y-92767539D02*
X137265220Y-92719920D01*
X137265220Y-92719920D02*
X137312839Y-92672300D01*
X137312839Y-92672300D02*
X137360458Y-92577062D01*
X137360458Y-92577062D02*
X137360458Y-92338967D01*
X137360458Y-92338967D02*
X137312839Y-92243729D01*
X137312839Y-92243729D02*
X137265220Y-92196110D01*
X137265220Y-92196110D02*
X137169982Y-92148491D01*
X137169982Y-92148491D02*
X136979506Y-92148491D01*
X136979506Y-92148491D02*
X136884268Y-92196110D01*
X136884268Y-92196110D02*
X136836649Y-92243729D01*
X136836649Y-92243729D02*
X136789030Y-92338967D01*
X132884268Y-94355158D02*
X132789030Y-94307539D01*
X132789030Y-94307539D02*
X132646173Y-94307539D01*
X132646173Y-94307539D02*
X132503316Y-94355158D01*
X132503316Y-94355158D02*
X132408078Y-94450396D01*
X132408078Y-94450396D02*
X132360459Y-94545634D01*
X132360459Y-94545634D02*
X132312840Y-94736110D01*
X132312840Y-94736110D02*
X132312840Y-94878967D01*
X132312840Y-94878967D02*
X132360459Y-95069443D01*
X132360459Y-95069443D02*
X132408078Y-95164681D01*
X132408078Y-95164681D02*
X132503316Y-95259920D01*
X132503316Y-95259920D02*
X132646173Y-95307539D01*
X132646173Y-95307539D02*
X132741411Y-95307539D01*
X132741411Y-95307539D02*
X132884268Y-95259920D01*
X132884268Y-95259920D02*
X132931887Y-95212300D01*
X132931887Y-95212300D02*
X132931887Y-94878967D01*
X132931887Y-94878967D02*
X132741411Y-94878967D01*
X133360459Y-95307539D02*
X133360459Y-94307539D01*
X133360459Y-94307539D02*
X133741411Y-94307539D01*
X133741411Y-94307539D02*
X133836649Y-94355158D01*
X133836649Y-94355158D02*
X133884268Y-94402777D01*
X133884268Y-94402777D02*
X133931887Y-94498015D01*
X133931887Y-94498015D02*
X133931887Y-94640872D01*
X133931887Y-94640872D02*
X133884268Y-94736110D01*
X133884268Y-94736110D02*
X133836649Y-94783729D01*
X133836649Y-94783729D02*
X133741411Y-94831348D01*
X133741411Y-94831348D02*
X133360459Y-94831348D01*
X134360459Y-95307539D02*
X134360459Y-94307539D01*
X135027125Y-94307539D02*
X135217601Y-94307539D01*
X135217601Y-94307539D02*
X135312839Y-94355158D01*
X135312839Y-94355158D02*
X135408077Y-94450396D01*
X135408077Y-94450396D02*
X135455696Y-94640872D01*
X135455696Y-94640872D02*
X135455696Y-94974205D01*
X135455696Y-94974205D02*
X135408077Y-95164681D01*
X135408077Y-95164681D02*
X135312839Y-95259920D01*
X135312839Y-95259920D02*
X135217601Y-95307539D01*
X135217601Y-95307539D02*
X135027125Y-95307539D01*
X135027125Y-95307539D02*
X134931887Y-95259920D01*
X134931887Y-95259920D02*
X134836649Y-95164681D01*
X134836649Y-95164681D02*
X134789030Y-94974205D01*
X134789030Y-94974205D02*
X134789030Y-94640872D01*
X134789030Y-94640872D02*
X134836649Y-94450396D01*
X134836649Y-94450396D02*
X134931887Y-94355158D01*
X134931887Y-94355158D02*
X135027125Y-94307539D01*
X136408077Y-95307539D02*
X135836649Y-95307539D01*
X136122363Y-95307539D02*
X136122363Y-94307539D01*
X136122363Y-94307539D02*
X136027125Y-94450396D01*
X136027125Y-94450396D02*
X135931887Y-94545634D01*
X135931887Y-94545634D02*
X135836649Y-94593253D01*
X136741411Y-94307539D02*
X137408077Y-94307539D01*
X137408077Y-94307539D02*
X136979506Y-95307539D01*
X132884268Y-96895158D02*
X132789030Y-96847539D01*
X132789030Y-96847539D02*
X132646173Y-96847539D01*
X132646173Y-96847539D02*
X132503316Y-96895158D01*
X132503316Y-96895158D02*
X132408078Y-96990396D01*
X132408078Y-96990396D02*
X132360459Y-97085634D01*
X132360459Y-97085634D02*
X132312840Y-97276110D01*
X132312840Y-97276110D02*
X132312840Y-97418967D01*
X132312840Y-97418967D02*
X132360459Y-97609443D01*
X132360459Y-97609443D02*
X132408078Y-97704681D01*
X132408078Y-97704681D02*
X132503316Y-97799920D01*
X132503316Y-97799920D02*
X132646173Y-97847539D01*
X132646173Y-97847539D02*
X132741411Y-97847539D01*
X132741411Y-97847539D02*
X132884268Y-97799920D01*
X132884268Y-97799920D02*
X132931887Y-97752300D01*
X132931887Y-97752300D02*
X132931887Y-97418967D01*
X132931887Y-97418967D02*
X132741411Y-97418967D01*
X133360459Y-97847539D02*
X133360459Y-96847539D01*
X133360459Y-96847539D02*
X133741411Y-96847539D01*
X133741411Y-96847539D02*
X133836649Y-96895158D01*
X133836649Y-96895158D02*
X133884268Y-96942777D01*
X133884268Y-96942777D02*
X133931887Y-97038015D01*
X133931887Y-97038015D02*
X133931887Y-97180872D01*
X133931887Y-97180872D02*
X133884268Y-97276110D01*
X133884268Y-97276110D02*
X133836649Y-97323729D01*
X133836649Y-97323729D02*
X133741411Y-97371348D01*
X133741411Y-97371348D02*
X133360459Y-97371348D01*
X134360459Y-97847539D02*
X134360459Y-96847539D01*
X135027125Y-96847539D02*
X135217601Y-96847539D01*
X135217601Y-96847539D02*
X135312839Y-96895158D01*
X135312839Y-96895158D02*
X135408077Y-96990396D01*
X135408077Y-96990396D02*
X135455696Y-97180872D01*
X135455696Y-97180872D02*
X135455696Y-97514205D01*
X135455696Y-97514205D02*
X135408077Y-97704681D01*
X135408077Y-97704681D02*
X135312839Y-97799920D01*
X135312839Y-97799920D02*
X135217601Y-97847539D01*
X135217601Y-97847539D02*
X135027125Y-97847539D01*
X135027125Y-97847539D02*
X134931887Y-97799920D01*
X134931887Y-97799920D02*
X134836649Y-97704681D01*
X134836649Y-97704681D02*
X134789030Y-97514205D01*
X134789030Y-97514205D02*
X134789030Y-97180872D01*
X134789030Y-97180872D02*
X134836649Y-96990396D01*
X134836649Y-96990396D02*
X134931887Y-96895158D01*
X134931887Y-96895158D02*
X135027125Y-96847539D01*
X136408077Y-97847539D02*
X135836649Y-97847539D01*
X136122363Y-97847539D02*
X136122363Y-96847539D01*
X136122363Y-96847539D02*
X136027125Y-96990396D01*
X136027125Y-96990396D02*
X135931887Y-97085634D01*
X135931887Y-97085634D02*
X135836649Y-97133253D01*
X136979506Y-97276110D02*
X136884268Y-97228491D01*
X136884268Y-97228491D02*
X136836649Y-97180872D01*
X136836649Y-97180872D02*
X136789030Y-97085634D01*
X136789030Y-97085634D02*
X136789030Y-97038015D01*
X136789030Y-97038015D02*
X136836649Y-96942777D01*
X136836649Y-96942777D02*
X136884268Y-96895158D01*
X136884268Y-96895158D02*
X136979506Y-96847539D01*
X136979506Y-96847539D02*
X137169982Y-96847539D01*
X137169982Y-96847539D02*
X137265220Y-96895158D01*
X137265220Y-96895158D02*
X137312839Y-96942777D01*
X137312839Y-96942777D02*
X137360458Y-97038015D01*
X137360458Y-97038015D02*
X137360458Y-97085634D01*
X137360458Y-97085634D02*
X137312839Y-97180872D01*
X137312839Y-97180872D02*
X137265220Y-97228491D01*
X137265220Y-97228491D02*
X137169982Y-97276110D01*
X137169982Y-97276110D02*
X136979506Y-97276110D01*
X136979506Y-97276110D02*
X136884268Y-97323729D01*
X136884268Y-97323729D02*
X136836649Y-97371348D01*
X136836649Y-97371348D02*
X136789030Y-97466586D01*
X136789030Y-97466586D02*
X136789030Y-97657062D01*
X136789030Y-97657062D02*
X136836649Y-97752300D01*
X136836649Y-97752300D02*
X136884268Y-97799920D01*
X136884268Y-97799920D02*
X136979506Y-97847539D01*
X136979506Y-97847539D02*
X137169982Y-97847539D01*
X137169982Y-97847539D02*
X137265220Y-97799920D01*
X137265220Y-97799920D02*
X137312839Y-97752300D01*
X137312839Y-97752300D02*
X137360458Y-97657062D01*
X137360458Y-97657062D02*
X137360458Y-97466586D01*
X137360458Y-97466586D02*
X137312839Y-97371348D01*
X137312839Y-97371348D02*
X137265220Y-97323729D01*
X137265220Y-97323729D02*
X137169982Y-97276110D01*
X132884268Y-99435158D02*
X132789030Y-99387539D01*
X132789030Y-99387539D02*
X132646173Y-99387539D01*
X132646173Y-99387539D02*
X132503316Y-99435158D01*
X132503316Y-99435158D02*
X132408078Y-99530396D01*
X132408078Y-99530396D02*
X132360459Y-99625634D01*
X132360459Y-99625634D02*
X132312840Y-99816110D01*
X132312840Y-99816110D02*
X132312840Y-99958967D01*
X132312840Y-99958967D02*
X132360459Y-100149443D01*
X132360459Y-100149443D02*
X132408078Y-100244681D01*
X132408078Y-100244681D02*
X132503316Y-100339920D01*
X132503316Y-100339920D02*
X132646173Y-100387539D01*
X132646173Y-100387539D02*
X132741411Y-100387539D01*
X132741411Y-100387539D02*
X132884268Y-100339920D01*
X132884268Y-100339920D02*
X132931887Y-100292300D01*
X132931887Y-100292300D02*
X132931887Y-99958967D01*
X132931887Y-99958967D02*
X132741411Y-99958967D01*
X133360459Y-100387539D02*
X133360459Y-99387539D01*
X133360459Y-99387539D02*
X133741411Y-99387539D01*
X133741411Y-99387539D02*
X133836649Y-99435158D01*
X133836649Y-99435158D02*
X133884268Y-99482777D01*
X133884268Y-99482777D02*
X133931887Y-99578015D01*
X133931887Y-99578015D02*
X133931887Y-99720872D01*
X133931887Y-99720872D02*
X133884268Y-99816110D01*
X133884268Y-99816110D02*
X133836649Y-99863729D01*
X133836649Y-99863729D02*
X133741411Y-99911348D01*
X133741411Y-99911348D02*
X133360459Y-99911348D01*
X134360459Y-100387539D02*
X134360459Y-99387539D01*
X135027125Y-99387539D02*
X135217601Y-99387539D01*
X135217601Y-99387539D02*
X135312839Y-99435158D01*
X135312839Y-99435158D02*
X135408077Y-99530396D01*
X135408077Y-99530396D02*
X135455696Y-99720872D01*
X135455696Y-99720872D02*
X135455696Y-100054205D01*
X135455696Y-100054205D02*
X135408077Y-100244681D01*
X135408077Y-100244681D02*
X135312839Y-100339920D01*
X135312839Y-100339920D02*
X135217601Y-100387539D01*
X135217601Y-100387539D02*
X135027125Y-100387539D01*
X135027125Y-100387539D02*
X134931887Y-100339920D01*
X134931887Y-100339920D02*
X134836649Y-100244681D01*
X134836649Y-100244681D02*
X134789030Y-100054205D01*
X134789030Y-100054205D02*
X134789030Y-99720872D01*
X134789030Y-99720872D02*
X134836649Y-99530396D01*
X134836649Y-99530396D02*
X134931887Y-99435158D01*
X134931887Y-99435158D02*
X135027125Y-99387539D01*
X136027125Y-99816110D02*
X135931887Y-99768491D01*
X135931887Y-99768491D02*
X135884268Y-99720872D01*
X135884268Y-99720872D02*
X135836649Y-99625634D01*
X135836649Y-99625634D02*
X135836649Y-99578015D01*
X135836649Y-99578015D02*
X135884268Y-99482777D01*
X135884268Y-99482777D02*
X135931887Y-99435158D01*
X135931887Y-99435158D02*
X136027125Y-99387539D01*
X136027125Y-99387539D02*
X136217601Y-99387539D01*
X136217601Y-99387539D02*
X136312839Y-99435158D01*
X136312839Y-99435158D02*
X136360458Y-99482777D01*
X136360458Y-99482777D02*
X136408077Y-99578015D01*
X136408077Y-99578015D02*
X136408077Y-99625634D01*
X136408077Y-99625634D02*
X136360458Y-99720872D01*
X136360458Y-99720872D02*
X136312839Y-99768491D01*
X136312839Y-99768491D02*
X136217601Y-99816110D01*
X136217601Y-99816110D02*
X136027125Y-99816110D01*
X136027125Y-99816110D02*
X135931887Y-99863729D01*
X135931887Y-99863729D02*
X135884268Y-99911348D01*
X135884268Y-99911348D02*
X135836649Y-100006586D01*
X135836649Y-100006586D02*
X135836649Y-100197062D01*
X135836649Y-100197062D02*
X135884268Y-100292300D01*
X135884268Y-100292300D02*
X135931887Y-100339920D01*
X135931887Y-100339920D02*
X136027125Y-100387539D01*
X136027125Y-100387539D02*
X136217601Y-100387539D01*
X136217601Y-100387539D02*
X136312839Y-100339920D01*
X136312839Y-100339920D02*
X136360458Y-100292300D01*
X136360458Y-100292300D02*
X136408077Y-100197062D01*
X136408077Y-100197062D02*
X136408077Y-100006586D01*
X136408077Y-100006586D02*
X136360458Y-99911348D01*
X136360458Y-99911348D02*
X136312839Y-99863729D01*
X136312839Y-99863729D02*
X136217601Y-99816110D01*
X132884268Y-101975158D02*
X132789030Y-101927539D01*
X132789030Y-101927539D02*
X132646173Y-101927539D01*
X132646173Y-101927539D02*
X132503316Y-101975158D01*
X132503316Y-101975158D02*
X132408078Y-102070396D01*
X132408078Y-102070396D02*
X132360459Y-102165634D01*
X132360459Y-102165634D02*
X132312840Y-102356110D01*
X132312840Y-102356110D02*
X132312840Y-102498967D01*
X132312840Y-102498967D02*
X132360459Y-102689443D01*
X132360459Y-102689443D02*
X132408078Y-102784681D01*
X132408078Y-102784681D02*
X132503316Y-102879920D01*
X132503316Y-102879920D02*
X132646173Y-102927539D01*
X132646173Y-102927539D02*
X132741411Y-102927539D01*
X132741411Y-102927539D02*
X132884268Y-102879920D01*
X132884268Y-102879920D02*
X132931887Y-102832300D01*
X132931887Y-102832300D02*
X132931887Y-102498967D01*
X132931887Y-102498967D02*
X132741411Y-102498967D01*
X133360459Y-102927539D02*
X133360459Y-101927539D01*
X133360459Y-101927539D02*
X133741411Y-101927539D01*
X133741411Y-101927539D02*
X133836649Y-101975158D01*
X133836649Y-101975158D02*
X133884268Y-102022777D01*
X133884268Y-102022777D02*
X133931887Y-102118015D01*
X133931887Y-102118015D02*
X133931887Y-102260872D01*
X133931887Y-102260872D02*
X133884268Y-102356110D01*
X133884268Y-102356110D02*
X133836649Y-102403729D01*
X133836649Y-102403729D02*
X133741411Y-102451348D01*
X133741411Y-102451348D02*
X133360459Y-102451348D01*
X134360459Y-102927539D02*
X134360459Y-101927539D01*
X135027125Y-101927539D02*
X135217601Y-101927539D01*
X135217601Y-101927539D02*
X135312839Y-101975158D01*
X135312839Y-101975158D02*
X135408077Y-102070396D01*
X135408077Y-102070396D02*
X135455696Y-102260872D01*
X135455696Y-102260872D02*
X135455696Y-102594205D01*
X135455696Y-102594205D02*
X135408077Y-102784681D01*
X135408077Y-102784681D02*
X135312839Y-102879920D01*
X135312839Y-102879920D02*
X135217601Y-102927539D01*
X135217601Y-102927539D02*
X135027125Y-102927539D01*
X135027125Y-102927539D02*
X134931887Y-102879920D01*
X134931887Y-102879920D02*
X134836649Y-102784681D01*
X134836649Y-102784681D02*
X134789030Y-102594205D01*
X134789030Y-102594205D02*
X134789030Y-102260872D01*
X134789030Y-102260872D02*
X134836649Y-102070396D01*
X134836649Y-102070396D02*
X134931887Y-101975158D01*
X134931887Y-101975158D02*
X135027125Y-101927539D01*
X135789030Y-101927539D02*
X136408077Y-101927539D01*
X136408077Y-101927539D02*
X136074744Y-102308491D01*
X136074744Y-102308491D02*
X136217601Y-102308491D01*
X136217601Y-102308491D02*
X136312839Y-102356110D01*
X136312839Y-102356110D02*
X136360458Y-102403729D01*
X136360458Y-102403729D02*
X136408077Y-102498967D01*
X136408077Y-102498967D02*
X136408077Y-102737062D01*
X136408077Y-102737062D02*
X136360458Y-102832300D01*
X136360458Y-102832300D02*
X136312839Y-102879920D01*
X136312839Y-102879920D02*
X136217601Y-102927539D01*
X136217601Y-102927539D02*
X135931887Y-102927539D01*
X135931887Y-102927539D02*
X135836649Y-102879920D01*
X135836649Y-102879920D02*
X135789030Y-102832300D01*
X132884268Y-104515158D02*
X132789030Y-104467539D01*
X132789030Y-104467539D02*
X132646173Y-104467539D01*
X132646173Y-104467539D02*
X132503316Y-104515158D01*
X132503316Y-104515158D02*
X132408078Y-104610396D01*
X132408078Y-104610396D02*
X132360459Y-104705634D01*
X132360459Y-104705634D02*
X132312840Y-104896110D01*
X132312840Y-104896110D02*
X132312840Y-105038967D01*
X132312840Y-105038967D02*
X132360459Y-105229443D01*
X132360459Y-105229443D02*
X132408078Y-105324681D01*
X132408078Y-105324681D02*
X132503316Y-105419920D01*
X132503316Y-105419920D02*
X132646173Y-105467539D01*
X132646173Y-105467539D02*
X132741411Y-105467539D01*
X132741411Y-105467539D02*
X132884268Y-105419920D01*
X132884268Y-105419920D02*
X132931887Y-105372300D01*
X132931887Y-105372300D02*
X132931887Y-105038967D01*
X132931887Y-105038967D02*
X132741411Y-105038967D01*
X133360459Y-105467539D02*
X133360459Y-104467539D01*
X133360459Y-104467539D02*
X133741411Y-104467539D01*
X133741411Y-104467539D02*
X133836649Y-104515158D01*
X133836649Y-104515158D02*
X133884268Y-104562777D01*
X133884268Y-104562777D02*
X133931887Y-104658015D01*
X133931887Y-104658015D02*
X133931887Y-104800872D01*
X133931887Y-104800872D02*
X133884268Y-104896110D01*
X133884268Y-104896110D02*
X133836649Y-104943729D01*
X133836649Y-104943729D02*
X133741411Y-104991348D01*
X133741411Y-104991348D02*
X133360459Y-104991348D01*
X134360459Y-105467539D02*
X134360459Y-104467539D01*
X135027125Y-104467539D02*
X135217601Y-104467539D01*
X135217601Y-104467539D02*
X135312839Y-104515158D01*
X135312839Y-104515158D02*
X135408077Y-104610396D01*
X135408077Y-104610396D02*
X135455696Y-104800872D01*
X135455696Y-104800872D02*
X135455696Y-105134205D01*
X135455696Y-105134205D02*
X135408077Y-105324681D01*
X135408077Y-105324681D02*
X135312839Y-105419920D01*
X135312839Y-105419920D02*
X135217601Y-105467539D01*
X135217601Y-105467539D02*
X135027125Y-105467539D01*
X135027125Y-105467539D02*
X134931887Y-105419920D01*
X134931887Y-105419920D02*
X134836649Y-105324681D01*
X134836649Y-105324681D02*
X134789030Y-105134205D01*
X134789030Y-105134205D02*
X134789030Y-104800872D01*
X134789030Y-104800872D02*
X134836649Y-104610396D01*
X134836649Y-104610396D02*
X134931887Y-104515158D01*
X134931887Y-104515158D02*
X135027125Y-104467539D01*
X136312839Y-104800872D02*
X136312839Y-105467539D01*
X136074744Y-104419920D02*
X135836649Y-105134205D01*
X135836649Y-105134205D02*
X136455696Y-105134205D01*
X137265220Y-104467539D02*
X137074744Y-104467539D01*
X137074744Y-104467539D02*
X136979506Y-104515158D01*
X136979506Y-104515158D02*
X136931887Y-104562777D01*
X136931887Y-104562777D02*
X136836649Y-104705634D01*
X136836649Y-104705634D02*
X136789030Y-104896110D01*
X136789030Y-104896110D02*
X136789030Y-105277062D01*
X136789030Y-105277062D02*
X136836649Y-105372300D01*
X136836649Y-105372300D02*
X136884268Y-105419920D01*
X136884268Y-105419920D02*
X136979506Y-105467539D01*
X136979506Y-105467539D02*
X137169982Y-105467539D01*
X137169982Y-105467539D02*
X137265220Y-105419920D01*
X137265220Y-105419920D02*
X137312839Y-105372300D01*
X137312839Y-105372300D02*
X137360458Y-105277062D01*
X137360458Y-105277062D02*
X137360458Y-105038967D01*
X137360458Y-105038967D02*
X137312839Y-104943729D01*
X137312839Y-104943729D02*
X137265220Y-104896110D01*
X137265220Y-104896110D02*
X137169982Y-104848491D01*
X137169982Y-104848491D02*
X136979506Y-104848491D01*
X136979506Y-104848491D02*
X136884268Y-104896110D01*
X136884268Y-104896110D02*
X136836649Y-104943729D01*
X136836649Y-104943729D02*
X136789030Y-105038967D01*
X132884268Y-107055158D02*
X132789030Y-107007539D01*
X132789030Y-107007539D02*
X132646173Y-107007539D01*
X132646173Y-107007539D02*
X132503316Y-107055158D01*
X132503316Y-107055158D02*
X132408078Y-107150396D01*
X132408078Y-107150396D02*
X132360459Y-107245634D01*
X132360459Y-107245634D02*
X132312840Y-107436110D01*
X132312840Y-107436110D02*
X132312840Y-107578967D01*
X132312840Y-107578967D02*
X132360459Y-107769443D01*
X132360459Y-107769443D02*
X132408078Y-107864681D01*
X132408078Y-107864681D02*
X132503316Y-107959920D01*
X132503316Y-107959920D02*
X132646173Y-108007539D01*
X132646173Y-108007539D02*
X132741411Y-108007539D01*
X132741411Y-108007539D02*
X132884268Y-107959920D01*
X132884268Y-107959920D02*
X132931887Y-107912300D01*
X132931887Y-107912300D02*
X132931887Y-107578967D01*
X132931887Y-107578967D02*
X132741411Y-107578967D01*
X133360459Y-108007539D02*
X133360459Y-107007539D01*
X133360459Y-107007539D02*
X133741411Y-107007539D01*
X133741411Y-107007539D02*
X133836649Y-107055158D01*
X133836649Y-107055158D02*
X133884268Y-107102777D01*
X133884268Y-107102777D02*
X133931887Y-107198015D01*
X133931887Y-107198015D02*
X133931887Y-107340872D01*
X133931887Y-107340872D02*
X133884268Y-107436110D01*
X133884268Y-107436110D02*
X133836649Y-107483729D01*
X133836649Y-107483729D02*
X133741411Y-107531348D01*
X133741411Y-107531348D02*
X133360459Y-107531348D01*
X134360459Y-108007539D02*
X134360459Y-107007539D01*
X135027125Y-107007539D02*
X135217601Y-107007539D01*
X135217601Y-107007539D02*
X135312839Y-107055158D01*
X135312839Y-107055158D02*
X135408077Y-107150396D01*
X135408077Y-107150396D02*
X135455696Y-107340872D01*
X135455696Y-107340872D02*
X135455696Y-107674205D01*
X135455696Y-107674205D02*
X135408077Y-107864681D01*
X135408077Y-107864681D02*
X135312839Y-107959920D01*
X135312839Y-107959920D02*
X135217601Y-108007539D01*
X135217601Y-108007539D02*
X135027125Y-108007539D01*
X135027125Y-108007539D02*
X134931887Y-107959920D01*
X134931887Y-107959920D02*
X134836649Y-107864681D01*
X134836649Y-107864681D02*
X134789030Y-107674205D01*
X134789030Y-107674205D02*
X134789030Y-107340872D01*
X134789030Y-107340872D02*
X134836649Y-107150396D01*
X134836649Y-107150396D02*
X134931887Y-107055158D01*
X134931887Y-107055158D02*
X135027125Y-107007539D01*
X135931887Y-108007539D02*
X136122363Y-108007539D01*
X136122363Y-108007539D02*
X136217601Y-107959920D01*
X136217601Y-107959920D02*
X136265220Y-107912300D01*
X136265220Y-107912300D02*
X136360458Y-107769443D01*
X136360458Y-107769443D02*
X136408077Y-107578967D01*
X136408077Y-107578967D02*
X136408077Y-107198015D01*
X136408077Y-107198015D02*
X136360458Y-107102777D01*
X136360458Y-107102777D02*
X136312839Y-107055158D01*
X136312839Y-107055158D02*
X136217601Y-107007539D01*
X136217601Y-107007539D02*
X136027125Y-107007539D01*
X136027125Y-107007539D02*
X135931887Y-107055158D01*
X135931887Y-107055158D02*
X135884268Y-107102777D01*
X135884268Y-107102777D02*
X135836649Y-107198015D01*
X135836649Y-107198015D02*
X135836649Y-107436110D01*
X135836649Y-107436110D02*
X135884268Y-107531348D01*
X135884268Y-107531348D02*
X135931887Y-107578967D01*
X135931887Y-107578967D02*
X136027125Y-107626586D01*
X136027125Y-107626586D02*
X136217601Y-107626586D01*
X136217601Y-107626586D02*
X136312839Y-107578967D01*
X136312839Y-107578967D02*
X136360458Y-107531348D01*
X136360458Y-107531348D02*
X136408077Y-107436110D01*
X132884268Y-109595158D02*
X132789030Y-109547539D01*
X132789030Y-109547539D02*
X132646173Y-109547539D01*
X132646173Y-109547539D02*
X132503316Y-109595158D01*
X132503316Y-109595158D02*
X132408078Y-109690396D01*
X132408078Y-109690396D02*
X132360459Y-109785634D01*
X132360459Y-109785634D02*
X132312840Y-109976110D01*
X132312840Y-109976110D02*
X132312840Y-110118967D01*
X132312840Y-110118967D02*
X132360459Y-110309443D01*
X132360459Y-110309443D02*
X132408078Y-110404681D01*
X132408078Y-110404681D02*
X132503316Y-110499920D01*
X132503316Y-110499920D02*
X132646173Y-110547539D01*
X132646173Y-110547539D02*
X132741411Y-110547539D01*
X132741411Y-110547539D02*
X132884268Y-110499920D01*
X132884268Y-110499920D02*
X132931887Y-110452300D01*
X132931887Y-110452300D02*
X132931887Y-110118967D01*
X132931887Y-110118967D02*
X132741411Y-110118967D01*
X133360459Y-110547539D02*
X133360459Y-109547539D01*
X133360459Y-109547539D02*
X133741411Y-109547539D01*
X133741411Y-109547539D02*
X133836649Y-109595158D01*
X133836649Y-109595158D02*
X133884268Y-109642777D01*
X133884268Y-109642777D02*
X133931887Y-109738015D01*
X133931887Y-109738015D02*
X133931887Y-109880872D01*
X133931887Y-109880872D02*
X133884268Y-109976110D01*
X133884268Y-109976110D02*
X133836649Y-110023729D01*
X133836649Y-110023729D02*
X133741411Y-110071348D01*
X133741411Y-110071348D02*
X133360459Y-110071348D01*
X134360459Y-110547539D02*
X134360459Y-109547539D01*
X135027125Y-109547539D02*
X135217601Y-109547539D01*
X135217601Y-109547539D02*
X135312839Y-109595158D01*
X135312839Y-109595158D02*
X135408077Y-109690396D01*
X135408077Y-109690396D02*
X135455696Y-109880872D01*
X135455696Y-109880872D02*
X135455696Y-110214205D01*
X135455696Y-110214205D02*
X135408077Y-110404681D01*
X135408077Y-110404681D02*
X135312839Y-110499920D01*
X135312839Y-110499920D02*
X135217601Y-110547539D01*
X135217601Y-110547539D02*
X135027125Y-110547539D01*
X135027125Y-110547539D02*
X134931887Y-110499920D01*
X134931887Y-110499920D02*
X134836649Y-110404681D01*
X134836649Y-110404681D02*
X134789030Y-110214205D01*
X134789030Y-110214205D02*
X134789030Y-109880872D01*
X134789030Y-109880872D02*
X134836649Y-109690396D01*
X134836649Y-109690396D02*
X134931887Y-109595158D01*
X134931887Y-109595158D02*
X135027125Y-109547539D01*
X136408077Y-110547539D02*
X135836649Y-110547539D01*
X136122363Y-110547539D02*
X136122363Y-109547539D01*
X136122363Y-109547539D02*
X136027125Y-109690396D01*
X136027125Y-109690396D02*
X135931887Y-109785634D01*
X135931887Y-109785634D02*
X135836649Y-109833253D01*
X137027125Y-109547539D02*
X137122363Y-109547539D01*
X137122363Y-109547539D02*
X137217601Y-109595158D01*
X137217601Y-109595158D02*
X137265220Y-109642777D01*
X137265220Y-109642777D02*
X137312839Y-109738015D01*
X137312839Y-109738015D02*
X137360458Y-109928491D01*
X137360458Y-109928491D02*
X137360458Y-110166586D01*
X137360458Y-110166586D02*
X137312839Y-110357062D01*
X137312839Y-110357062D02*
X137265220Y-110452300D01*
X137265220Y-110452300D02*
X137217601Y-110499920D01*
X137217601Y-110499920D02*
X137122363Y-110547539D01*
X137122363Y-110547539D02*
X137027125Y-110547539D01*
X137027125Y-110547539D02*
X136931887Y-110499920D01*
X136931887Y-110499920D02*
X136884268Y-110452300D01*
X136884268Y-110452300D02*
X136836649Y-110357062D01*
X136836649Y-110357062D02*
X136789030Y-110166586D01*
X136789030Y-110166586D02*
X136789030Y-109928491D01*
X136789030Y-109928491D02*
X136836649Y-109738015D01*
X136836649Y-109738015D02*
X136884268Y-109642777D01*
X136884268Y-109642777D02*
X136931887Y-109595158D01*
X136931887Y-109595158D02*
X137027125Y-109547539D01*
X132884268Y-112135158D02*
X132789030Y-112087539D01*
X132789030Y-112087539D02*
X132646173Y-112087539D01*
X132646173Y-112087539D02*
X132503316Y-112135158D01*
X132503316Y-112135158D02*
X132408078Y-112230396D01*
X132408078Y-112230396D02*
X132360459Y-112325634D01*
X132360459Y-112325634D02*
X132312840Y-112516110D01*
X132312840Y-112516110D02*
X132312840Y-112658967D01*
X132312840Y-112658967D02*
X132360459Y-112849443D01*
X132360459Y-112849443D02*
X132408078Y-112944681D01*
X132408078Y-112944681D02*
X132503316Y-113039920D01*
X132503316Y-113039920D02*
X132646173Y-113087539D01*
X132646173Y-113087539D02*
X132741411Y-113087539D01*
X132741411Y-113087539D02*
X132884268Y-113039920D01*
X132884268Y-113039920D02*
X132931887Y-112992300D01*
X132931887Y-112992300D02*
X132931887Y-112658967D01*
X132931887Y-112658967D02*
X132741411Y-112658967D01*
X133360459Y-113087539D02*
X133360459Y-112087539D01*
X133360459Y-112087539D02*
X133741411Y-112087539D01*
X133741411Y-112087539D02*
X133836649Y-112135158D01*
X133836649Y-112135158D02*
X133884268Y-112182777D01*
X133884268Y-112182777D02*
X133931887Y-112278015D01*
X133931887Y-112278015D02*
X133931887Y-112420872D01*
X133931887Y-112420872D02*
X133884268Y-112516110D01*
X133884268Y-112516110D02*
X133836649Y-112563729D01*
X133836649Y-112563729D02*
X133741411Y-112611348D01*
X133741411Y-112611348D02*
X133360459Y-112611348D01*
X134360459Y-113087539D02*
X134360459Y-112087539D01*
X135027125Y-112087539D02*
X135217601Y-112087539D01*
X135217601Y-112087539D02*
X135312839Y-112135158D01*
X135312839Y-112135158D02*
X135408077Y-112230396D01*
X135408077Y-112230396D02*
X135455696Y-112420872D01*
X135455696Y-112420872D02*
X135455696Y-112754205D01*
X135455696Y-112754205D02*
X135408077Y-112944681D01*
X135408077Y-112944681D02*
X135312839Y-113039920D01*
X135312839Y-113039920D02*
X135217601Y-113087539D01*
X135217601Y-113087539D02*
X135027125Y-113087539D01*
X135027125Y-113087539D02*
X134931887Y-113039920D01*
X134931887Y-113039920D02*
X134836649Y-112944681D01*
X134836649Y-112944681D02*
X134789030Y-112754205D01*
X134789030Y-112754205D02*
X134789030Y-112420872D01*
X134789030Y-112420872D02*
X134836649Y-112230396D01*
X134836649Y-112230396D02*
X134931887Y-112135158D01*
X134931887Y-112135158D02*
X135027125Y-112087539D01*
X136408077Y-113087539D02*
X135836649Y-113087539D01*
X136122363Y-113087539D02*
X136122363Y-112087539D01*
X136122363Y-112087539D02*
X136027125Y-112230396D01*
X136027125Y-112230396D02*
X135931887Y-112325634D01*
X135931887Y-112325634D02*
X135836649Y-112373253D01*
X137360458Y-113087539D02*
X136789030Y-113087539D01*
X137074744Y-113087539D02*
X137074744Y-112087539D01*
X137074744Y-112087539D02*
X136979506Y-112230396D01*
X136979506Y-112230396D02*
X136884268Y-112325634D01*
X136884268Y-112325634D02*
X136789030Y-112373253D01*
X132884268Y-114675158D02*
X132789030Y-114627539D01*
X132789030Y-114627539D02*
X132646173Y-114627539D01*
X132646173Y-114627539D02*
X132503316Y-114675158D01*
X132503316Y-114675158D02*
X132408078Y-114770396D01*
X132408078Y-114770396D02*
X132360459Y-114865634D01*
X132360459Y-114865634D02*
X132312840Y-115056110D01*
X132312840Y-115056110D02*
X132312840Y-115198967D01*
X132312840Y-115198967D02*
X132360459Y-115389443D01*
X132360459Y-115389443D02*
X132408078Y-115484681D01*
X132408078Y-115484681D02*
X132503316Y-115579920D01*
X132503316Y-115579920D02*
X132646173Y-115627539D01*
X132646173Y-115627539D02*
X132741411Y-115627539D01*
X132741411Y-115627539D02*
X132884268Y-115579920D01*
X132884268Y-115579920D02*
X132931887Y-115532300D01*
X132931887Y-115532300D02*
X132931887Y-115198967D01*
X132931887Y-115198967D02*
X132741411Y-115198967D01*
X133360459Y-115627539D02*
X133360459Y-114627539D01*
X133360459Y-114627539D02*
X133741411Y-114627539D01*
X133741411Y-114627539D02*
X133836649Y-114675158D01*
X133836649Y-114675158D02*
X133884268Y-114722777D01*
X133884268Y-114722777D02*
X133931887Y-114818015D01*
X133931887Y-114818015D02*
X133931887Y-114960872D01*
X133931887Y-114960872D02*
X133884268Y-115056110D01*
X133884268Y-115056110D02*
X133836649Y-115103729D01*
X133836649Y-115103729D02*
X133741411Y-115151348D01*
X133741411Y-115151348D02*
X133360459Y-115151348D01*
X134360459Y-115627539D02*
X134360459Y-114627539D01*
X135027125Y-114627539D02*
X135217601Y-114627539D01*
X135217601Y-114627539D02*
X135312839Y-114675158D01*
X135312839Y-114675158D02*
X135408077Y-114770396D01*
X135408077Y-114770396D02*
X135455696Y-114960872D01*
X135455696Y-114960872D02*
X135455696Y-115294205D01*
X135455696Y-115294205D02*
X135408077Y-115484681D01*
X135408077Y-115484681D02*
X135312839Y-115579920D01*
X135312839Y-115579920D02*
X135217601Y-115627539D01*
X135217601Y-115627539D02*
X135027125Y-115627539D01*
X135027125Y-115627539D02*
X134931887Y-115579920D01*
X134931887Y-115579920D02*
X134836649Y-115484681D01*
X134836649Y-115484681D02*
X134789030Y-115294205D01*
X134789030Y-115294205D02*
X134789030Y-114960872D01*
X134789030Y-114960872D02*
X134836649Y-114770396D01*
X134836649Y-114770396D02*
X134931887Y-114675158D01*
X134931887Y-114675158D02*
X135027125Y-114627539D01*
X136408077Y-115627539D02*
X135836649Y-115627539D01*
X136122363Y-115627539D02*
X136122363Y-114627539D01*
X136122363Y-114627539D02*
X136027125Y-114770396D01*
X136027125Y-114770396D02*
X135931887Y-114865634D01*
X135931887Y-114865634D02*
X135836649Y-114913253D01*
X136789030Y-114722777D02*
X136836649Y-114675158D01*
X136836649Y-114675158D02*
X136931887Y-114627539D01*
X136931887Y-114627539D02*
X137169982Y-114627539D01*
X137169982Y-114627539D02*
X137265220Y-114675158D01*
X137265220Y-114675158D02*
X137312839Y-114722777D01*
X137312839Y-114722777D02*
X137360458Y-114818015D01*
X137360458Y-114818015D02*
X137360458Y-114913253D01*
X137360458Y-114913253D02*
X137312839Y-115056110D01*
X137312839Y-115056110D02*
X136741411Y-115627539D01*
X136741411Y-115627539D02*
X137360458Y-115627539D01*
X132884268Y-117215158D02*
X132789030Y-117167539D01*
X132789030Y-117167539D02*
X132646173Y-117167539D01*
X132646173Y-117167539D02*
X132503316Y-117215158D01*
X132503316Y-117215158D02*
X132408078Y-117310396D01*
X132408078Y-117310396D02*
X132360459Y-117405634D01*
X132360459Y-117405634D02*
X132312840Y-117596110D01*
X132312840Y-117596110D02*
X132312840Y-117738967D01*
X132312840Y-117738967D02*
X132360459Y-117929443D01*
X132360459Y-117929443D02*
X132408078Y-118024681D01*
X132408078Y-118024681D02*
X132503316Y-118119920D01*
X132503316Y-118119920D02*
X132646173Y-118167539D01*
X132646173Y-118167539D02*
X132741411Y-118167539D01*
X132741411Y-118167539D02*
X132884268Y-118119920D01*
X132884268Y-118119920D02*
X132931887Y-118072300D01*
X132931887Y-118072300D02*
X132931887Y-117738967D01*
X132931887Y-117738967D02*
X132741411Y-117738967D01*
X133360459Y-118167539D02*
X133360459Y-117167539D01*
X133360459Y-117167539D02*
X133741411Y-117167539D01*
X133741411Y-117167539D02*
X133836649Y-117215158D01*
X133836649Y-117215158D02*
X133884268Y-117262777D01*
X133884268Y-117262777D02*
X133931887Y-117358015D01*
X133931887Y-117358015D02*
X133931887Y-117500872D01*
X133931887Y-117500872D02*
X133884268Y-117596110D01*
X133884268Y-117596110D02*
X133836649Y-117643729D01*
X133836649Y-117643729D02*
X133741411Y-117691348D01*
X133741411Y-117691348D02*
X133360459Y-117691348D01*
X134360459Y-118167539D02*
X134360459Y-117167539D01*
X135027125Y-117167539D02*
X135217601Y-117167539D01*
X135217601Y-117167539D02*
X135312839Y-117215158D01*
X135312839Y-117215158D02*
X135408077Y-117310396D01*
X135408077Y-117310396D02*
X135455696Y-117500872D01*
X135455696Y-117500872D02*
X135455696Y-117834205D01*
X135455696Y-117834205D02*
X135408077Y-118024681D01*
X135408077Y-118024681D02*
X135312839Y-118119920D01*
X135312839Y-118119920D02*
X135217601Y-118167539D01*
X135217601Y-118167539D02*
X135027125Y-118167539D01*
X135027125Y-118167539D02*
X134931887Y-118119920D01*
X134931887Y-118119920D02*
X134836649Y-118024681D01*
X134836649Y-118024681D02*
X134789030Y-117834205D01*
X134789030Y-117834205D02*
X134789030Y-117500872D01*
X134789030Y-117500872D02*
X134836649Y-117310396D01*
X134836649Y-117310396D02*
X134931887Y-117215158D01*
X134931887Y-117215158D02*
X135027125Y-117167539D01*
X136408077Y-118167539D02*
X135836649Y-118167539D01*
X136122363Y-118167539D02*
X136122363Y-117167539D01*
X136122363Y-117167539D02*
X136027125Y-117310396D01*
X136027125Y-117310396D02*
X135931887Y-117405634D01*
X135931887Y-117405634D02*
X135836649Y-117453253D01*
X136741411Y-117167539D02*
X137360458Y-117167539D01*
X137360458Y-117167539D02*
X137027125Y-117548491D01*
X137027125Y-117548491D02*
X137169982Y-117548491D01*
X137169982Y-117548491D02*
X137265220Y-117596110D01*
X137265220Y-117596110D02*
X137312839Y-117643729D01*
X137312839Y-117643729D02*
X137360458Y-117738967D01*
X137360458Y-117738967D02*
X137360458Y-117977062D01*
X137360458Y-117977062D02*
X137312839Y-118072300D01*
X137312839Y-118072300D02*
X137265220Y-118119920D01*
X137265220Y-118119920D02*
X137169982Y-118167539D01*
X137169982Y-118167539D02*
X136884268Y-118167539D01*
X136884268Y-118167539D02*
X136789030Y-118119920D01*
X136789030Y-118119920D02*
X136741411Y-118072300D01*
X132884268Y-119755158D02*
X132789030Y-119707539D01*
X132789030Y-119707539D02*
X132646173Y-119707539D01*
X132646173Y-119707539D02*
X132503316Y-119755158D01*
X132503316Y-119755158D02*
X132408078Y-119850396D01*
X132408078Y-119850396D02*
X132360459Y-119945634D01*
X132360459Y-119945634D02*
X132312840Y-120136110D01*
X132312840Y-120136110D02*
X132312840Y-120278967D01*
X132312840Y-120278967D02*
X132360459Y-120469443D01*
X132360459Y-120469443D02*
X132408078Y-120564681D01*
X132408078Y-120564681D02*
X132503316Y-120659920D01*
X132503316Y-120659920D02*
X132646173Y-120707539D01*
X132646173Y-120707539D02*
X132741411Y-120707539D01*
X132741411Y-120707539D02*
X132884268Y-120659920D01*
X132884268Y-120659920D02*
X132931887Y-120612300D01*
X132931887Y-120612300D02*
X132931887Y-120278967D01*
X132931887Y-120278967D02*
X132741411Y-120278967D01*
X133360459Y-120707539D02*
X133360459Y-119707539D01*
X133360459Y-119707539D02*
X133741411Y-119707539D01*
X133741411Y-119707539D02*
X133836649Y-119755158D01*
X133836649Y-119755158D02*
X133884268Y-119802777D01*
X133884268Y-119802777D02*
X133931887Y-119898015D01*
X133931887Y-119898015D02*
X133931887Y-120040872D01*
X133931887Y-120040872D02*
X133884268Y-120136110D01*
X133884268Y-120136110D02*
X133836649Y-120183729D01*
X133836649Y-120183729D02*
X133741411Y-120231348D01*
X133741411Y-120231348D02*
X133360459Y-120231348D01*
X134360459Y-120707539D02*
X134360459Y-119707539D01*
X135027125Y-119707539D02*
X135217601Y-119707539D01*
X135217601Y-119707539D02*
X135312839Y-119755158D01*
X135312839Y-119755158D02*
X135408077Y-119850396D01*
X135408077Y-119850396D02*
X135455696Y-120040872D01*
X135455696Y-120040872D02*
X135455696Y-120374205D01*
X135455696Y-120374205D02*
X135408077Y-120564681D01*
X135408077Y-120564681D02*
X135312839Y-120659920D01*
X135312839Y-120659920D02*
X135217601Y-120707539D01*
X135217601Y-120707539D02*
X135027125Y-120707539D01*
X135027125Y-120707539D02*
X134931887Y-120659920D01*
X134931887Y-120659920D02*
X134836649Y-120564681D01*
X134836649Y-120564681D02*
X134789030Y-120374205D01*
X134789030Y-120374205D02*
X134789030Y-120040872D01*
X134789030Y-120040872D02*
X134836649Y-119850396D01*
X134836649Y-119850396D02*
X134931887Y-119755158D01*
X134931887Y-119755158D02*
X135027125Y-119707539D01*
X136408077Y-120707539D02*
X135836649Y-120707539D01*
X136122363Y-120707539D02*
X136122363Y-119707539D01*
X136122363Y-119707539D02*
X136027125Y-119850396D01*
X136027125Y-119850396D02*
X135931887Y-119945634D01*
X135931887Y-119945634D02*
X135836649Y-119993253D01*
X137265220Y-120040872D02*
X137265220Y-120707539D01*
X137027125Y-119659920D02*
X136789030Y-120374205D01*
X136789030Y-120374205D02*
X137408077Y-120374205D01*
X133086969Y-122244819D02*
X132610779Y-122244819D01*
X132610779Y-122244819D02*
X132563160Y-122721009D01*
X132563160Y-122721009D02*
X132610779Y-122673390D01*
X132610779Y-122673390D02*
X132706017Y-122625771D01*
X132706017Y-122625771D02*
X132944112Y-122625771D01*
X132944112Y-122625771D02*
X133039350Y-122673390D01*
X133039350Y-122673390D02*
X133086969Y-122721009D01*
X133086969Y-122721009D02*
X133134588Y-122816247D01*
X133134588Y-122816247D02*
X133134588Y-123054342D01*
X133134588Y-123054342D02*
X133086969Y-123149580D01*
X133086969Y-123149580D02*
X133039350Y-123197200D01*
X133039350Y-123197200D02*
X132944112Y-123244819D01*
X132944112Y-123244819D02*
X132706017Y-123244819D01*
X132706017Y-123244819D02*
X132610779Y-123197200D01*
X132610779Y-123197200D02*
X132563160Y-123149580D01*
X133420303Y-122244819D02*
X133753636Y-123244819D01*
X133753636Y-123244819D02*
X134086969Y-122244819D01*
X133134588Y-124832438D02*
X133039350Y-124784819D01*
X133039350Y-124784819D02*
X132896493Y-124784819D01*
X132896493Y-124784819D02*
X132753636Y-124832438D01*
X132753636Y-124832438D02*
X132658398Y-124927676D01*
X132658398Y-124927676D02*
X132610779Y-125022914D01*
X132610779Y-125022914D02*
X132563160Y-125213390D01*
X132563160Y-125213390D02*
X132563160Y-125356247D01*
X132563160Y-125356247D02*
X132610779Y-125546723D01*
X132610779Y-125546723D02*
X132658398Y-125641961D01*
X132658398Y-125641961D02*
X132753636Y-125737200D01*
X132753636Y-125737200D02*
X132896493Y-125784819D01*
X132896493Y-125784819D02*
X132991731Y-125784819D01*
X132991731Y-125784819D02*
X133134588Y-125737200D01*
X133134588Y-125737200D02*
X133182207Y-125689580D01*
X133182207Y-125689580D02*
X133182207Y-125356247D01*
X133182207Y-125356247D02*
X132991731Y-125356247D01*
X133610779Y-125784819D02*
X133610779Y-124784819D01*
X133610779Y-124784819D02*
X134182207Y-125784819D01*
X134182207Y-125784819D02*
X134182207Y-124784819D01*
X134658398Y-125784819D02*
X134658398Y-124784819D01*
X134658398Y-124784819D02*
X134896493Y-124784819D01*
X134896493Y-124784819D02*
X135039350Y-124832438D01*
X135039350Y-124832438D02*
X135134588Y-124927676D01*
X135134588Y-124927676D02*
X135182207Y-125022914D01*
X135182207Y-125022914D02*
X135229826Y-125213390D01*
X135229826Y-125213390D02*
X135229826Y-125356247D01*
X135229826Y-125356247D02*
X135182207Y-125546723D01*
X135182207Y-125546723D02*
X135134588Y-125641961D01*
X135134588Y-125641961D02*
X135039350Y-125737200D01*
X135039350Y-125737200D02*
X134896493Y-125784819D01*
X134896493Y-125784819D02*
X134658398Y-125784819D01*
X133000233Y-77597539D02*
X132666900Y-77121348D01*
X132428805Y-77597539D02*
X132428805Y-76597539D01*
X132428805Y-76597539D02*
X132809757Y-76597539D01*
X132809757Y-76597539D02*
X132904995Y-76645158D01*
X132904995Y-76645158D02*
X132952614Y-76692777D01*
X132952614Y-76692777D02*
X133000233Y-76788015D01*
X133000233Y-76788015D02*
X133000233Y-76930872D01*
X133000233Y-76930872D02*
X132952614Y-77026110D01*
X132952614Y-77026110D02*
X132904995Y-77073729D01*
X132904995Y-77073729D02*
X132809757Y-77121348D01*
X132809757Y-77121348D02*
X132428805Y-77121348D01*
X133381186Y-77549920D02*
X133524043Y-77597539D01*
X133524043Y-77597539D02*
X133762138Y-77597539D01*
X133762138Y-77597539D02*
X133857376Y-77549920D01*
X133857376Y-77549920D02*
X133904995Y-77502300D01*
X133904995Y-77502300D02*
X133952614Y-77407062D01*
X133952614Y-77407062D02*
X133952614Y-77311824D01*
X133952614Y-77311824D02*
X133904995Y-77216586D01*
X133904995Y-77216586D02*
X133857376Y-77168967D01*
X133857376Y-77168967D02*
X133762138Y-77121348D01*
X133762138Y-77121348D02*
X133571662Y-77073729D01*
X133571662Y-77073729D02*
X133476424Y-77026110D01*
X133476424Y-77026110D02*
X133428805Y-76978491D01*
X133428805Y-76978491D02*
X133381186Y-76883253D01*
X133381186Y-76883253D02*
X133381186Y-76788015D01*
X133381186Y-76788015D02*
X133428805Y-76692777D01*
X133428805Y-76692777D02*
X133476424Y-76645158D01*
X133476424Y-76645158D02*
X133571662Y-76597539D01*
X133571662Y-76597539D02*
X133809757Y-76597539D01*
X133809757Y-76597539D02*
X133952614Y-76645158D01*
X134238329Y-76597539D02*
X134809757Y-76597539D01*
X134524043Y-77597539D02*
X134524043Y-76597539D01*
X152499281Y-71495158D02*
X152404043Y-71447539D01*
X152404043Y-71447539D02*
X152261186Y-71447539D01*
X152261186Y-71447539D02*
X152118329Y-71495158D01*
X152118329Y-71495158D02*
X152023091Y-71590396D01*
X152023091Y-71590396D02*
X151975472Y-71685634D01*
X151975472Y-71685634D02*
X151927853Y-71876110D01*
X151927853Y-71876110D02*
X151927853Y-72018967D01*
X151927853Y-72018967D02*
X151975472Y-72209443D01*
X151975472Y-72209443D02*
X152023091Y-72304681D01*
X152023091Y-72304681D02*
X152118329Y-72399920D01*
X152118329Y-72399920D02*
X152261186Y-72447539D01*
X152261186Y-72447539D02*
X152356424Y-72447539D01*
X152356424Y-72447539D02*
X152499281Y-72399920D01*
X152499281Y-72399920D02*
X152546900Y-72352300D01*
X152546900Y-72352300D02*
X152546900Y-72018967D01*
X152546900Y-72018967D02*
X152356424Y-72018967D01*
X152975472Y-72447539D02*
X152975472Y-71447539D01*
X152975472Y-71447539D02*
X153546900Y-72447539D01*
X153546900Y-72447539D02*
X153546900Y-71447539D01*
X154023091Y-72447539D02*
X154023091Y-71447539D01*
X154023091Y-71447539D02*
X154261186Y-71447539D01*
X154261186Y-71447539D02*
X154404043Y-71495158D01*
X154404043Y-71495158D02*
X154499281Y-71590396D01*
X154499281Y-71590396D02*
X154546900Y-71685634D01*
X154546900Y-71685634D02*
X154594519Y-71876110D01*
X154594519Y-71876110D02*
X154594519Y-72018967D01*
X154594519Y-72018967D02*
X154546900Y-72209443D01*
X154546900Y-72209443D02*
X154499281Y-72304681D01*
X154499281Y-72304681D02*
X154404043Y-72399920D01*
X154404043Y-72399920D02*
X154261186Y-72447539D01*
X154261186Y-72447539D02*
X154023091Y-72447539D01*
X144356424Y-74035158D02*
X144261186Y-73987539D01*
X144261186Y-73987539D02*
X144118329Y-73987539D01*
X144118329Y-73987539D02*
X143975472Y-74035158D01*
X143975472Y-74035158D02*
X143880234Y-74130396D01*
X143880234Y-74130396D02*
X143832615Y-74225634D01*
X143832615Y-74225634D02*
X143784996Y-74416110D01*
X143784996Y-74416110D02*
X143784996Y-74558967D01*
X143784996Y-74558967D02*
X143832615Y-74749443D01*
X143832615Y-74749443D02*
X143880234Y-74844681D01*
X143880234Y-74844681D02*
X143975472Y-74939920D01*
X143975472Y-74939920D02*
X144118329Y-74987539D01*
X144118329Y-74987539D02*
X144213567Y-74987539D01*
X144213567Y-74987539D02*
X144356424Y-74939920D01*
X144356424Y-74939920D02*
X144404043Y-74892300D01*
X144404043Y-74892300D02*
X144404043Y-74558967D01*
X144404043Y-74558967D02*
X144213567Y-74558967D01*
X144832615Y-74987539D02*
X144832615Y-73987539D01*
X144832615Y-73987539D02*
X145213567Y-73987539D01*
X145213567Y-73987539D02*
X145308805Y-74035158D01*
X145308805Y-74035158D02*
X145356424Y-74082777D01*
X145356424Y-74082777D02*
X145404043Y-74178015D01*
X145404043Y-74178015D02*
X145404043Y-74320872D01*
X145404043Y-74320872D02*
X145356424Y-74416110D01*
X145356424Y-74416110D02*
X145308805Y-74463729D01*
X145308805Y-74463729D02*
X145213567Y-74511348D01*
X145213567Y-74511348D02*
X144832615Y-74511348D01*
X145832615Y-74987539D02*
X145832615Y-73987539D01*
X146499281Y-73987539D02*
X146689757Y-73987539D01*
X146689757Y-73987539D02*
X146784995Y-74035158D01*
X146784995Y-74035158D02*
X146880233Y-74130396D01*
X146880233Y-74130396D02*
X146927852Y-74320872D01*
X146927852Y-74320872D02*
X146927852Y-74654205D01*
X146927852Y-74654205D02*
X146880233Y-74844681D01*
X146880233Y-74844681D02*
X146784995Y-74939920D01*
X146784995Y-74939920D02*
X146689757Y-74987539D01*
X146689757Y-74987539D02*
X146499281Y-74987539D01*
X146499281Y-74987539D02*
X146404043Y-74939920D01*
X146404043Y-74939920D02*
X146308805Y-74844681D01*
X146308805Y-74844681D02*
X146261186Y-74654205D01*
X146261186Y-74654205D02*
X146261186Y-74320872D01*
X146261186Y-74320872D02*
X146308805Y-74130396D01*
X146308805Y-74130396D02*
X146404043Y-74035158D01*
X146404043Y-74035158D02*
X146499281Y-73987539D01*
X147784995Y-74320872D02*
X147784995Y-74987539D01*
X147546900Y-73939920D02*
X147308805Y-74654205D01*
X147308805Y-74654205D02*
X147927852Y-74654205D01*
X148213567Y-73987539D02*
X148832614Y-73987539D01*
X148832614Y-73987539D02*
X148499281Y-74368491D01*
X148499281Y-74368491D02*
X148642138Y-74368491D01*
X148642138Y-74368491D02*
X148737376Y-74416110D01*
X148737376Y-74416110D02*
X148784995Y-74463729D01*
X148784995Y-74463729D02*
X148832614Y-74558967D01*
X148832614Y-74558967D02*
X148832614Y-74797062D01*
X148832614Y-74797062D02*
X148784995Y-74892300D01*
X148784995Y-74892300D02*
X148737376Y-74939920D01*
X148737376Y-74939920D02*
X148642138Y-74987539D01*
X148642138Y-74987539D02*
X148356424Y-74987539D01*
X148356424Y-74987539D02*
X148261186Y-74939920D01*
X148261186Y-74939920D02*
X148213567Y-74892300D01*
X149975471Y-73939920D02*
X149118329Y-75225634D01*
X150308805Y-73987539D02*
X150308805Y-74797062D01*
X150308805Y-74797062D02*
X150356424Y-74892300D01*
X150356424Y-74892300D02*
X150404043Y-74939920D01*
X150404043Y-74939920D02*
X150499281Y-74987539D01*
X150499281Y-74987539D02*
X150689757Y-74987539D01*
X150689757Y-74987539D02*
X150784995Y-74939920D01*
X150784995Y-74939920D02*
X150832614Y-74892300D01*
X150832614Y-74892300D02*
X150880233Y-74797062D01*
X150880233Y-74797062D02*
X150880233Y-73987539D01*
X151546900Y-73987539D02*
X151642138Y-73987539D01*
X151642138Y-73987539D02*
X151737376Y-74035158D01*
X151737376Y-74035158D02*
X151784995Y-74082777D01*
X151784995Y-74082777D02*
X151832614Y-74178015D01*
X151832614Y-74178015D02*
X151880233Y-74368491D01*
X151880233Y-74368491D02*
X151880233Y-74606586D01*
X151880233Y-74606586D02*
X151832614Y-74797062D01*
X151832614Y-74797062D02*
X151784995Y-74892300D01*
X151784995Y-74892300D02*
X151737376Y-74939920D01*
X151737376Y-74939920D02*
X151642138Y-74987539D01*
X151642138Y-74987539D02*
X151546900Y-74987539D01*
X151546900Y-74987539D02*
X151451662Y-74939920D01*
X151451662Y-74939920D02*
X151404043Y-74892300D01*
X151404043Y-74892300D02*
X151356424Y-74797062D01*
X151356424Y-74797062D02*
X151308805Y-74606586D01*
X151308805Y-74606586D02*
X151308805Y-74368491D01*
X151308805Y-74368491D02*
X151356424Y-74178015D01*
X151356424Y-74178015D02*
X151404043Y-74082777D01*
X151404043Y-74082777D02*
X151451662Y-74035158D01*
X151451662Y-74035158D02*
X151546900Y-73987539D01*
X152165948Y-73987539D02*
X152737376Y-73987539D01*
X152451662Y-74987539D02*
X152451662Y-73987539D01*
X152975472Y-73987539D02*
X153642138Y-74987539D01*
X153642138Y-73987539D02*
X152975472Y-74987539D01*
X154023091Y-74987539D02*
X154023091Y-73987539D01*
X154023091Y-73987539D02*
X154261186Y-73987539D01*
X154261186Y-73987539D02*
X154404043Y-74035158D01*
X154404043Y-74035158D02*
X154499281Y-74130396D01*
X154499281Y-74130396D02*
X154546900Y-74225634D01*
X154546900Y-74225634D02*
X154594519Y-74416110D01*
X154594519Y-74416110D02*
X154594519Y-74558967D01*
X154594519Y-74558967D02*
X154546900Y-74749443D01*
X154546900Y-74749443D02*
X154499281Y-74844681D01*
X154499281Y-74844681D02*
X154404043Y-74939920D01*
X154404043Y-74939920D02*
X154261186Y-74987539D01*
X154261186Y-74987539D02*
X154023091Y-74987539D01*
X144118329Y-76575158D02*
X144023091Y-76527539D01*
X144023091Y-76527539D02*
X143880234Y-76527539D01*
X143880234Y-76527539D02*
X143737377Y-76575158D01*
X143737377Y-76575158D02*
X143642139Y-76670396D01*
X143642139Y-76670396D02*
X143594520Y-76765634D01*
X143594520Y-76765634D02*
X143546901Y-76956110D01*
X143546901Y-76956110D02*
X143546901Y-77098967D01*
X143546901Y-77098967D02*
X143594520Y-77289443D01*
X143594520Y-77289443D02*
X143642139Y-77384681D01*
X143642139Y-77384681D02*
X143737377Y-77479920D01*
X143737377Y-77479920D02*
X143880234Y-77527539D01*
X143880234Y-77527539D02*
X143975472Y-77527539D01*
X143975472Y-77527539D02*
X144118329Y-77479920D01*
X144118329Y-77479920D02*
X144165948Y-77432300D01*
X144165948Y-77432300D02*
X144165948Y-77098967D01*
X144165948Y-77098967D02*
X143975472Y-77098967D01*
X144594520Y-77527539D02*
X144594520Y-76527539D01*
X144594520Y-76527539D02*
X144975472Y-76527539D01*
X144975472Y-76527539D02*
X145070710Y-76575158D01*
X145070710Y-76575158D02*
X145118329Y-76622777D01*
X145118329Y-76622777D02*
X145165948Y-76718015D01*
X145165948Y-76718015D02*
X145165948Y-76860872D01*
X145165948Y-76860872D02*
X145118329Y-76956110D01*
X145118329Y-76956110D02*
X145070710Y-77003729D01*
X145070710Y-77003729D02*
X144975472Y-77051348D01*
X144975472Y-77051348D02*
X144594520Y-77051348D01*
X145594520Y-77527539D02*
X145594520Y-76527539D01*
X146261186Y-76527539D02*
X146451662Y-76527539D01*
X146451662Y-76527539D02*
X146546900Y-76575158D01*
X146546900Y-76575158D02*
X146642138Y-76670396D01*
X146642138Y-76670396D02*
X146689757Y-76860872D01*
X146689757Y-76860872D02*
X146689757Y-77194205D01*
X146689757Y-77194205D02*
X146642138Y-77384681D01*
X146642138Y-77384681D02*
X146546900Y-77479920D01*
X146546900Y-77479920D02*
X146451662Y-77527539D01*
X146451662Y-77527539D02*
X146261186Y-77527539D01*
X146261186Y-77527539D02*
X146165948Y-77479920D01*
X146165948Y-77479920D02*
X146070710Y-77384681D01*
X146070710Y-77384681D02*
X146023091Y-77194205D01*
X146023091Y-77194205D02*
X146023091Y-76860872D01*
X146023091Y-76860872D02*
X146070710Y-76670396D01*
X146070710Y-76670396D02*
X146165948Y-76575158D01*
X146165948Y-76575158D02*
X146261186Y-76527539D01*
X147546900Y-76860872D02*
X147546900Y-77527539D01*
X147308805Y-76479920D02*
X147070710Y-77194205D01*
X147070710Y-77194205D02*
X147689757Y-77194205D01*
X148499281Y-76860872D02*
X148499281Y-77527539D01*
X148261186Y-76479920D02*
X148023091Y-77194205D01*
X148023091Y-77194205D02*
X148642138Y-77194205D01*
X149737376Y-76479920D02*
X148880234Y-77765634D01*
X150070710Y-76527539D02*
X150070710Y-77337062D01*
X150070710Y-77337062D02*
X150118329Y-77432300D01*
X150118329Y-77432300D02*
X150165948Y-77479920D01*
X150165948Y-77479920D02*
X150261186Y-77527539D01*
X150261186Y-77527539D02*
X150451662Y-77527539D01*
X150451662Y-77527539D02*
X150546900Y-77479920D01*
X150546900Y-77479920D02*
X150594519Y-77432300D01*
X150594519Y-77432300D02*
X150642138Y-77337062D01*
X150642138Y-77337062D02*
X150642138Y-76527539D01*
X151308805Y-76527539D02*
X151404043Y-76527539D01*
X151404043Y-76527539D02*
X151499281Y-76575158D01*
X151499281Y-76575158D02*
X151546900Y-76622777D01*
X151546900Y-76622777D02*
X151594519Y-76718015D01*
X151594519Y-76718015D02*
X151642138Y-76908491D01*
X151642138Y-76908491D02*
X151642138Y-77146586D01*
X151642138Y-77146586D02*
X151594519Y-77337062D01*
X151594519Y-77337062D02*
X151546900Y-77432300D01*
X151546900Y-77432300D02*
X151499281Y-77479920D01*
X151499281Y-77479920D02*
X151404043Y-77527539D01*
X151404043Y-77527539D02*
X151308805Y-77527539D01*
X151308805Y-77527539D02*
X151213567Y-77479920D01*
X151213567Y-77479920D02*
X151165948Y-77432300D01*
X151165948Y-77432300D02*
X151118329Y-77337062D01*
X151118329Y-77337062D02*
X151070710Y-77146586D01*
X151070710Y-77146586D02*
X151070710Y-76908491D01*
X151070710Y-76908491D02*
X151118329Y-76718015D01*
X151118329Y-76718015D02*
X151165948Y-76622777D01*
X151165948Y-76622777D02*
X151213567Y-76575158D01*
X151213567Y-76575158D02*
X151308805Y-76527539D01*
X152642138Y-77527539D02*
X152308805Y-77051348D01*
X152070710Y-77527539D02*
X152070710Y-76527539D01*
X152070710Y-76527539D02*
X152451662Y-76527539D01*
X152451662Y-76527539D02*
X152546900Y-76575158D01*
X152546900Y-76575158D02*
X152594519Y-76622777D01*
X152594519Y-76622777D02*
X152642138Y-76718015D01*
X152642138Y-76718015D02*
X152642138Y-76860872D01*
X152642138Y-76860872D02*
X152594519Y-76956110D01*
X152594519Y-76956110D02*
X152546900Y-77003729D01*
X152546900Y-77003729D02*
X152451662Y-77051348D01*
X152451662Y-77051348D02*
X152070710Y-77051348D01*
X152975472Y-76527539D02*
X153642138Y-77527539D01*
X153642138Y-76527539D02*
X152975472Y-77527539D01*
X154023091Y-77527539D02*
X154023091Y-76527539D01*
X154023091Y-76527539D02*
X154261186Y-76527539D01*
X154261186Y-76527539D02*
X154404043Y-76575158D01*
X154404043Y-76575158D02*
X154499281Y-76670396D01*
X154499281Y-76670396D02*
X154546900Y-76765634D01*
X154546900Y-76765634D02*
X154594519Y-76956110D01*
X154594519Y-76956110D02*
X154594519Y-77098967D01*
X154594519Y-77098967D02*
X154546900Y-77289443D01*
X154546900Y-77289443D02*
X154499281Y-77384681D01*
X154499281Y-77384681D02*
X154404043Y-77479920D01*
X154404043Y-77479920D02*
X154261186Y-77527539D01*
X154261186Y-77527539D02*
X154023091Y-77527539D01*
X151070710Y-79115158D02*
X150975472Y-79067539D01*
X150975472Y-79067539D02*
X150832615Y-79067539D01*
X150832615Y-79067539D02*
X150689758Y-79115158D01*
X150689758Y-79115158D02*
X150594520Y-79210396D01*
X150594520Y-79210396D02*
X150546901Y-79305634D01*
X150546901Y-79305634D02*
X150499282Y-79496110D01*
X150499282Y-79496110D02*
X150499282Y-79638967D01*
X150499282Y-79638967D02*
X150546901Y-79829443D01*
X150546901Y-79829443D02*
X150594520Y-79924681D01*
X150594520Y-79924681D02*
X150689758Y-80019920D01*
X150689758Y-80019920D02*
X150832615Y-80067539D01*
X150832615Y-80067539D02*
X150927853Y-80067539D01*
X150927853Y-80067539D02*
X151070710Y-80019920D01*
X151070710Y-80019920D02*
X151118329Y-79972300D01*
X151118329Y-79972300D02*
X151118329Y-79638967D01*
X151118329Y-79638967D02*
X150927853Y-79638967D01*
X151546901Y-80067539D02*
X151546901Y-79067539D01*
X151546901Y-79067539D02*
X151927853Y-79067539D01*
X151927853Y-79067539D02*
X152023091Y-79115158D01*
X152023091Y-79115158D02*
X152070710Y-79162777D01*
X152070710Y-79162777D02*
X152118329Y-79258015D01*
X152118329Y-79258015D02*
X152118329Y-79400872D01*
X152118329Y-79400872D02*
X152070710Y-79496110D01*
X152070710Y-79496110D02*
X152023091Y-79543729D01*
X152023091Y-79543729D02*
X151927853Y-79591348D01*
X151927853Y-79591348D02*
X151546901Y-79591348D01*
X152546901Y-80067539D02*
X152546901Y-79067539D01*
X153213567Y-79067539D02*
X153404043Y-79067539D01*
X153404043Y-79067539D02*
X153499281Y-79115158D01*
X153499281Y-79115158D02*
X153594519Y-79210396D01*
X153594519Y-79210396D02*
X153642138Y-79400872D01*
X153642138Y-79400872D02*
X153642138Y-79734205D01*
X153642138Y-79734205D02*
X153594519Y-79924681D01*
X153594519Y-79924681D02*
X153499281Y-80019920D01*
X153499281Y-80019920D02*
X153404043Y-80067539D01*
X153404043Y-80067539D02*
X153213567Y-80067539D01*
X153213567Y-80067539D02*
X153118329Y-80019920D01*
X153118329Y-80019920D02*
X153023091Y-79924681D01*
X153023091Y-79924681D02*
X152975472Y-79734205D01*
X152975472Y-79734205D02*
X152975472Y-79400872D01*
X152975472Y-79400872D02*
X153023091Y-79210396D01*
X153023091Y-79210396D02*
X153118329Y-79115158D01*
X153118329Y-79115158D02*
X153213567Y-79067539D01*
X154594519Y-80067539D02*
X154023091Y-80067539D01*
X154308805Y-80067539D02*
X154308805Y-79067539D01*
X154308805Y-79067539D02*
X154213567Y-79210396D01*
X154213567Y-79210396D02*
X154118329Y-79305634D01*
X154118329Y-79305634D02*
X154023091Y-79353253D01*
X151070710Y-81655158D02*
X150975472Y-81607539D01*
X150975472Y-81607539D02*
X150832615Y-81607539D01*
X150832615Y-81607539D02*
X150689758Y-81655158D01*
X150689758Y-81655158D02*
X150594520Y-81750396D01*
X150594520Y-81750396D02*
X150546901Y-81845634D01*
X150546901Y-81845634D02*
X150499282Y-82036110D01*
X150499282Y-82036110D02*
X150499282Y-82178967D01*
X150499282Y-82178967D02*
X150546901Y-82369443D01*
X150546901Y-82369443D02*
X150594520Y-82464681D01*
X150594520Y-82464681D02*
X150689758Y-82559920D01*
X150689758Y-82559920D02*
X150832615Y-82607539D01*
X150832615Y-82607539D02*
X150927853Y-82607539D01*
X150927853Y-82607539D02*
X151070710Y-82559920D01*
X151070710Y-82559920D02*
X151118329Y-82512300D01*
X151118329Y-82512300D02*
X151118329Y-82178967D01*
X151118329Y-82178967D02*
X150927853Y-82178967D01*
X151546901Y-82607539D02*
X151546901Y-81607539D01*
X151546901Y-81607539D02*
X151927853Y-81607539D01*
X151927853Y-81607539D02*
X152023091Y-81655158D01*
X152023091Y-81655158D02*
X152070710Y-81702777D01*
X152070710Y-81702777D02*
X152118329Y-81798015D01*
X152118329Y-81798015D02*
X152118329Y-81940872D01*
X152118329Y-81940872D02*
X152070710Y-82036110D01*
X152070710Y-82036110D02*
X152023091Y-82083729D01*
X152023091Y-82083729D02*
X151927853Y-82131348D01*
X151927853Y-82131348D02*
X151546901Y-82131348D01*
X152546901Y-82607539D02*
X152546901Y-81607539D01*
X153213567Y-81607539D02*
X153404043Y-81607539D01*
X153404043Y-81607539D02*
X153499281Y-81655158D01*
X153499281Y-81655158D02*
X153594519Y-81750396D01*
X153594519Y-81750396D02*
X153642138Y-81940872D01*
X153642138Y-81940872D02*
X153642138Y-82274205D01*
X153642138Y-82274205D02*
X153594519Y-82464681D01*
X153594519Y-82464681D02*
X153499281Y-82559920D01*
X153499281Y-82559920D02*
X153404043Y-82607539D01*
X153404043Y-82607539D02*
X153213567Y-82607539D01*
X153213567Y-82607539D02*
X153118329Y-82559920D01*
X153118329Y-82559920D02*
X153023091Y-82464681D01*
X153023091Y-82464681D02*
X152975472Y-82274205D01*
X152975472Y-82274205D02*
X152975472Y-81940872D01*
X152975472Y-81940872D02*
X153023091Y-81750396D01*
X153023091Y-81750396D02*
X153118329Y-81655158D01*
X153118329Y-81655158D02*
X153213567Y-81607539D01*
X154023091Y-81702777D02*
X154070710Y-81655158D01*
X154070710Y-81655158D02*
X154165948Y-81607539D01*
X154165948Y-81607539D02*
X154404043Y-81607539D01*
X154404043Y-81607539D02*
X154499281Y-81655158D01*
X154499281Y-81655158D02*
X154546900Y-81702777D01*
X154546900Y-81702777D02*
X154594519Y-81798015D01*
X154594519Y-81798015D02*
X154594519Y-81893253D01*
X154594519Y-81893253D02*
X154546900Y-82036110D01*
X154546900Y-82036110D02*
X153975472Y-82607539D01*
X153975472Y-82607539D02*
X154594519Y-82607539D01*
X145070710Y-84195158D02*
X144975472Y-84147539D01*
X144975472Y-84147539D02*
X144832615Y-84147539D01*
X144832615Y-84147539D02*
X144689758Y-84195158D01*
X144689758Y-84195158D02*
X144594520Y-84290396D01*
X144594520Y-84290396D02*
X144546901Y-84385634D01*
X144546901Y-84385634D02*
X144499282Y-84576110D01*
X144499282Y-84576110D02*
X144499282Y-84718967D01*
X144499282Y-84718967D02*
X144546901Y-84909443D01*
X144546901Y-84909443D02*
X144594520Y-85004681D01*
X144594520Y-85004681D02*
X144689758Y-85099920D01*
X144689758Y-85099920D02*
X144832615Y-85147539D01*
X144832615Y-85147539D02*
X144927853Y-85147539D01*
X144927853Y-85147539D02*
X145070710Y-85099920D01*
X145070710Y-85099920D02*
X145118329Y-85052300D01*
X145118329Y-85052300D02*
X145118329Y-84718967D01*
X145118329Y-84718967D02*
X144927853Y-84718967D01*
X145546901Y-85147539D02*
X145546901Y-84147539D01*
X145546901Y-84147539D02*
X145927853Y-84147539D01*
X145927853Y-84147539D02*
X146023091Y-84195158D01*
X146023091Y-84195158D02*
X146070710Y-84242777D01*
X146070710Y-84242777D02*
X146118329Y-84338015D01*
X146118329Y-84338015D02*
X146118329Y-84480872D01*
X146118329Y-84480872D02*
X146070710Y-84576110D01*
X146070710Y-84576110D02*
X146023091Y-84623729D01*
X146023091Y-84623729D02*
X145927853Y-84671348D01*
X145927853Y-84671348D02*
X145546901Y-84671348D01*
X146546901Y-85147539D02*
X146546901Y-84147539D01*
X147213567Y-84147539D02*
X147404043Y-84147539D01*
X147404043Y-84147539D02*
X147499281Y-84195158D01*
X147499281Y-84195158D02*
X147594519Y-84290396D01*
X147594519Y-84290396D02*
X147642138Y-84480872D01*
X147642138Y-84480872D02*
X147642138Y-84814205D01*
X147642138Y-84814205D02*
X147594519Y-85004681D01*
X147594519Y-85004681D02*
X147499281Y-85099920D01*
X147499281Y-85099920D02*
X147404043Y-85147539D01*
X147404043Y-85147539D02*
X147213567Y-85147539D01*
X147213567Y-85147539D02*
X147118329Y-85099920D01*
X147118329Y-85099920D02*
X147023091Y-85004681D01*
X147023091Y-85004681D02*
X146975472Y-84814205D01*
X146975472Y-84814205D02*
X146975472Y-84480872D01*
X146975472Y-84480872D02*
X147023091Y-84290396D01*
X147023091Y-84290396D02*
X147118329Y-84195158D01*
X147118329Y-84195158D02*
X147213567Y-84147539D01*
X148499281Y-84480872D02*
X148499281Y-85147539D01*
X148261186Y-84099920D02*
X148023091Y-84814205D01*
X148023091Y-84814205D02*
X148642138Y-84814205D01*
X148975472Y-84242777D02*
X149023091Y-84195158D01*
X149023091Y-84195158D02*
X149118329Y-84147539D01*
X149118329Y-84147539D02*
X149356424Y-84147539D01*
X149356424Y-84147539D02*
X149451662Y-84195158D01*
X149451662Y-84195158D02*
X149499281Y-84242777D01*
X149499281Y-84242777D02*
X149546900Y-84338015D01*
X149546900Y-84338015D02*
X149546900Y-84433253D01*
X149546900Y-84433253D02*
X149499281Y-84576110D01*
X149499281Y-84576110D02*
X148927853Y-85147539D01*
X148927853Y-85147539D02*
X149546900Y-85147539D01*
X150689757Y-84099920D02*
X149832615Y-85385634D01*
X151023091Y-85147539D02*
X151023091Y-84147539D01*
X151023091Y-84147539D02*
X151356424Y-84861824D01*
X151356424Y-84861824D02*
X151689757Y-84147539D01*
X151689757Y-84147539D02*
X151689757Y-85147539D01*
X152023091Y-84147539D02*
X152594519Y-84147539D01*
X152308805Y-85147539D02*
X152308805Y-84147539D01*
X152927853Y-85147539D02*
X152927853Y-84147539D01*
X152927853Y-84147539D02*
X153261186Y-84861824D01*
X153261186Y-84861824D02*
X153594519Y-84147539D01*
X153594519Y-84147539D02*
X153594519Y-85147539D01*
X154023091Y-85099920D02*
X154165948Y-85147539D01*
X154165948Y-85147539D02*
X154404043Y-85147539D01*
X154404043Y-85147539D02*
X154499281Y-85099920D01*
X154499281Y-85099920D02*
X154546900Y-85052300D01*
X154546900Y-85052300D02*
X154594519Y-84957062D01*
X154594519Y-84957062D02*
X154594519Y-84861824D01*
X154594519Y-84861824D02*
X154546900Y-84766586D01*
X154546900Y-84766586D02*
X154499281Y-84718967D01*
X154499281Y-84718967D02*
X154404043Y-84671348D01*
X154404043Y-84671348D02*
X154213567Y-84623729D01*
X154213567Y-84623729D02*
X154118329Y-84576110D01*
X154118329Y-84576110D02*
X154070710Y-84528491D01*
X154070710Y-84528491D02*
X154023091Y-84433253D01*
X154023091Y-84433253D02*
X154023091Y-84338015D01*
X154023091Y-84338015D02*
X154070710Y-84242777D01*
X154070710Y-84242777D02*
X154118329Y-84195158D01*
X154118329Y-84195158D02*
X154213567Y-84147539D01*
X154213567Y-84147539D02*
X154451662Y-84147539D01*
X154451662Y-84147539D02*
X154594519Y-84195158D01*
X145689758Y-86735158D02*
X145594520Y-86687539D01*
X145594520Y-86687539D02*
X145451663Y-86687539D01*
X145451663Y-86687539D02*
X145308806Y-86735158D01*
X145308806Y-86735158D02*
X145213568Y-86830396D01*
X145213568Y-86830396D02*
X145165949Y-86925634D01*
X145165949Y-86925634D02*
X145118330Y-87116110D01*
X145118330Y-87116110D02*
X145118330Y-87258967D01*
X145118330Y-87258967D02*
X145165949Y-87449443D01*
X145165949Y-87449443D02*
X145213568Y-87544681D01*
X145213568Y-87544681D02*
X145308806Y-87639920D01*
X145308806Y-87639920D02*
X145451663Y-87687539D01*
X145451663Y-87687539D02*
X145546901Y-87687539D01*
X145546901Y-87687539D02*
X145689758Y-87639920D01*
X145689758Y-87639920D02*
X145737377Y-87592300D01*
X145737377Y-87592300D02*
X145737377Y-87258967D01*
X145737377Y-87258967D02*
X145546901Y-87258967D01*
X146165949Y-87687539D02*
X146165949Y-86687539D01*
X146165949Y-86687539D02*
X146546901Y-86687539D01*
X146546901Y-86687539D02*
X146642139Y-86735158D01*
X146642139Y-86735158D02*
X146689758Y-86782777D01*
X146689758Y-86782777D02*
X146737377Y-86878015D01*
X146737377Y-86878015D02*
X146737377Y-87020872D01*
X146737377Y-87020872D02*
X146689758Y-87116110D01*
X146689758Y-87116110D02*
X146642139Y-87163729D01*
X146642139Y-87163729D02*
X146546901Y-87211348D01*
X146546901Y-87211348D02*
X146165949Y-87211348D01*
X147165949Y-87687539D02*
X147165949Y-86687539D01*
X147832615Y-86687539D02*
X148023091Y-86687539D01*
X148023091Y-86687539D02*
X148118329Y-86735158D01*
X148118329Y-86735158D02*
X148213567Y-86830396D01*
X148213567Y-86830396D02*
X148261186Y-87020872D01*
X148261186Y-87020872D02*
X148261186Y-87354205D01*
X148261186Y-87354205D02*
X148213567Y-87544681D01*
X148213567Y-87544681D02*
X148118329Y-87639920D01*
X148118329Y-87639920D02*
X148023091Y-87687539D01*
X148023091Y-87687539D02*
X147832615Y-87687539D01*
X147832615Y-87687539D02*
X147737377Y-87639920D01*
X147737377Y-87639920D02*
X147642139Y-87544681D01*
X147642139Y-87544681D02*
X147594520Y-87354205D01*
X147594520Y-87354205D02*
X147594520Y-87020872D01*
X147594520Y-87020872D02*
X147642139Y-86830396D01*
X147642139Y-86830396D02*
X147737377Y-86735158D01*
X147737377Y-86735158D02*
X147832615Y-86687539D01*
X149118329Y-87020872D02*
X149118329Y-87687539D01*
X148880234Y-86639920D02*
X148642139Y-87354205D01*
X148642139Y-87354205D02*
X149261186Y-87354205D01*
X150165948Y-87687539D02*
X149594520Y-87687539D01*
X149880234Y-87687539D02*
X149880234Y-86687539D01*
X149880234Y-86687539D02*
X149784996Y-86830396D01*
X149784996Y-86830396D02*
X149689758Y-86925634D01*
X149689758Y-86925634D02*
X149594520Y-86973253D01*
X151308805Y-86639920D02*
X150451663Y-87925634D01*
X151642139Y-87687539D02*
X151642139Y-86687539D01*
X151642139Y-86687539D02*
X151975472Y-87401824D01*
X151975472Y-87401824D02*
X152308805Y-86687539D01*
X152308805Y-86687539D02*
X152308805Y-87687539D01*
X152642139Y-86687539D02*
X153213567Y-86687539D01*
X152927853Y-87687539D02*
X152927853Y-86687539D01*
X153546901Y-87687539D02*
X153546901Y-86687539D01*
X153546901Y-86687539D02*
X153784996Y-86687539D01*
X153784996Y-86687539D02*
X153927853Y-86735158D01*
X153927853Y-86735158D02*
X154023091Y-86830396D01*
X154023091Y-86830396D02*
X154070710Y-86925634D01*
X154070710Y-86925634D02*
X154118329Y-87116110D01*
X154118329Y-87116110D02*
X154118329Y-87258967D01*
X154118329Y-87258967D02*
X154070710Y-87449443D01*
X154070710Y-87449443D02*
X154023091Y-87544681D01*
X154023091Y-87544681D02*
X153927853Y-87639920D01*
X153927853Y-87639920D02*
X153784996Y-87687539D01*
X153784996Y-87687539D02*
X153546901Y-87687539D01*
X154546901Y-87687539D02*
X154546901Y-86687539D01*
X145118329Y-89275158D02*
X145023091Y-89227539D01*
X145023091Y-89227539D02*
X144880234Y-89227539D01*
X144880234Y-89227539D02*
X144737377Y-89275158D01*
X144737377Y-89275158D02*
X144642139Y-89370396D01*
X144642139Y-89370396D02*
X144594520Y-89465634D01*
X144594520Y-89465634D02*
X144546901Y-89656110D01*
X144546901Y-89656110D02*
X144546901Y-89798967D01*
X144546901Y-89798967D02*
X144594520Y-89989443D01*
X144594520Y-89989443D02*
X144642139Y-90084681D01*
X144642139Y-90084681D02*
X144737377Y-90179920D01*
X144737377Y-90179920D02*
X144880234Y-90227539D01*
X144880234Y-90227539D02*
X144975472Y-90227539D01*
X144975472Y-90227539D02*
X145118329Y-90179920D01*
X145118329Y-90179920D02*
X145165948Y-90132300D01*
X145165948Y-90132300D02*
X145165948Y-89798967D01*
X145165948Y-89798967D02*
X144975472Y-89798967D01*
X145594520Y-90227539D02*
X145594520Y-89227539D01*
X145594520Y-89227539D02*
X145975472Y-89227539D01*
X145975472Y-89227539D02*
X146070710Y-89275158D01*
X146070710Y-89275158D02*
X146118329Y-89322777D01*
X146118329Y-89322777D02*
X146165948Y-89418015D01*
X146165948Y-89418015D02*
X146165948Y-89560872D01*
X146165948Y-89560872D02*
X146118329Y-89656110D01*
X146118329Y-89656110D02*
X146070710Y-89703729D01*
X146070710Y-89703729D02*
X145975472Y-89751348D01*
X145975472Y-89751348D02*
X145594520Y-89751348D01*
X146594520Y-90227539D02*
X146594520Y-89227539D01*
X147261186Y-89227539D02*
X147451662Y-89227539D01*
X147451662Y-89227539D02*
X147546900Y-89275158D01*
X147546900Y-89275158D02*
X147642138Y-89370396D01*
X147642138Y-89370396D02*
X147689757Y-89560872D01*
X147689757Y-89560872D02*
X147689757Y-89894205D01*
X147689757Y-89894205D02*
X147642138Y-90084681D01*
X147642138Y-90084681D02*
X147546900Y-90179920D01*
X147546900Y-90179920D02*
X147451662Y-90227539D01*
X147451662Y-90227539D02*
X147261186Y-90227539D01*
X147261186Y-90227539D02*
X147165948Y-90179920D01*
X147165948Y-90179920D02*
X147070710Y-90084681D01*
X147070710Y-90084681D02*
X147023091Y-89894205D01*
X147023091Y-89894205D02*
X147023091Y-89560872D01*
X147023091Y-89560872D02*
X147070710Y-89370396D01*
X147070710Y-89370396D02*
X147165948Y-89275158D01*
X147165948Y-89275158D02*
X147261186Y-89227539D01*
X148546900Y-89560872D02*
X148546900Y-90227539D01*
X148308805Y-89179920D02*
X148070710Y-89894205D01*
X148070710Y-89894205D02*
X148689757Y-89894205D01*
X149261186Y-89227539D02*
X149356424Y-89227539D01*
X149356424Y-89227539D02*
X149451662Y-89275158D01*
X149451662Y-89275158D02*
X149499281Y-89322777D01*
X149499281Y-89322777D02*
X149546900Y-89418015D01*
X149546900Y-89418015D02*
X149594519Y-89608491D01*
X149594519Y-89608491D02*
X149594519Y-89846586D01*
X149594519Y-89846586D02*
X149546900Y-90037062D01*
X149546900Y-90037062D02*
X149499281Y-90132300D01*
X149499281Y-90132300D02*
X149451662Y-90179920D01*
X149451662Y-90179920D02*
X149356424Y-90227539D01*
X149356424Y-90227539D02*
X149261186Y-90227539D01*
X149261186Y-90227539D02*
X149165948Y-90179920D01*
X149165948Y-90179920D02*
X149118329Y-90132300D01*
X149118329Y-90132300D02*
X149070710Y-90037062D01*
X149070710Y-90037062D02*
X149023091Y-89846586D01*
X149023091Y-89846586D02*
X149023091Y-89608491D01*
X149023091Y-89608491D02*
X149070710Y-89418015D01*
X149070710Y-89418015D02*
X149118329Y-89322777D01*
X149118329Y-89322777D02*
X149165948Y-89275158D01*
X149165948Y-89275158D02*
X149261186Y-89227539D01*
X150737376Y-89179920D02*
X149880234Y-90465634D01*
X151070710Y-90227539D02*
X151070710Y-89227539D01*
X151070710Y-89227539D02*
X151404043Y-89941824D01*
X151404043Y-89941824D02*
X151737376Y-89227539D01*
X151737376Y-89227539D02*
X151737376Y-90227539D01*
X152070710Y-89227539D02*
X152642138Y-89227539D01*
X152356424Y-90227539D02*
X152356424Y-89227539D01*
X152975472Y-90227539D02*
X152975472Y-89227539D01*
X152975472Y-89227539D02*
X153213567Y-89227539D01*
X153213567Y-89227539D02*
X153356424Y-89275158D01*
X153356424Y-89275158D02*
X153451662Y-89370396D01*
X153451662Y-89370396D02*
X153499281Y-89465634D01*
X153499281Y-89465634D02*
X153546900Y-89656110D01*
X153546900Y-89656110D02*
X153546900Y-89798967D01*
X153546900Y-89798967D02*
X153499281Y-89989443D01*
X153499281Y-89989443D02*
X153451662Y-90084681D01*
X153451662Y-90084681D02*
X153356424Y-90179920D01*
X153356424Y-90179920D02*
X153213567Y-90227539D01*
X153213567Y-90227539D02*
X152975472Y-90227539D01*
X154165948Y-89227539D02*
X154356424Y-89227539D01*
X154356424Y-89227539D02*
X154451662Y-89275158D01*
X154451662Y-89275158D02*
X154546900Y-89370396D01*
X154546900Y-89370396D02*
X154594519Y-89560872D01*
X154594519Y-89560872D02*
X154594519Y-89894205D01*
X154594519Y-89894205D02*
X154546900Y-90084681D01*
X154546900Y-90084681D02*
X154451662Y-90179920D01*
X154451662Y-90179920D02*
X154356424Y-90227539D01*
X154356424Y-90227539D02*
X154165948Y-90227539D01*
X154165948Y-90227539D02*
X154070710Y-90179920D01*
X154070710Y-90179920D02*
X153975472Y-90084681D01*
X153975472Y-90084681D02*
X153927853Y-89894205D01*
X153927853Y-89894205D02*
X153927853Y-89560872D01*
X153927853Y-89560872D02*
X153975472Y-89370396D01*
X153975472Y-89370396D02*
X154070710Y-89275158D01*
X154070710Y-89275158D02*
X154165948Y-89227539D01*
X145165948Y-91815158D02*
X145070710Y-91767539D01*
X145070710Y-91767539D02*
X144927853Y-91767539D01*
X144927853Y-91767539D02*
X144784996Y-91815158D01*
X144784996Y-91815158D02*
X144689758Y-91910396D01*
X144689758Y-91910396D02*
X144642139Y-92005634D01*
X144642139Y-92005634D02*
X144594520Y-92196110D01*
X144594520Y-92196110D02*
X144594520Y-92338967D01*
X144594520Y-92338967D02*
X144642139Y-92529443D01*
X144642139Y-92529443D02*
X144689758Y-92624681D01*
X144689758Y-92624681D02*
X144784996Y-92719920D01*
X144784996Y-92719920D02*
X144927853Y-92767539D01*
X144927853Y-92767539D02*
X145023091Y-92767539D01*
X145023091Y-92767539D02*
X145165948Y-92719920D01*
X145165948Y-92719920D02*
X145213567Y-92672300D01*
X145213567Y-92672300D02*
X145213567Y-92338967D01*
X145213567Y-92338967D02*
X145023091Y-92338967D01*
X145642139Y-92767539D02*
X145642139Y-91767539D01*
X145642139Y-91767539D02*
X146023091Y-91767539D01*
X146023091Y-91767539D02*
X146118329Y-91815158D01*
X146118329Y-91815158D02*
X146165948Y-91862777D01*
X146165948Y-91862777D02*
X146213567Y-91958015D01*
X146213567Y-91958015D02*
X146213567Y-92100872D01*
X146213567Y-92100872D02*
X146165948Y-92196110D01*
X146165948Y-92196110D02*
X146118329Y-92243729D01*
X146118329Y-92243729D02*
X146023091Y-92291348D01*
X146023091Y-92291348D02*
X145642139Y-92291348D01*
X146642139Y-92767539D02*
X146642139Y-91767539D01*
X147308805Y-91767539D02*
X147499281Y-91767539D01*
X147499281Y-91767539D02*
X147594519Y-91815158D01*
X147594519Y-91815158D02*
X147689757Y-91910396D01*
X147689757Y-91910396D02*
X147737376Y-92100872D01*
X147737376Y-92100872D02*
X147737376Y-92434205D01*
X147737376Y-92434205D02*
X147689757Y-92624681D01*
X147689757Y-92624681D02*
X147594519Y-92719920D01*
X147594519Y-92719920D02*
X147499281Y-92767539D01*
X147499281Y-92767539D02*
X147308805Y-92767539D01*
X147308805Y-92767539D02*
X147213567Y-92719920D01*
X147213567Y-92719920D02*
X147118329Y-92624681D01*
X147118329Y-92624681D02*
X147070710Y-92434205D01*
X147070710Y-92434205D02*
X147070710Y-92100872D01*
X147070710Y-92100872D02*
X147118329Y-91910396D01*
X147118329Y-91910396D02*
X147213567Y-91815158D01*
X147213567Y-91815158D02*
X147308805Y-91767539D01*
X148070710Y-91767539D02*
X148689757Y-91767539D01*
X148689757Y-91767539D02*
X148356424Y-92148491D01*
X148356424Y-92148491D02*
X148499281Y-92148491D01*
X148499281Y-92148491D02*
X148594519Y-92196110D01*
X148594519Y-92196110D02*
X148642138Y-92243729D01*
X148642138Y-92243729D02*
X148689757Y-92338967D01*
X148689757Y-92338967D02*
X148689757Y-92577062D01*
X148689757Y-92577062D02*
X148642138Y-92672300D01*
X148642138Y-92672300D02*
X148594519Y-92719920D01*
X148594519Y-92719920D02*
X148499281Y-92767539D01*
X148499281Y-92767539D02*
X148213567Y-92767539D01*
X148213567Y-92767539D02*
X148118329Y-92719920D01*
X148118329Y-92719920D02*
X148070710Y-92672300D01*
X149165948Y-92767539D02*
X149356424Y-92767539D01*
X149356424Y-92767539D02*
X149451662Y-92719920D01*
X149451662Y-92719920D02*
X149499281Y-92672300D01*
X149499281Y-92672300D02*
X149594519Y-92529443D01*
X149594519Y-92529443D02*
X149642138Y-92338967D01*
X149642138Y-92338967D02*
X149642138Y-91958015D01*
X149642138Y-91958015D02*
X149594519Y-91862777D01*
X149594519Y-91862777D02*
X149546900Y-91815158D01*
X149546900Y-91815158D02*
X149451662Y-91767539D01*
X149451662Y-91767539D02*
X149261186Y-91767539D01*
X149261186Y-91767539D02*
X149165948Y-91815158D01*
X149165948Y-91815158D02*
X149118329Y-91862777D01*
X149118329Y-91862777D02*
X149070710Y-91958015D01*
X149070710Y-91958015D02*
X149070710Y-92196110D01*
X149070710Y-92196110D02*
X149118329Y-92291348D01*
X149118329Y-92291348D02*
X149165948Y-92338967D01*
X149165948Y-92338967D02*
X149261186Y-92386586D01*
X149261186Y-92386586D02*
X149451662Y-92386586D01*
X149451662Y-92386586D02*
X149546900Y-92338967D01*
X149546900Y-92338967D02*
X149594519Y-92291348D01*
X149594519Y-92291348D02*
X149642138Y-92196110D01*
X150784995Y-91719920D02*
X149927853Y-93005634D01*
X151118329Y-92767539D02*
X151118329Y-91767539D01*
X151118329Y-91767539D02*
X151451662Y-92481824D01*
X151451662Y-92481824D02*
X151784995Y-91767539D01*
X151784995Y-91767539D02*
X151784995Y-92767539D01*
X152118329Y-91767539D02*
X152689757Y-91767539D01*
X152404043Y-92767539D02*
X152404043Y-91767539D01*
X153594519Y-92672300D02*
X153546900Y-92719920D01*
X153546900Y-92719920D02*
X153404043Y-92767539D01*
X153404043Y-92767539D02*
X153308805Y-92767539D01*
X153308805Y-92767539D02*
X153165948Y-92719920D01*
X153165948Y-92719920D02*
X153070710Y-92624681D01*
X153070710Y-92624681D02*
X153023091Y-92529443D01*
X153023091Y-92529443D02*
X152975472Y-92338967D01*
X152975472Y-92338967D02*
X152975472Y-92196110D01*
X152975472Y-92196110D02*
X153023091Y-92005634D01*
X153023091Y-92005634D02*
X153070710Y-91910396D01*
X153070710Y-91910396D02*
X153165948Y-91815158D01*
X153165948Y-91815158D02*
X153308805Y-91767539D01*
X153308805Y-91767539D02*
X153404043Y-91767539D01*
X153404043Y-91767539D02*
X153546900Y-91815158D01*
X153546900Y-91815158D02*
X153594519Y-91862777D01*
X154023091Y-92767539D02*
X154023091Y-91767539D01*
X154594519Y-92767539D02*
X154165948Y-92196110D01*
X154594519Y-91767539D02*
X154023091Y-92338967D01*
X150118329Y-94355158D02*
X150023091Y-94307539D01*
X150023091Y-94307539D02*
X149880234Y-94307539D01*
X149880234Y-94307539D02*
X149737377Y-94355158D01*
X149737377Y-94355158D02*
X149642139Y-94450396D01*
X149642139Y-94450396D02*
X149594520Y-94545634D01*
X149594520Y-94545634D02*
X149546901Y-94736110D01*
X149546901Y-94736110D02*
X149546901Y-94878967D01*
X149546901Y-94878967D02*
X149594520Y-95069443D01*
X149594520Y-95069443D02*
X149642139Y-95164681D01*
X149642139Y-95164681D02*
X149737377Y-95259920D01*
X149737377Y-95259920D02*
X149880234Y-95307539D01*
X149880234Y-95307539D02*
X149975472Y-95307539D01*
X149975472Y-95307539D02*
X150118329Y-95259920D01*
X150118329Y-95259920D02*
X150165948Y-95212300D01*
X150165948Y-95212300D02*
X150165948Y-94878967D01*
X150165948Y-94878967D02*
X149975472Y-94878967D01*
X150594520Y-95307539D02*
X150594520Y-94307539D01*
X150594520Y-94307539D02*
X150975472Y-94307539D01*
X150975472Y-94307539D02*
X151070710Y-94355158D01*
X151070710Y-94355158D02*
X151118329Y-94402777D01*
X151118329Y-94402777D02*
X151165948Y-94498015D01*
X151165948Y-94498015D02*
X151165948Y-94640872D01*
X151165948Y-94640872D02*
X151118329Y-94736110D01*
X151118329Y-94736110D02*
X151070710Y-94783729D01*
X151070710Y-94783729D02*
X150975472Y-94831348D01*
X150975472Y-94831348D02*
X150594520Y-94831348D01*
X151594520Y-95307539D02*
X151594520Y-94307539D01*
X152261186Y-94307539D02*
X152451662Y-94307539D01*
X152451662Y-94307539D02*
X152546900Y-94355158D01*
X152546900Y-94355158D02*
X152642138Y-94450396D01*
X152642138Y-94450396D02*
X152689757Y-94640872D01*
X152689757Y-94640872D02*
X152689757Y-94974205D01*
X152689757Y-94974205D02*
X152642138Y-95164681D01*
X152642138Y-95164681D02*
X152546900Y-95259920D01*
X152546900Y-95259920D02*
X152451662Y-95307539D01*
X152451662Y-95307539D02*
X152261186Y-95307539D01*
X152261186Y-95307539D02*
X152165948Y-95259920D01*
X152165948Y-95259920D02*
X152070710Y-95164681D01*
X152070710Y-95164681D02*
X152023091Y-94974205D01*
X152023091Y-94974205D02*
X152023091Y-94640872D01*
X152023091Y-94640872D02*
X152070710Y-94450396D01*
X152070710Y-94450396D02*
X152165948Y-94355158D01*
X152165948Y-94355158D02*
X152261186Y-94307539D01*
X153023091Y-94307539D02*
X153642138Y-94307539D01*
X153642138Y-94307539D02*
X153308805Y-94688491D01*
X153308805Y-94688491D02*
X153451662Y-94688491D01*
X153451662Y-94688491D02*
X153546900Y-94736110D01*
X153546900Y-94736110D02*
X153594519Y-94783729D01*
X153594519Y-94783729D02*
X153642138Y-94878967D01*
X153642138Y-94878967D02*
X153642138Y-95117062D01*
X153642138Y-95117062D02*
X153594519Y-95212300D01*
X153594519Y-95212300D02*
X153546900Y-95259920D01*
X153546900Y-95259920D02*
X153451662Y-95307539D01*
X153451662Y-95307539D02*
X153165948Y-95307539D01*
X153165948Y-95307539D02*
X153070710Y-95259920D01*
X153070710Y-95259920D02*
X153023091Y-95212300D01*
X154213567Y-94736110D02*
X154118329Y-94688491D01*
X154118329Y-94688491D02*
X154070710Y-94640872D01*
X154070710Y-94640872D02*
X154023091Y-94545634D01*
X154023091Y-94545634D02*
X154023091Y-94498015D01*
X154023091Y-94498015D02*
X154070710Y-94402777D01*
X154070710Y-94402777D02*
X154118329Y-94355158D01*
X154118329Y-94355158D02*
X154213567Y-94307539D01*
X154213567Y-94307539D02*
X154404043Y-94307539D01*
X154404043Y-94307539D02*
X154499281Y-94355158D01*
X154499281Y-94355158D02*
X154546900Y-94402777D01*
X154546900Y-94402777D02*
X154594519Y-94498015D01*
X154594519Y-94498015D02*
X154594519Y-94545634D01*
X154594519Y-94545634D02*
X154546900Y-94640872D01*
X154546900Y-94640872D02*
X154499281Y-94688491D01*
X154499281Y-94688491D02*
X154404043Y-94736110D01*
X154404043Y-94736110D02*
X154213567Y-94736110D01*
X154213567Y-94736110D02*
X154118329Y-94783729D01*
X154118329Y-94783729D02*
X154070710Y-94831348D01*
X154070710Y-94831348D02*
X154023091Y-94926586D01*
X154023091Y-94926586D02*
X154023091Y-95117062D01*
X154023091Y-95117062D02*
X154070710Y-95212300D01*
X154070710Y-95212300D02*
X154118329Y-95259920D01*
X154118329Y-95259920D02*
X154213567Y-95307539D01*
X154213567Y-95307539D02*
X154404043Y-95307539D01*
X154404043Y-95307539D02*
X154499281Y-95259920D01*
X154499281Y-95259920D02*
X154546900Y-95212300D01*
X154546900Y-95212300D02*
X154594519Y-95117062D01*
X154594519Y-95117062D02*
X154594519Y-94926586D01*
X154594519Y-94926586D02*
X154546900Y-94831348D01*
X154546900Y-94831348D02*
X154499281Y-94783729D01*
X154499281Y-94783729D02*
X154404043Y-94736110D01*
X150118329Y-96895158D02*
X150023091Y-96847539D01*
X150023091Y-96847539D02*
X149880234Y-96847539D01*
X149880234Y-96847539D02*
X149737377Y-96895158D01*
X149737377Y-96895158D02*
X149642139Y-96990396D01*
X149642139Y-96990396D02*
X149594520Y-97085634D01*
X149594520Y-97085634D02*
X149546901Y-97276110D01*
X149546901Y-97276110D02*
X149546901Y-97418967D01*
X149546901Y-97418967D02*
X149594520Y-97609443D01*
X149594520Y-97609443D02*
X149642139Y-97704681D01*
X149642139Y-97704681D02*
X149737377Y-97799920D01*
X149737377Y-97799920D02*
X149880234Y-97847539D01*
X149880234Y-97847539D02*
X149975472Y-97847539D01*
X149975472Y-97847539D02*
X150118329Y-97799920D01*
X150118329Y-97799920D02*
X150165948Y-97752300D01*
X150165948Y-97752300D02*
X150165948Y-97418967D01*
X150165948Y-97418967D02*
X149975472Y-97418967D01*
X150594520Y-97847539D02*
X150594520Y-96847539D01*
X150594520Y-96847539D02*
X150975472Y-96847539D01*
X150975472Y-96847539D02*
X151070710Y-96895158D01*
X151070710Y-96895158D02*
X151118329Y-96942777D01*
X151118329Y-96942777D02*
X151165948Y-97038015D01*
X151165948Y-97038015D02*
X151165948Y-97180872D01*
X151165948Y-97180872D02*
X151118329Y-97276110D01*
X151118329Y-97276110D02*
X151070710Y-97323729D01*
X151070710Y-97323729D02*
X150975472Y-97371348D01*
X150975472Y-97371348D02*
X150594520Y-97371348D01*
X151594520Y-97847539D02*
X151594520Y-96847539D01*
X152261186Y-96847539D02*
X152451662Y-96847539D01*
X152451662Y-96847539D02*
X152546900Y-96895158D01*
X152546900Y-96895158D02*
X152642138Y-96990396D01*
X152642138Y-96990396D02*
X152689757Y-97180872D01*
X152689757Y-97180872D02*
X152689757Y-97514205D01*
X152689757Y-97514205D02*
X152642138Y-97704681D01*
X152642138Y-97704681D02*
X152546900Y-97799920D01*
X152546900Y-97799920D02*
X152451662Y-97847539D01*
X152451662Y-97847539D02*
X152261186Y-97847539D01*
X152261186Y-97847539D02*
X152165948Y-97799920D01*
X152165948Y-97799920D02*
X152070710Y-97704681D01*
X152070710Y-97704681D02*
X152023091Y-97514205D01*
X152023091Y-97514205D02*
X152023091Y-97180872D01*
X152023091Y-97180872D02*
X152070710Y-96990396D01*
X152070710Y-96990396D02*
X152165948Y-96895158D01*
X152165948Y-96895158D02*
X152261186Y-96847539D01*
X153023091Y-96847539D02*
X153642138Y-96847539D01*
X153642138Y-96847539D02*
X153308805Y-97228491D01*
X153308805Y-97228491D02*
X153451662Y-97228491D01*
X153451662Y-97228491D02*
X153546900Y-97276110D01*
X153546900Y-97276110D02*
X153594519Y-97323729D01*
X153594519Y-97323729D02*
X153642138Y-97418967D01*
X153642138Y-97418967D02*
X153642138Y-97657062D01*
X153642138Y-97657062D02*
X153594519Y-97752300D01*
X153594519Y-97752300D02*
X153546900Y-97799920D01*
X153546900Y-97799920D02*
X153451662Y-97847539D01*
X153451662Y-97847539D02*
X153165948Y-97847539D01*
X153165948Y-97847539D02*
X153070710Y-97799920D01*
X153070710Y-97799920D02*
X153023091Y-97752300D01*
X153975472Y-96847539D02*
X154642138Y-96847539D01*
X154642138Y-96847539D02*
X154213567Y-97847539D01*
X150118329Y-99435158D02*
X150023091Y-99387539D01*
X150023091Y-99387539D02*
X149880234Y-99387539D01*
X149880234Y-99387539D02*
X149737377Y-99435158D01*
X149737377Y-99435158D02*
X149642139Y-99530396D01*
X149642139Y-99530396D02*
X149594520Y-99625634D01*
X149594520Y-99625634D02*
X149546901Y-99816110D01*
X149546901Y-99816110D02*
X149546901Y-99958967D01*
X149546901Y-99958967D02*
X149594520Y-100149443D01*
X149594520Y-100149443D02*
X149642139Y-100244681D01*
X149642139Y-100244681D02*
X149737377Y-100339920D01*
X149737377Y-100339920D02*
X149880234Y-100387539D01*
X149880234Y-100387539D02*
X149975472Y-100387539D01*
X149975472Y-100387539D02*
X150118329Y-100339920D01*
X150118329Y-100339920D02*
X150165948Y-100292300D01*
X150165948Y-100292300D02*
X150165948Y-99958967D01*
X150165948Y-99958967D02*
X149975472Y-99958967D01*
X150594520Y-100387539D02*
X150594520Y-99387539D01*
X150594520Y-99387539D02*
X150975472Y-99387539D01*
X150975472Y-99387539D02*
X151070710Y-99435158D01*
X151070710Y-99435158D02*
X151118329Y-99482777D01*
X151118329Y-99482777D02*
X151165948Y-99578015D01*
X151165948Y-99578015D02*
X151165948Y-99720872D01*
X151165948Y-99720872D02*
X151118329Y-99816110D01*
X151118329Y-99816110D02*
X151070710Y-99863729D01*
X151070710Y-99863729D02*
X150975472Y-99911348D01*
X150975472Y-99911348D02*
X150594520Y-99911348D01*
X151594520Y-100387539D02*
X151594520Y-99387539D01*
X152261186Y-99387539D02*
X152451662Y-99387539D01*
X152451662Y-99387539D02*
X152546900Y-99435158D01*
X152546900Y-99435158D02*
X152642138Y-99530396D01*
X152642138Y-99530396D02*
X152689757Y-99720872D01*
X152689757Y-99720872D02*
X152689757Y-100054205D01*
X152689757Y-100054205D02*
X152642138Y-100244681D01*
X152642138Y-100244681D02*
X152546900Y-100339920D01*
X152546900Y-100339920D02*
X152451662Y-100387539D01*
X152451662Y-100387539D02*
X152261186Y-100387539D01*
X152261186Y-100387539D02*
X152165948Y-100339920D01*
X152165948Y-100339920D02*
X152070710Y-100244681D01*
X152070710Y-100244681D02*
X152023091Y-100054205D01*
X152023091Y-100054205D02*
X152023091Y-99720872D01*
X152023091Y-99720872D02*
X152070710Y-99530396D01*
X152070710Y-99530396D02*
X152165948Y-99435158D01*
X152165948Y-99435158D02*
X152261186Y-99387539D01*
X153023091Y-99387539D02*
X153642138Y-99387539D01*
X153642138Y-99387539D02*
X153308805Y-99768491D01*
X153308805Y-99768491D02*
X153451662Y-99768491D01*
X153451662Y-99768491D02*
X153546900Y-99816110D01*
X153546900Y-99816110D02*
X153594519Y-99863729D01*
X153594519Y-99863729D02*
X153642138Y-99958967D01*
X153642138Y-99958967D02*
X153642138Y-100197062D01*
X153642138Y-100197062D02*
X153594519Y-100292300D01*
X153594519Y-100292300D02*
X153546900Y-100339920D01*
X153546900Y-100339920D02*
X153451662Y-100387539D01*
X153451662Y-100387539D02*
X153165948Y-100387539D01*
X153165948Y-100387539D02*
X153070710Y-100339920D01*
X153070710Y-100339920D02*
X153023091Y-100292300D01*
X154499281Y-99387539D02*
X154308805Y-99387539D01*
X154308805Y-99387539D02*
X154213567Y-99435158D01*
X154213567Y-99435158D02*
X154165948Y-99482777D01*
X154165948Y-99482777D02*
X154070710Y-99625634D01*
X154070710Y-99625634D02*
X154023091Y-99816110D01*
X154023091Y-99816110D02*
X154023091Y-100197062D01*
X154023091Y-100197062D02*
X154070710Y-100292300D01*
X154070710Y-100292300D02*
X154118329Y-100339920D01*
X154118329Y-100339920D02*
X154213567Y-100387539D01*
X154213567Y-100387539D02*
X154404043Y-100387539D01*
X154404043Y-100387539D02*
X154499281Y-100339920D01*
X154499281Y-100339920D02*
X154546900Y-100292300D01*
X154546900Y-100292300D02*
X154594519Y-100197062D01*
X154594519Y-100197062D02*
X154594519Y-99958967D01*
X154594519Y-99958967D02*
X154546900Y-99863729D01*
X154546900Y-99863729D02*
X154499281Y-99816110D01*
X154499281Y-99816110D02*
X154404043Y-99768491D01*
X154404043Y-99768491D02*
X154213567Y-99768491D01*
X154213567Y-99768491D02*
X154118329Y-99816110D01*
X154118329Y-99816110D02*
X154070710Y-99863729D01*
X154070710Y-99863729D02*
X154023091Y-99958967D01*
X150118329Y-101975158D02*
X150023091Y-101927539D01*
X150023091Y-101927539D02*
X149880234Y-101927539D01*
X149880234Y-101927539D02*
X149737377Y-101975158D01*
X149737377Y-101975158D02*
X149642139Y-102070396D01*
X149642139Y-102070396D02*
X149594520Y-102165634D01*
X149594520Y-102165634D02*
X149546901Y-102356110D01*
X149546901Y-102356110D02*
X149546901Y-102498967D01*
X149546901Y-102498967D02*
X149594520Y-102689443D01*
X149594520Y-102689443D02*
X149642139Y-102784681D01*
X149642139Y-102784681D02*
X149737377Y-102879920D01*
X149737377Y-102879920D02*
X149880234Y-102927539D01*
X149880234Y-102927539D02*
X149975472Y-102927539D01*
X149975472Y-102927539D02*
X150118329Y-102879920D01*
X150118329Y-102879920D02*
X150165948Y-102832300D01*
X150165948Y-102832300D02*
X150165948Y-102498967D01*
X150165948Y-102498967D02*
X149975472Y-102498967D01*
X150594520Y-102927539D02*
X150594520Y-101927539D01*
X150594520Y-101927539D02*
X150975472Y-101927539D01*
X150975472Y-101927539D02*
X151070710Y-101975158D01*
X151070710Y-101975158D02*
X151118329Y-102022777D01*
X151118329Y-102022777D02*
X151165948Y-102118015D01*
X151165948Y-102118015D02*
X151165948Y-102260872D01*
X151165948Y-102260872D02*
X151118329Y-102356110D01*
X151118329Y-102356110D02*
X151070710Y-102403729D01*
X151070710Y-102403729D02*
X150975472Y-102451348D01*
X150975472Y-102451348D02*
X150594520Y-102451348D01*
X151594520Y-102927539D02*
X151594520Y-101927539D01*
X152261186Y-101927539D02*
X152451662Y-101927539D01*
X152451662Y-101927539D02*
X152546900Y-101975158D01*
X152546900Y-101975158D02*
X152642138Y-102070396D01*
X152642138Y-102070396D02*
X152689757Y-102260872D01*
X152689757Y-102260872D02*
X152689757Y-102594205D01*
X152689757Y-102594205D02*
X152642138Y-102784681D01*
X152642138Y-102784681D02*
X152546900Y-102879920D01*
X152546900Y-102879920D02*
X152451662Y-102927539D01*
X152451662Y-102927539D02*
X152261186Y-102927539D01*
X152261186Y-102927539D02*
X152165948Y-102879920D01*
X152165948Y-102879920D02*
X152070710Y-102784681D01*
X152070710Y-102784681D02*
X152023091Y-102594205D01*
X152023091Y-102594205D02*
X152023091Y-102260872D01*
X152023091Y-102260872D02*
X152070710Y-102070396D01*
X152070710Y-102070396D02*
X152165948Y-101975158D01*
X152165948Y-101975158D02*
X152261186Y-101927539D01*
X153023091Y-101927539D02*
X153642138Y-101927539D01*
X153642138Y-101927539D02*
X153308805Y-102308491D01*
X153308805Y-102308491D02*
X153451662Y-102308491D01*
X153451662Y-102308491D02*
X153546900Y-102356110D01*
X153546900Y-102356110D02*
X153594519Y-102403729D01*
X153594519Y-102403729D02*
X153642138Y-102498967D01*
X153642138Y-102498967D02*
X153642138Y-102737062D01*
X153642138Y-102737062D02*
X153594519Y-102832300D01*
X153594519Y-102832300D02*
X153546900Y-102879920D01*
X153546900Y-102879920D02*
X153451662Y-102927539D01*
X153451662Y-102927539D02*
X153165948Y-102927539D01*
X153165948Y-102927539D02*
X153070710Y-102879920D01*
X153070710Y-102879920D02*
X153023091Y-102832300D01*
X154546900Y-101927539D02*
X154070710Y-101927539D01*
X154070710Y-101927539D02*
X154023091Y-102403729D01*
X154023091Y-102403729D02*
X154070710Y-102356110D01*
X154070710Y-102356110D02*
X154165948Y-102308491D01*
X154165948Y-102308491D02*
X154404043Y-102308491D01*
X154404043Y-102308491D02*
X154499281Y-102356110D01*
X154499281Y-102356110D02*
X154546900Y-102403729D01*
X154546900Y-102403729D02*
X154594519Y-102498967D01*
X154594519Y-102498967D02*
X154594519Y-102737062D01*
X154594519Y-102737062D02*
X154546900Y-102832300D01*
X154546900Y-102832300D02*
X154499281Y-102879920D01*
X154499281Y-102879920D02*
X154404043Y-102927539D01*
X154404043Y-102927539D02*
X154165948Y-102927539D01*
X154165948Y-102927539D02*
X154070710Y-102879920D01*
X154070710Y-102879920D02*
X154023091Y-102832300D01*
X151070710Y-104515158D02*
X150975472Y-104467539D01*
X150975472Y-104467539D02*
X150832615Y-104467539D01*
X150832615Y-104467539D02*
X150689758Y-104515158D01*
X150689758Y-104515158D02*
X150594520Y-104610396D01*
X150594520Y-104610396D02*
X150546901Y-104705634D01*
X150546901Y-104705634D02*
X150499282Y-104896110D01*
X150499282Y-104896110D02*
X150499282Y-105038967D01*
X150499282Y-105038967D02*
X150546901Y-105229443D01*
X150546901Y-105229443D02*
X150594520Y-105324681D01*
X150594520Y-105324681D02*
X150689758Y-105419920D01*
X150689758Y-105419920D02*
X150832615Y-105467539D01*
X150832615Y-105467539D02*
X150927853Y-105467539D01*
X150927853Y-105467539D02*
X151070710Y-105419920D01*
X151070710Y-105419920D02*
X151118329Y-105372300D01*
X151118329Y-105372300D02*
X151118329Y-105038967D01*
X151118329Y-105038967D02*
X150927853Y-105038967D01*
X151546901Y-105467539D02*
X151546901Y-104467539D01*
X151546901Y-104467539D02*
X151927853Y-104467539D01*
X151927853Y-104467539D02*
X152023091Y-104515158D01*
X152023091Y-104515158D02*
X152070710Y-104562777D01*
X152070710Y-104562777D02*
X152118329Y-104658015D01*
X152118329Y-104658015D02*
X152118329Y-104800872D01*
X152118329Y-104800872D02*
X152070710Y-104896110D01*
X152070710Y-104896110D02*
X152023091Y-104943729D01*
X152023091Y-104943729D02*
X151927853Y-104991348D01*
X151927853Y-104991348D02*
X151546901Y-104991348D01*
X152546901Y-105467539D02*
X152546901Y-104467539D01*
X153213567Y-104467539D02*
X153404043Y-104467539D01*
X153404043Y-104467539D02*
X153499281Y-104515158D01*
X153499281Y-104515158D02*
X153594519Y-104610396D01*
X153594519Y-104610396D02*
X153642138Y-104800872D01*
X153642138Y-104800872D02*
X153642138Y-105134205D01*
X153642138Y-105134205D02*
X153594519Y-105324681D01*
X153594519Y-105324681D02*
X153499281Y-105419920D01*
X153499281Y-105419920D02*
X153404043Y-105467539D01*
X153404043Y-105467539D02*
X153213567Y-105467539D01*
X153213567Y-105467539D02*
X153118329Y-105419920D01*
X153118329Y-105419920D02*
X153023091Y-105324681D01*
X153023091Y-105324681D02*
X152975472Y-105134205D01*
X152975472Y-105134205D02*
X152975472Y-104800872D01*
X152975472Y-104800872D02*
X153023091Y-104610396D01*
X153023091Y-104610396D02*
X153118329Y-104515158D01*
X153118329Y-104515158D02*
X153213567Y-104467539D01*
X154261186Y-104467539D02*
X154356424Y-104467539D01*
X154356424Y-104467539D02*
X154451662Y-104515158D01*
X154451662Y-104515158D02*
X154499281Y-104562777D01*
X154499281Y-104562777D02*
X154546900Y-104658015D01*
X154546900Y-104658015D02*
X154594519Y-104848491D01*
X154594519Y-104848491D02*
X154594519Y-105086586D01*
X154594519Y-105086586D02*
X154546900Y-105277062D01*
X154546900Y-105277062D02*
X154499281Y-105372300D01*
X154499281Y-105372300D02*
X154451662Y-105419920D01*
X154451662Y-105419920D02*
X154356424Y-105467539D01*
X154356424Y-105467539D02*
X154261186Y-105467539D01*
X154261186Y-105467539D02*
X154165948Y-105419920D01*
X154165948Y-105419920D02*
X154118329Y-105372300D01*
X154118329Y-105372300D02*
X154070710Y-105277062D01*
X154070710Y-105277062D02*
X154023091Y-105086586D01*
X154023091Y-105086586D02*
X154023091Y-104848491D01*
X154023091Y-104848491D02*
X154070710Y-104658015D01*
X154070710Y-104658015D02*
X154118329Y-104562777D01*
X154118329Y-104562777D02*
X154165948Y-104515158D01*
X154165948Y-104515158D02*
X154261186Y-104467539D01*
X150118329Y-107055158D02*
X150023091Y-107007539D01*
X150023091Y-107007539D02*
X149880234Y-107007539D01*
X149880234Y-107007539D02*
X149737377Y-107055158D01*
X149737377Y-107055158D02*
X149642139Y-107150396D01*
X149642139Y-107150396D02*
X149594520Y-107245634D01*
X149594520Y-107245634D02*
X149546901Y-107436110D01*
X149546901Y-107436110D02*
X149546901Y-107578967D01*
X149546901Y-107578967D02*
X149594520Y-107769443D01*
X149594520Y-107769443D02*
X149642139Y-107864681D01*
X149642139Y-107864681D02*
X149737377Y-107959920D01*
X149737377Y-107959920D02*
X149880234Y-108007539D01*
X149880234Y-108007539D02*
X149975472Y-108007539D01*
X149975472Y-108007539D02*
X150118329Y-107959920D01*
X150118329Y-107959920D02*
X150165948Y-107912300D01*
X150165948Y-107912300D02*
X150165948Y-107578967D01*
X150165948Y-107578967D02*
X149975472Y-107578967D01*
X150594520Y-108007539D02*
X150594520Y-107007539D01*
X150594520Y-107007539D02*
X150975472Y-107007539D01*
X150975472Y-107007539D02*
X151070710Y-107055158D01*
X151070710Y-107055158D02*
X151118329Y-107102777D01*
X151118329Y-107102777D02*
X151165948Y-107198015D01*
X151165948Y-107198015D02*
X151165948Y-107340872D01*
X151165948Y-107340872D02*
X151118329Y-107436110D01*
X151118329Y-107436110D02*
X151070710Y-107483729D01*
X151070710Y-107483729D02*
X150975472Y-107531348D01*
X150975472Y-107531348D02*
X150594520Y-107531348D01*
X151594520Y-108007539D02*
X151594520Y-107007539D01*
X152261186Y-107007539D02*
X152451662Y-107007539D01*
X152451662Y-107007539D02*
X152546900Y-107055158D01*
X152546900Y-107055158D02*
X152642138Y-107150396D01*
X152642138Y-107150396D02*
X152689757Y-107340872D01*
X152689757Y-107340872D02*
X152689757Y-107674205D01*
X152689757Y-107674205D02*
X152642138Y-107864681D01*
X152642138Y-107864681D02*
X152546900Y-107959920D01*
X152546900Y-107959920D02*
X152451662Y-108007539D01*
X152451662Y-108007539D02*
X152261186Y-108007539D01*
X152261186Y-108007539D02*
X152165948Y-107959920D01*
X152165948Y-107959920D02*
X152070710Y-107864681D01*
X152070710Y-107864681D02*
X152023091Y-107674205D01*
X152023091Y-107674205D02*
X152023091Y-107340872D01*
X152023091Y-107340872D02*
X152070710Y-107150396D01*
X152070710Y-107150396D02*
X152165948Y-107055158D01*
X152165948Y-107055158D02*
X152261186Y-107007539D01*
X153546900Y-107340872D02*
X153546900Y-108007539D01*
X153308805Y-106959920D02*
X153070710Y-107674205D01*
X153070710Y-107674205D02*
X153689757Y-107674205D01*
X154546900Y-107007539D02*
X154070710Y-107007539D01*
X154070710Y-107007539D02*
X154023091Y-107483729D01*
X154023091Y-107483729D02*
X154070710Y-107436110D01*
X154070710Y-107436110D02*
X154165948Y-107388491D01*
X154165948Y-107388491D02*
X154404043Y-107388491D01*
X154404043Y-107388491D02*
X154499281Y-107436110D01*
X154499281Y-107436110D02*
X154546900Y-107483729D01*
X154546900Y-107483729D02*
X154594519Y-107578967D01*
X154594519Y-107578967D02*
X154594519Y-107817062D01*
X154594519Y-107817062D02*
X154546900Y-107912300D01*
X154546900Y-107912300D02*
X154499281Y-107959920D01*
X154499281Y-107959920D02*
X154404043Y-108007539D01*
X154404043Y-108007539D02*
X154165948Y-108007539D01*
X154165948Y-108007539D02*
X154070710Y-107959920D01*
X154070710Y-107959920D02*
X154023091Y-107912300D01*
X150118329Y-109595158D02*
X150023091Y-109547539D01*
X150023091Y-109547539D02*
X149880234Y-109547539D01*
X149880234Y-109547539D02*
X149737377Y-109595158D01*
X149737377Y-109595158D02*
X149642139Y-109690396D01*
X149642139Y-109690396D02*
X149594520Y-109785634D01*
X149594520Y-109785634D02*
X149546901Y-109976110D01*
X149546901Y-109976110D02*
X149546901Y-110118967D01*
X149546901Y-110118967D02*
X149594520Y-110309443D01*
X149594520Y-110309443D02*
X149642139Y-110404681D01*
X149642139Y-110404681D02*
X149737377Y-110499920D01*
X149737377Y-110499920D02*
X149880234Y-110547539D01*
X149880234Y-110547539D02*
X149975472Y-110547539D01*
X149975472Y-110547539D02*
X150118329Y-110499920D01*
X150118329Y-110499920D02*
X150165948Y-110452300D01*
X150165948Y-110452300D02*
X150165948Y-110118967D01*
X150165948Y-110118967D02*
X149975472Y-110118967D01*
X150594520Y-110547539D02*
X150594520Y-109547539D01*
X150594520Y-109547539D02*
X150975472Y-109547539D01*
X150975472Y-109547539D02*
X151070710Y-109595158D01*
X151070710Y-109595158D02*
X151118329Y-109642777D01*
X151118329Y-109642777D02*
X151165948Y-109738015D01*
X151165948Y-109738015D02*
X151165948Y-109880872D01*
X151165948Y-109880872D02*
X151118329Y-109976110D01*
X151118329Y-109976110D02*
X151070710Y-110023729D01*
X151070710Y-110023729D02*
X150975472Y-110071348D01*
X150975472Y-110071348D02*
X150594520Y-110071348D01*
X151594520Y-110547539D02*
X151594520Y-109547539D01*
X152261186Y-109547539D02*
X152451662Y-109547539D01*
X152451662Y-109547539D02*
X152546900Y-109595158D01*
X152546900Y-109595158D02*
X152642138Y-109690396D01*
X152642138Y-109690396D02*
X152689757Y-109880872D01*
X152689757Y-109880872D02*
X152689757Y-110214205D01*
X152689757Y-110214205D02*
X152642138Y-110404681D01*
X152642138Y-110404681D02*
X152546900Y-110499920D01*
X152546900Y-110499920D02*
X152451662Y-110547539D01*
X152451662Y-110547539D02*
X152261186Y-110547539D01*
X152261186Y-110547539D02*
X152165948Y-110499920D01*
X152165948Y-110499920D02*
X152070710Y-110404681D01*
X152070710Y-110404681D02*
X152023091Y-110214205D01*
X152023091Y-110214205D02*
X152023091Y-109880872D01*
X152023091Y-109880872D02*
X152070710Y-109690396D01*
X152070710Y-109690396D02*
X152165948Y-109595158D01*
X152165948Y-109595158D02*
X152261186Y-109547539D01*
X153546900Y-109880872D02*
X153546900Y-110547539D01*
X153308805Y-109499920D02*
X153070710Y-110214205D01*
X153070710Y-110214205D02*
X153689757Y-110214205D01*
X154213567Y-109976110D02*
X154118329Y-109928491D01*
X154118329Y-109928491D02*
X154070710Y-109880872D01*
X154070710Y-109880872D02*
X154023091Y-109785634D01*
X154023091Y-109785634D02*
X154023091Y-109738015D01*
X154023091Y-109738015D02*
X154070710Y-109642777D01*
X154070710Y-109642777D02*
X154118329Y-109595158D01*
X154118329Y-109595158D02*
X154213567Y-109547539D01*
X154213567Y-109547539D02*
X154404043Y-109547539D01*
X154404043Y-109547539D02*
X154499281Y-109595158D01*
X154499281Y-109595158D02*
X154546900Y-109642777D01*
X154546900Y-109642777D02*
X154594519Y-109738015D01*
X154594519Y-109738015D02*
X154594519Y-109785634D01*
X154594519Y-109785634D02*
X154546900Y-109880872D01*
X154546900Y-109880872D02*
X154499281Y-109928491D01*
X154499281Y-109928491D02*
X154404043Y-109976110D01*
X154404043Y-109976110D02*
X154213567Y-109976110D01*
X154213567Y-109976110D02*
X154118329Y-110023729D01*
X154118329Y-110023729D02*
X154070710Y-110071348D01*
X154070710Y-110071348D02*
X154023091Y-110166586D01*
X154023091Y-110166586D02*
X154023091Y-110357062D01*
X154023091Y-110357062D02*
X154070710Y-110452300D01*
X154070710Y-110452300D02*
X154118329Y-110499920D01*
X154118329Y-110499920D02*
X154213567Y-110547539D01*
X154213567Y-110547539D02*
X154404043Y-110547539D01*
X154404043Y-110547539D02*
X154499281Y-110499920D01*
X154499281Y-110499920D02*
X154546900Y-110452300D01*
X154546900Y-110452300D02*
X154594519Y-110357062D01*
X154594519Y-110357062D02*
X154594519Y-110166586D01*
X154594519Y-110166586D02*
X154546900Y-110071348D01*
X154546900Y-110071348D02*
X154499281Y-110023729D01*
X154499281Y-110023729D02*
X154404043Y-109976110D01*
X150118329Y-112135158D02*
X150023091Y-112087539D01*
X150023091Y-112087539D02*
X149880234Y-112087539D01*
X149880234Y-112087539D02*
X149737377Y-112135158D01*
X149737377Y-112135158D02*
X149642139Y-112230396D01*
X149642139Y-112230396D02*
X149594520Y-112325634D01*
X149594520Y-112325634D02*
X149546901Y-112516110D01*
X149546901Y-112516110D02*
X149546901Y-112658967D01*
X149546901Y-112658967D02*
X149594520Y-112849443D01*
X149594520Y-112849443D02*
X149642139Y-112944681D01*
X149642139Y-112944681D02*
X149737377Y-113039920D01*
X149737377Y-113039920D02*
X149880234Y-113087539D01*
X149880234Y-113087539D02*
X149975472Y-113087539D01*
X149975472Y-113087539D02*
X150118329Y-113039920D01*
X150118329Y-113039920D02*
X150165948Y-112992300D01*
X150165948Y-112992300D02*
X150165948Y-112658967D01*
X150165948Y-112658967D02*
X149975472Y-112658967D01*
X150594520Y-113087539D02*
X150594520Y-112087539D01*
X150594520Y-112087539D02*
X150975472Y-112087539D01*
X150975472Y-112087539D02*
X151070710Y-112135158D01*
X151070710Y-112135158D02*
X151118329Y-112182777D01*
X151118329Y-112182777D02*
X151165948Y-112278015D01*
X151165948Y-112278015D02*
X151165948Y-112420872D01*
X151165948Y-112420872D02*
X151118329Y-112516110D01*
X151118329Y-112516110D02*
X151070710Y-112563729D01*
X151070710Y-112563729D02*
X150975472Y-112611348D01*
X150975472Y-112611348D02*
X150594520Y-112611348D01*
X151594520Y-113087539D02*
X151594520Y-112087539D01*
X152261186Y-112087539D02*
X152451662Y-112087539D01*
X152451662Y-112087539D02*
X152546900Y-112135158D01*
X152546900Y-112135158D02*
X152642138Y-112230396D01*
X152642138Y-112230396D02*
X152689757Y-112420872D01*
X152689757Y-112420872D02*
X152689757Y-112754205D01*
X152689757Y-112754205D02*
X152642138Y-112944681D01*
X152642138Y-112944681D02*
X152546900Y-113039920D01*
X152546900Y-113039920D02*
X152451662Y-113087539D01*
X152451662Y-113087539D02*
X152261186Y-113087539D01*
X152261186Y-113087539D02*
X152165948Y-113039920D01*
X152165948Y-113039920D02*
X152070710Y-112944681D01*
X152070710Y-112944681D02*
X152023091Y-112754205D01*
X152023091Y-112754205D02*
X152023091Y-112420872D01*
X152023091Y-112420872D02*
X152070710Y-112230396D01*
X152070710Y-112230396D02*
X152165948Y-112135158D01*
X152165948Y-112135158D02*
X152261186Y-112087539D01*
X153546900Y-112420872D02*
X153546900Y-113087539D01*
X153308805Y-112039920D02*
X153070710Y-112754205D01*
X153070710Y-112754205D02*
X153689757Y-112754205D01*
X153975472Y-112087539D02*
X154642138Y-112087539D01*
X154642138Y-112087539D02*
X154213567Y-113087539D01*
X150118329Y-114675158D02*
X150023091Y-114627539D01*
X150023091Y-114627539D02*
X149880234Y-114627539D01*
X149880234Y-114627539D02*
X149737377Y-114675158D01*
X149737377Y-114675158D02*
X149642139Y-114770396D01*
X149642139Y-114770396D02*
X149594520Y-114865634D01*
X149594520Y-114865634D02*
X149546901Y-115056110D01*
X149546901Y-115056110D02*
X149546901Y-115198967D01*
X149546901Y-115198967D02*
X149594520Y-115389443D01*
X149594520Y-115389443D02*
X149642139Y-115484681D01*
X149642139Y-115484681D02*
X149737377Y-115579920D01*
X149737377Y-115579920D02*
X149880234Y-115627539D01*
X149880234Y-115627539D02*
X149975472Y-115627539D01*
X149975472Y-115627539D02*
X150118329Y-115579920D01*
X150118329Y-115579920D02*
X150165948Y-115532300D01*
X150165948Y-115532300D02*
X150165948Y-115198967D01*
X150165948Y-115198967D02*
X149975472Y-115198967D01*
X150594520Y-115627539D02*
X150594520Y-114627539D01*
X150594520Y-114627539D02*
X150975472Y-114627539D01*
X150975472Y-114627539D02*
X151070710Y-114675158D01*
X151070710Y-114675158D02*
X151118329Y-114722777D01*
X151118329Y-114722777D02*
X151165948Y-114818015D01*
X151165948Y-114818015D02*
X151165948Y-114960872D01*
X151165948Y-114960872D02*
X151118329Y-115056110D01*
X151118329Y-115056110D02*
X151070710Y-115103729D01*
X151070710Y-115103729D02*
X150975472Y-115151348D01*
X150975472Y-115151348D02*
X150594520Y-115151348D01*
X151594520Y-115627539D02*
X151594520Y-114627539D01*
X152261186Y-114627539D02*
X152451662Y-114627539D01*
X152451662Y-114627539D02*
X152546900Y-114675158D01*
X152546900Y-114675158D02*
X152642138Y-114770396D01*
X152642138Y-114770396D02*
X152689757Y-114960872D01*
X152689757Y-114960872D02*
X152689757Y-115294205D01*
X152689757Y-115294205D02*
X152642138Y-115484681D01*
X152642138Y-115484681D02*
X152546900Y-115579920D01*
X152546900Y-115579920D02*
X152451662Y-115627539D01*
X152451662Y-115627539D02*
X152261186Y-115627539D01*
X152261186Y-115627539D02*
X152165948Y-115579920D01*
X152165948Y-115579920D02*
X152070710Y-115484681D01*
X152070710Y-115484681D02*
X152023091Y-115294205D01*
X152023091Y-115294205D02*
X152023091Y-114960872D01*
X152023091Y-114960872D02*
X152070710Y-114770396D01*
X152070710Y-114770396D02*
X152165948Y-114675158D01*
X152165948Y-114675158D02*
X152261186Y-114627539D01*
X153070710Y-114722777D02*
X153118329Y-114675158D01*
X153118329Y-114675158D02*
X153213567Y-114627539D01*
X153213567Y-114627539D02*
X153451662Y-114627539D01*
X153451662Y-114627539D02*
X153546900Y-114675158D01*
X153546900Y-114675158D02*
X153594519Y-114722777D01*
X153594519Y-114722777D02*
X153642138Y-114818015D01*
X153642138Y-114818015D02*
X153642138Y-114913253D01*
X153642138Y-114913253D02*
X153594519Y-115056110D01*
X153594519Y-115056110D02*
X153023091Y-115627539D01*
X153023091Y-115627539D02*
X153642138Y-115627539D01*
X154594519Y-115627539D02*
X154023091Y-115627539D01*
X154308805Y-115627539D02*
X154308805Y-114627539D01*
X154308805Y-114627539D02*
X154213567Y-114770396D01*
X154213567Y-114770396D02*
X154118329Y-114865634D01*
X154118329Y-114865634D02*
X154023091Y-114913253D01*
X150118329Y-117215158D02*
X150023091Y-117167539D01*
X150023091Y-117167539D02*
X149880234Y-117167539D01*
X149880234Y-117167539D02*
X149737377Y-117215158D01*
X149737377Y-117215158D02*
X149642139Y-117310396D01*
X149642139Y-117310396D02*
X149594520Y-117405634D01*
X149594520Y-117405634D02*
X149546901Y-117596110D01*
X149546901Y-117596110D02*
X149546901Y-117738967D01*
X149546901Y-117738967D02*
X149594520Y-117929443D01*
X149594520Y-117929443D02*
X149642139Y-118024681D01*
X149642139Y-118024681D02*
X149737377Y-118119920D01*
X149737377Y-118119920D02*
X149880234Y-118167539D01*
X149880234Y-118167539D02*
X149975472Y-118167539D01*
X149975472Y-118167539D02*
X150118329Y-118119920D01*
X150118329Y-118119920D02*
X150165948Y-118072300D01*
X150165948Y-118072300D02*
X150165948Y-117738967D01*
X150165948Y-117738967D02*
X149975472Y-117738967D01*
X150594520Y-118167539D02*
X150594520Y-117167539D01*
X150594520Y-117167539D02*
X150975472Y-117167539D01*
X150975472Y-117167539D02*
X151070710Y-117215158D01*
X151070710Y-117215158D02*
X151118329Y-117262777D01*
X151118329Y-117262777D02*
X151165948Y-117358015D01*
X151165948Y-117358015D02*
X151165948Y-117500872D01*
X151165948Y-117500872D02*
X151118329Y-117596110D01*
X151118329Y-117596110D02*
X151070710Y-117643729D01*
X151070710Y-117643729D02*
X150975472Y-117691348D01*
X150975472Y-117691348D02*
X150594520Y-117691348D01*
X151594520Y-118167539D02*
X151594520Y-117167539D01*
X152261186Y-117167539D02*
X152451662Y-117167539D01*
X152451662Y-117167539D02*
X152546900Y-117215158D01*
X152546900Y-117215158D02*
X152642138Y-117310396D01*
X152642138Y-117310396D02*
X152689757Y-117500872D01*
X152689757Y-117500872D02*
X152689757Y-117834205D01*
X152689757Y-117834205D02*
X152642138Y-118024681D01*
X152642138Y-118024681D02*
X152546900Y-118119920D01*
X152546900Y-118119920D02*
X152451662Y-118167539D01*
X152451662Y-118167539D02*
X152261186Y-118167539D01*
X152261186Y-118167539D02*
X152165948Y-118119920D01*
X152165948Y-118119920D02*
X152070710Y-118024681D01*
X152070710Y-118024681D02*
X152023091Y-117834205D01*
X152023091Y-117834205D02*
X152023091Y-117500872D01*
X152023091Y-117500872D02*
X152070710Y-117310396D01*
X152070710Y-117310396D02*
X152165948Y-117215158D01*
X152165948Y-117215158D02*
X152261186Y-117167539D01*
X153070710Y-117262777D02*
X153118329Y-117215158D01*
X153118329Y-117215158D02*
X153213567Y-117167539D01*
X153213567Y-117167539D02*
X153451662Y-117167539D01*
X153451662Y-117167539D02*
X153546900Y-117215158D01*
X153546900Y-117215158D02*
X153594519Y-117262777D01*
X153594519Y-117262777D02*
X153642138Y-117358015D01*
X153642138Y-117358015D02*
X153642138Y-117453253D01*
X153642138Y-117453253D02*
X153594519Y-117596110D01*
X153594519Y-117596110D02*
X153023091Y-118167539D01*
X153023091Y-118167539D02*
X153642138Y-118167539D01*
X154261186Y-117167539D02*
X154356424Y-117167539D01*
X154356424Y-117167539D02*
X154451662Y-117215158D01*
X154451662Y-117215158D02*
X154499281Y-117262777D01*
X154499281Y-117262777D02*
X154546900Y-117358015D01*
X154546900Y-117358015D02*
X154594519Y-117548491D01*
X154594519Y-117548491D02*
X154594519Y-117786586D01*
X154594519Y-117786586D02*
X154546900Y-117977062D01*
X154546900Y-117977062D02*
X154499281Y-118072300D01*
X154499281Y-118072300D02*
X154451662Y-118119920D01*
X154451662Y-118119920D02*
X154356424Y-118167539D01*
X154356424Y-118167539D02*
X154261186Y-118167539D01*
X154261186Y-118167539D02*
X154165948Y-118119920D01*
X154165948Y-118119920D02*
X154118329Y-118072300D01*
X154118329Y-118072300D02*
X154070710Y-117977062D01*
X154070710Y-117977062D02*
X154023091Y-117786586D01*
X154023091Y-117786586D02*
X154023091Y-117548491D01*
X154023091Y-117548491D02*
X154070710Y-117358015D01*
X154070710Y-117358015D02*
X154118329Y-117262777D01*
X154118329Y-117262777D02*
X154165948Y-117215158D01*
X154165948Y-117215158D02*
X154261186Y-117167539D01*
X150118329Y-119755158D02*
X150023091Y-119707539D01*
X150023091Y-119707539D02*
X149880234Y-119707539D01*
X149880234Y-119707539D02*
X149737377Y-119755158D01*
X149737377Y-119755158D02*
X149642139Y-119850396D01*
X149642139Y-119850396D02*
X149594520Y-119945634D01*
X149594520Y-119945634D02*
X149546901Y-120136110D01*
X149546901Y-120136110D02*
X149546901Y-120278967D01*
X149546901Y-120278967D02*
X149594520Y-120469443D01*
X149594520Y-120469443D02*
X149642139Y-120564681D01*
X149642139Y-120564681D02*
X149737377Y-120659920D01*
X149737377Y-120659920D02*
X149880234Y-120707539D01*
X149880234Y-120707539D02*
X149975472Y-120707539D01*
X149975472Y-120707539D02*
X150118329Y-120659920D01*
X150118329Y-120659920D02*
X150165948Y-120612300D01*
X150165948Y-120612300D02*
X150165948Y-120278967D01*
X150165948Y-120278967D02*
X149975472Y-120278967D01*
X150594520Y-120707539D02*
X150594520Y-119707539D01*
X150594520Y-119707539D02*
X150975472Y-119707539D01*
X150975472Y-119707539D02*
X151070710Y-119755158D01*
X151070710Y-119755158D02*
X151118329Y-119802777D01*
X151118329Y-119802777D02*
X151165948Y-119898015D01*
X151165948Y-119898015D02*
X151165948Y-120040872D01*
X151165948Y-120040872D02*
X151118329Y-120136110D01*
X151118329Y-120136110D02*
X151070710Y-120183729D01*
X151070710Y-120183729D02*
X150975472Y-120231348D01*
X150975472Y-120231348D02*
X150594520Y-120231348D01*
X151594520Y-120707539D02*
X151594520Y-119707539D01*
X152261186Y-119707539D02*
X152451662Y-119707539D01*
X152451662Y-119707539D02*
X152546900Y-119755158D01*
X152546900Y-119755158D02*
X152642138Y-119850396D01*
X152642138Y-119850396D02*
X152689757Y-120040872D01*
X152689757Y-120040872D02*
X152689757Y-120374205D01*
X152689757Y-120374205D02*
X152642138Y-120564681D01*
X152642138Y-120564681D02*
X152546900Y-120659920D01*
X152546900Y-120659920D02*
X152451662Y-120707539D01*
X152451662Y-120707539D02*
X152261186Y-120707539D01*
X152261186Y-120707539D02*
X152165948Y-120659920D01*
X152165948Y-120659920D02*
X152070710Y-120564681D01*
X152070710Y-120564681D02*
X152023091Y-120374205D01*
X152023091Y-120374205D02*
X152023091Y-120040872D01*
X152023091Y-120040872D02*
X152070710Y-119850396D01*
X152070710Y-119850396D02*
X152165948Y-119755158D01*
X152165948Y-119755158D02*
X152261186Y-119707539D01*
X153642138Y-120707539D02*
X153070710Y-120707539D01*
X153356424Y-120707539D02*
X153356424Y-119707539D01*
X153356424Y-119707539D02*
X153261186Y-119850396D01*
X153261186Y-119850396D02*
X153165948Y-119945634D01*
X153165948Y-119945634D02*
X153070710Y-119993253D01*
X154118329Y-120707539D02*
X154308805Y-120707539D01*
X154308805Y-120707539D02*
X154404043Y-120659920D01*
X154404043Y-120659920D02*
X154451662Y-120612300D01*
X154451662Y-120612300D02*
X154546900Y-120469443D01*
X154546900Y-120469443D02*
X154594519Y-120278967D01*
X154594519Y-120278967D02*
X154594519Y-119898015D01*
X154594519Y-119898015D02*
X154546900Y-119802777D01*
X154546900Y-119802777D02*
X154499281Y-119755158D01*
X154499281Y-119755158D02*
X154404043Y-119707539D01*
X154404043Y-119707539D02*
X154213567Y-119707539D01*
X154213567Y-119707539D02*
X154118329Y-119755158D01*
X154118329Y-119755158D02*
X154070710Y-119802777D01*
X154070710Y-119802777D02*
X154023091Y-119898015D01*
X154023091Y-119898015D02*
X154023091Y-120136110D01*
X154023091Y-120136110D02*
X154070710Y-120231348D01*
X154070710Y-120231348D02*
X154118329Y-120278967D01*
X154118329Y-120278967D02*
X154213567Y-120326586D01*
X154213567Y-120326586D02*
X154404043Y-120326586D01*
X154404043Y-120326586D02*
X154499281Y-120278967D01*
X154499281Y-120278967D02*
X154546900Y-120231348D01*
X154546900Y-120231348D02*
X154594519Y-120136110D01*
X152499281Y-122295158D02*
X152404043Y-122247539D01*
X152404043Y-122247539D02*
X152261186Y-122247539D01*
X152261186Y-122247539D02*
X152118329Y-122295158D01*
X152118329Y-122295158D02*
X152023091Y-122390396D01*
X152023091Y-122390396D02*
X151975472Y-122485634D01*
X151975472Y-122485634D02*
X151927853Y-122676110D01*
X151927853Y-122676110D02*
X151927853Y-122818967D01*
X151927853Y-122818967D02*
X151975472Y-123009443D01*
X151975472Y-123009443D02*
X152023091Y-123104681D01*
X152023091Y-123104681D02*
X152118329Y-123199920D01*
X152118329Y-123199920D02*
X152261186Y-123247539D01*
X152261186Y-123247539D02*
X152356424Y-123247539D01*
X152356424Y-123247539D02*
X152499281Y-123199920D01*
X152499281Y-123199920D02*
X152546900Y-123152300D01*
X152546900Y-123152300D02*
X152546900Y-122818967D01*
X152546900Y-122818967D02*
X152356424Y-122818967D01*
X152975472Y-123247539D02*
X152975472Y-122247539D01*
X152975472Y-122247539D02*
X153546900Y-123247539D01*
X153546900Y-123247539D02*
X153546900Y-122247539D01*
X154023091Y-123247539D02*
X154023091Y-122247539D01*
X154023091Y-122247539D02*
X154261186Y-122247539D01*
X154261186Y-122247539D02*
X154404043Y-122295158D01*
X154404043Y-122295158D02*
X154499281Y-122390396D01*
X154499281Y-122390396D02*
X154546900Y-122485634D01*
X154546900Y-122485634D02*
X154594519Y-122676110D01*
X154594519Y-122676110D02*
X154594519Y-122818967D01*
X154594519Y-122818967D02*
X154546900Y-123009443D01*
X154546900Y-123009443D02*
X154499281Y-123104681D01*
X154499281Y-123104681D02*
X154404043Y-123199920D01*
X154404043Y-123199920D02*
X154261186Y-123247539D01*
X154261186Y-123247539D02*
X154023091Y-123247539D01*
X152499281Y-124835158D02*
X152404043Y-124787539D01*
X152404043Y-124787539D02*
X152261186Y-124787539D01*
X152261186Y-124787539D02*
X152118329Y-124835158D01*
X152118329Y-124835158D02*
X152023091Y-124930396D01*
X152023091Y-124930396D02*
X151975472Y-125025634D01*
X151975472Y-125025634D02*
X151927853Y-125216110D01*
X151927853Y-125216110D02*
X151927853Y-125358967D01*
X151927853Y-125358967D02*
X151975472Y-125549443D01*
X151975472Y-125549443D02*
X152023091Y-125644681D01*
X152023091Y-125644681D02*
X152118329Y-125739920D01*
X152118329Y-125739920D02*
X152261186Y-125787539D01*
X152261186Y-125787539D02*
X152356424Y-125787539D01*
X152356424Y-125787539D02*
X152499281Y-125739920D01*
X152499281Y-125739920D02*
X152546900Y-125692300D01*
X152546900Y-125692300D02*
X152546900Y-125358967D01*
X152546900Y-125358967D02*
X152356424Y-125358967D01*
X152975472Y-125787539D02*
X152975472Y-124787539D01*
X152975472Y-124787539D02*
X153546900Y-125787539D01*
X153546900Y-125787539D02*
X153546900Y-124787539D01*
X154023091Y-125787539D02*
X154023091Y-124787539D01*
X154023091Y-124787539D02*
X154261186Y-124787539D01*
X154261186Y-124787539D02*
X154404043Y-124835158D01*
X154404043Y-124835158D02*
X154499281Y-124930396D01*
X154499281Y-124930396D02*
X154546900Y-125025634D01*
X154546900Y-125025634D02*
X154594519Y-125216110D01*
X154594519Y-125216110D02*
X154594519Y-125358967D01*
X154594519Y-125358967D02*
X154546900Y-125549443D01*
X154546900Y-125549443D02*
X154499281Y-125644681D01*
X154499281Y-125644681D02*
X154404043Y-125739920D01*
X154404043Y-125739920D02*
X154261186Y-125787539D01*
X154261186Y-125787539D02*
X154023091Y-125787539D01*
X114083333Y-103204819D02*
X113750000Y-102728628D01*
X113511905Y-103204819D02*
X113511905Y-102204819D01*
X113511905Y-102204819D02*
X113892857Y-102204819D01*
X113892857Y-102204819D02*
X113988095Y-102252438D01*
X113988095Y-102252438D02*
X114035714Y-102300057D01*
X114035714Y-102300057D02*
X114083333Y-102395295D01*
X114083333Y-102395295D02*
X114083333Y-102538152D01*
X114083333Y-102538152D02*
X114035714Y-102633390D01*
X114035714Y-102633390D02*
X113988095Y-102681009D01*
X113988095Y-102681009D02*
X113892857Y-102728628D01*
X113892857Y-102728628D02*
X113511905Y-102728628D01*
X115035714Y-103204819D02*
X114464286Y-103204819D01*
X114750000Y-103204819D02*
X114750000Y-102204819D01*
X114750000Y-102204819D02*
X114654762Y-102347676D01*
X114654762Y-102347676D02*
X114559524Y-102442914D01*
X114559524Y-102442914D02*
X114464286Y-102490533D01*
X120761905Y-98454819D02*
X120761905Y-97454819D01*
X120761905Y-97454819D02*
X121000000Y-97454819D01*
X121000000Y-97454819D02*
X121142857Y-97502438D01*
X121142857Y-97502438D02*
X121238095Y-97597676D01*
X121238095Y-97597676D02*
X121285714Y-97692914D01*
X121285714Y-97692914D02*
X121333333Y-97883390D01*
X121333333Y-97883390D02*
X121333333Y-98026247D01*
X121333333Y-98026247D02*
X121285714Y-98216723D01*
X121285714Y-98216723D02*
X121238095Y-98311961D01*
X121238095Y-98311961D02*
X121142857Y-98407200D01*
X121142857Y-98407200D02*
X121000000Y-98454819D01*
X121000000Y-98454819D02*
X120761905Y-98454819D01*
X122285714Y-98454819D02*
X121714286Y-98454819D01*
X122000000Y-98454819D02*
X122000000Y-97454819D01*
X122000000Y-97454819D02*
X121904762Y-97597676D01*
X121904762Y-97597676D02*
X121809524Y-97692914D01*
X121809524Y-97692914D02*
X121714286Y-97740533D01*
X122333333Y-113704819D02*
X121857143Y-113704819D01*
X121857143Y-113704819D02*
X121857143Y-112704819D01*
X123190476Y-113704819D02*
X122619048Y-113704819D01*
X122904762Y-113704819D02*
X122904762Y-112704819D01*
X122904762Y-112704819D02*
X122809524Y-112847676D01*
X122809524Y-112847676D02*
X122714286Y-112942914D01*
X122714286Y-112942914D02*
X122619048Y-112990533D01*
X118154761Y-71954819D02*
X117821428Y-71478628D01*
X117583333Y-71954819D02*
X117583333Y-70954819D01*
X117583333Y-70954819D02*
X117964285Y-70954819D01*
X117964285Y-70954819D02*
X118059523Y-71002438D01*
X118059523Y-71002438D02*
X118107142Y-71050057D01*
X118107142Y-71050057D02*
X118154761Y-71145295D01*
X118154761Y-71145295D02*
X118154761Y-71288152D01*
X118154761Y-71288152D02*
X118107142Y-71383390D01*
X118107142Y-71383390D02*
X118059523Y-71431009D01*
X118059523Y-71431009D02*
X117964285Y-71478628D01*
X117964285Y-71478628D02*
X117583333Y-71478628D01*
X118440476Y-70954819D02*
X118773809Y-71954819D01*
X118773809Y-71954819D02*
X119107142Y-70954819D01*
X119964285Y-71954819D02*
X119392857Y-71954819D01*
X119678571Y-71954819D02*
X119678571Y-70954819D01*
X119678571Y-70954819D02*
X119583333Y-71097676D01*
X119583333Y-71097676D02*
X119488095Y-71192914D01*
X119488095Y-71192914D02*
X119392857Y-71240533D01*
X120916666Y-90181009D02*
X120583333Y-90181009D01*
X120583333Y-90704819D02*
X120583333Y-89704819D01*
X120583333Y-89704819D02*
X121059523Y-89704819D01*
X121964285Y-90704819D02*
X121392857Y-90704819D01*
X121678571Y-90704819D02*
X121678571Y-89704819D01*
X121678571Y-89704819D02*
X121583333Y-89847676D01*
X121583333Y-89847676D02*
X121488095Y-89942914D01*
X121488095Y-89942914D02*
X121392857Y-89990533D01*
X120333333Y-116609580D02*
X120285714Y-116657200D01*
X120285714Y-116657200D02*
X120142857Y-116704819D01*
X120142857Y-116704819D02*
X120047619Y-116704819D01*
X120047619Y-116704819D02*
X119904762Y-116657200D01*
X119904762Y-116657200D02*
X119809524Y-116561961D01*
X119809524Y-116561961D02*
X119761905Y-116466723D01*
X119761905Y-116466723D02*
X119714286Y-116276247D01*
X119714286Y-116276247D02*
X119714286Y-116133390D01*
X119714286Y-116133390D02*
X119761905Y-115942914D01*
X119761905Y-115942914D02*
X119809524Y-115847676D01*
X119809524Y-115847676D02*
X119904762Y-115752438D01*
X119904762Y-115752438D02*
X120047619Y-115704819D01*
X120047619Y-115704819D02*
X120142857Y-115704819D01*
X120142857Y-115704819D02*
X120285714Y-115752438D01*
X120285714Y-115752438D02*
X120333333Y-115800057D01*
X121190476Y-116038152D02*
X121190476Y-116704819D01*
X120952381Y-115657200D02*
X120714286Y-116371485D01*
X120714286Y-116371485D02*
X121333333Y-116371485D01*
X114083333Y-99609580D02*
X114035714Y-99657200D01*
X114035714Y-99657200D02*
X113892857Y-99704819D01*
X113892857Y-99704819D02*
X113797619Y-99704819D01*
X113797619Y-99704819D02*
X113654762Y-99657200D01*
X113654762Y-99657200D02*
X113559524Y-99561961D01*
X113559524Y-99561961D02*
X113511905Y-99466723D01*
X113511905Y-99466723D02*
X113464286Y-99276247D01*
X113464286Y-99276247D02*
X113464286Y-99133390D01*
X113464286Y-99133390D02*
X113511905Y-98942914D01*
X113511905Y-98942914D02*
X113559524Y-98847676D01*
X113559524Y-98847676D02*
X113654762Y-98752438D01*
X113654762Y-98752438D02*
X113797619Y-98704819D01*
X113797619Y-98704819D02*
X113892857Y-98704819D01*
X113892857Y-98704819D02*
X114035714Y-98752438D01*
X114035714Y-98752438D02*
X114083333Y-98800057D01*
X115035714Y-99704819D02*
X114464286Y-99704819D01*
X114750000Y-99704819D02*
X114750000Y-98704819D01*
X114750000Y-98704819D02*
X114654762Y-98847676D01*
X114654762Y-98847676D02*
X114559524Y-98942914D01*
X114559524Y-98942914D02*
X114464286Y-98990533D01*
%TO.C,D2*%
D13*
X164250000Y-93965000D02*
X164250000Y-94985000D01*
X164250000Y-101445000D02*
X164250000Y-100425000D01*
X165720000Y-95765000D02*
X162780000Y-95765000D01*
X165720000Y-95885000D02*
X162780000Y-95885000D01*
X165720000Y-96005000D02*
X162780000Y-96005000D01*
X162780000Y-94985000D02*
X165720000Y-94985000D01*
X165720000Y-100425000D01*
X162780000Y-100425000D01*
X162780000Y-94985000D01*
%TO.C,C5*%
X125965000Y-123413748D02*
X125965000Y-123936252D01*
X127435000Y-123413748D02*
X127435000Y-123936252D01*
%TO.C,Q1*%
X124662500Y-98780000D02*
X126182500Y-98780000D01*
X124662500Y-98830000D02*
X124662500Y-98780000D01*
X124662500Y-100730000D02*
X124662500Y-99950000D01*
X124662500Y-101900000D02*
X124662500Y-101850000D01*
X126182500Y-98780000D02*
X126182500Y-99780000D01*
X126182500Y-100900000D02*
X126182500Y-101900000D01*
X126182500Y-101900000D02*
X124662500Y-101900000D01*
X124122500Y-99960000D02*
X124362500Y-100290000D01*
X123882500Y-100290000D01*
X124122500Y-99960000D01*
G36*
X124362500Y-100290000D02*
G01*
X123882500Y-100290000D01*
X124122500Y-99960000D01*
X124362500Y-100290000D01*
G37*
%TO.C,C2*%
X123561252Y-106015000D02*
X123038748Y-106015000D01*
X123561252Y-107485000D02*
X123038748Y-107485000D01*
%TO.C,Q2*%
X159240000Y-84427500D02*
X159290000Y-84427500D01*
X159240000Y-85947500D02*
X159240000Y-84427500D01*
X160240000Y-85947500D02*
X159240000Y-85947500D01*
X160410000Y-84427500D02*
X161190000Y-84427500D01*
X162310000Y-84427500D02*
X162360000Y-84427500D01*
X162360000Y-84427500D02*
X162360000Y-85947500D01*
X162360000Y-85947500D02*
X161360000Y-85947500D01*
X161180000Y-83887500D02*
X160850000Y-84127500D01*
X160850000Y-83647500D01*
X161180000Y-83887500D01*
G36*
X161180000Y-83887500D02*
G01*
X160850000Y-84127500D01*
X160850000Y-83647500D01*
X161180000Y-83887500D01*
G37*
%TO.C,J1*%
X102030000Y-91510000D02*
X112070000Y-91510000D01*
X102030000Y-93870000D02*
X102030000Y-91510000D01*
X102030000Y-101910000D02*
X102030000Y-94470000D01*
X102650000Y-91510000D02*
X102650000Y-101910000D01*
X104150000Y-91510000D02*
X104150000Y-101910000D01*
X109050000Y-91510000D02*
X109050000Y-101910000D01*
X112070000Y-91510000D02*
X112070000Y-101910000D01*
X112070000Y-101910000D02*
X102030000Y-101910000D01*
X102030000Y-94170000D02*
X101420000Y-94610000D01*
X101420000Y-93730000D01*
X102030000Y-94170000D01*
G36*
X102030000Y-94170000D02*
G01*
X101420000Y-94610000D01*
X101420000Y-93730000D01*
X102030000Y-94170000D01*
G37*
%TO.C,J2*%
X167430000Y-93010000D02*
X177470000Y-93010000D01*
X167430000Y-103410000D02*
X167430000Y-93010000D01*
X170450000Y-103410000D02*
X170450000Y-93010000D01*
X175350000Y-103410000D02*
X175350000Y-93010000D01*
X176850000Y-103410000D02*
X176850000Y-93010000D01*
X177470000Y-93010000D02*
X177470000Y-100450000D01*
X177470000Y-101050000D02*
X177470000Y-103410000D01*
X177470000Y-103410000D02*
X167430000Y-103410000D01*
X177470000Y-100750000D02*
X178080000Y-100310000D01*
X178080000Y-101190000D01*
X177470000Y-100750000D01*
G36*
X178080000Y-101190000D02*
G01*
X177470000Y-100750000D01*
X178080000Y-100310000D01*
X178080000Y-101190000D01*
G37*
%TO.C,C3*%
X123683752Y-109015000D02*
X123161248Y-109015000D01*
X123683752Y-110485000D02*
X123161248Y-110485000D01*
%TO.C,R5*%
X161027064Y-81452500D02*
X160572936Y-81452500D01*
X161027064Y-82922500D02*
X160572936Y-82922500D01*
%TO.C,R4*%
X160522936Y-79015000D02*
X160977064Y-79015000D01*
X160522936Y-80485000D02*
X160977064Y-80485000D01*
%TO.C,U2*%
D10*
X129453680Y-70082720D02*
X157453680Y-70082720D01*
X129453680Y-127082720D02*
X129453680Y-70082720D01*
X157453680Y-70082720D02*
X157453680Y-127082720D01*
X157453680Y-127082720D02*
X129453680Y-127082720D01*
X133453680Y-64082720D02*
X153453680Y-64082720D01*
X153453680Y-70082720D01*
X133453680Y-70082720D01*
X133453680Y-64082720D01*
%TO.C,R1*%
D13*
X117149564Y-102105000D02*
X116695436Y-102105000D01*
X117149564Y-103575000D02*
X116695436Y-103575000D01*
%TO.C,D1*%
X120422500Y-103060000D02*
X120422500Y-99200000D01*
X120422500Y-103060000D02*
X122422500Y-103060000D01*
X122422500Y-103060000D02*
X122422500Y-99200000D01*
%TO.C,L1*%
X123862500Y-112877878D02*
X123862500Y-113677122D01*
X124982500Y-112877878D02*
X124982500Y-113677122D01*
%TO.C,RV1*%
X111440000Y-72640000D02*
X125660000Y-72640000D01*
X111440000Y-73020000D02*
X111440000Y-72640000D01*
X111440000Y-83020000D02*
X111440000Y-76480000D01*
X111440000Y-86860000D02*
X111440000Y-86480000D01*
X125660000Y-72640000D02*
X125660000Y-78020000D01*
X125660000Y-81480000D02*
X125660000Y-86860000D01*
X125660000Y-86860000D02*
X111440000Y-86860000D01*
%TO.C,F1*%
X117122500Y-91385000D02*
X117122500Y-92165000D01*
X117122500Y-91385000D02*
X125322500Y-91385000D01*
X117122500Y-97045000D02*
X117122500Y-96265000D01*
X117122500Y-97045000D02*
X125322500Y-97045000D01*
X125322500Y-91385000D02*
X125322500Y-92165000D01*
X125322500Y-97045000D02*
X125322500Y-96265000D01*
%TO.C,C4*%
X123633752Y-115605000D02*
X123111248Y-115605000D01*
X123633752Y-117075000D02*
X123111248Y-117075000D01*
%TO.C,C1*%
X117183752Y-98605000D02*
X116661248Y-98605000D01*
X117183752Y-100075000D02*
X116661248Y-100075000D01*
%TD*%
M02*
